{
    "asset" : {
        "generator" : "Khronos glTF Blender I/O v1.5.17",
        "version" : "2.0"
    },
    "scene" : 0,
    "scenes" : [
        {
            "name" : "Scene",
            "nodes" : [
                0
            ]
        }
    ],
    "nodes" : [
        {
            "mesh" : 0,
            "name" : "Phone",
            "rotation" : [
                0.7071068286895752,
                0,
                0,
                0.7071068286895752
            ],
            "scale" : [
                1,
                0.8972895741462708,
                -1.628798007965088
            ]
        }
    ],
    "materials" : [
        {
            "doubleSided" : true,
            "name" : "Material.002",
            "pbrMetallicRoughness" : {
                "baseColorFactor" : [
                    0.0025794748216867447,
                    0.0025794748216867447,
                    0.0025794748216867447,
                    1
                ],
                "metallicFactor" : 0,
                "roughnessFactor" : 0.5
            }
        },
        {
            "doubleSided" : true,
            "name" : "Material.001",
            "pbrMetallicRoughness" : {
                "baseColorTexture" : {
                    "index" : 0
                },
                "metallicFactor" : 0,
                "roughnessFactor" : 0.5
            }
        },
        {
            "doubleSided" : true,
            "name" : "Material.003",
            "pbrMetallicRoughness" : {
                "baseColorFactor" : [
                    0.04954926297068596,
                    0.04954926297068596,
                    0.04954926297068596,
                    1
                ],
                "metallicFactor" : 0,
                "roughnessFactor" : 0.5
            }
        },
        {
            "doubleSided" : true,
            "name" : "Material.004",
            "pbrMetallicRoughness" : {
                "baseColorFactor" : [
                    0.0699782595038414,
                    0.06943131983280182,
                    0.0699782595038414,
                    1
                ],
                "metallicFactor" : 0,
                "roughnessFactor" : 0.15441176295280457
            }
        },
        {
            "doubleSided" : true,
            "name" : "Material.005",
            "pbrMetallicRoughness" : {
                "baseColorFactor" : [
                    0.013607537373900414,
                    0.01989138126373291,
                    0.04445449635386467,
                    1
                ],
                "metallicFactor" : 0.6764706373214722,
                "roughnessFactor" : 0.11617648601531982
            }
        }
    ],
    "meshes" : [
        {
            "name" : "Plane",
            "primitives" : [
                {
                    "attributes" : {
                        "POSITION" : 0,
                        "NORMAL" : 1,
                        "TEXCOORD_0" : 2
                    },
                    "indices" : 3,
                    "material" : 0
                },
                {
                    "attributes" : {
                        "POSITION" : 4,
                        "NORMAL" : 5,
                        "TEXCOORD_0" : 6
                    },
                    "indices" : 7,
                    "material" : 1
                },
                {
                    "attributes" : {
                        "POSITION" : 8,
                        "NORMAL" : 9,
                        "TEXCOORD_0" : 10
                    },
                    "indices" : 11,
                    "material" : 2
                },
                {
                    "attributes" : {
                        "POSITION" : 12,
                        "NORMAL" : 13,
                        "TEXCOORD_0" : 14
                    },
                    "indices" : 15,
                    "material" : 3
                },
                {
                    "attributes" : {
                        "POSITION" : 16,
                        "NORMAL" : 17,
                        "TEXCOORD_0" : 18
                    },
                    "indices" : 19,
                    "material" : 4
                }
            ]
        }
    ],
    "textures" : [
        {
            "sampler" : 0,
            "source" : 0
        }
    ],
    "images" : [
        {
            "mimeType" : "image/jpeg",
            "name" : "iPhone",
            "uri" : "iPhone.jpg"
        }
    ],
    "accessors" : [
        {
            "bufferView" : 0,
            "componentType" : 5126,
            "count" : 212,
            "max" : [
                1.1920928955078125e-07,
                1.0000001192092896,
                0.9999998807907104
            ],
            "min" : [
                -0.17601975798606873,
                -1.0000001192092896,
                -0.9999999403953552
            ],
            "type" : "VEC3"
        },
        {
            "bufferView" : 1,
            "componentType" : 5126,
            "count" : 212,
            "type" : "VEC3"
        },
        {
            "bufferView" : 2,
            "componentType" : 5126,
            "count" : 212,
            "type" : "VEC2"
        },
        {
            "bufferView" : 3,
            "componentType" : 5123,
            "count" : 354,
            "type" : "SCALAR"
        },
        {
            "bufferView" : 4,
            "componentType" : 5126,
            "count" : 16,
            "max" : [
                -0.13340851664543152,
                0.9467660188674927,
                0.9229938387870789
            ],
            "min" : [
                -0.13340876996517181,
                -0.9467660188674927,
                -0.9550676941871643
            ],
            "type" : "VEC3"
        },
        {
            "bufferView" : 5,
            "componentType" : 5126,
            "count" : 16,
            "type" : "VEC3"
        },
        {
            "bufferView" : 6,
            "componentType" : 5126,
            "count" : 16,
            "type" : "VEC2"
        },
        {
            "bufferView" : 7,
            "componentType" : 5123,
            "count" : 42,
            "type" : "SCALAR"
        },
        {
            "bufferView" : 8,
            "componentType" : 5126,
            "count" : 72,
            "max" : [
                -0.03623564913868904,
                1.027500033378601,
                0.5400137305259705
            ],
            "min" : [
                -0.1319587677717209,
                0.9942750930786133,
                0.06083482503890991
            ],
            "type" : "VEC3"
        },
        {
            "bufferView" : 9,
            "componentType" : 5126,
            "count" : 72,
            "type" : "VEC3"
        },
        {
            "bufferView" : 10,
            "componentType" : 5126,
            "count" : 72,
            "type" : "VEC2"
        },
        {
            "bufferView" : 11,
            "componentType" : 5123,
            "count" : 108,
            "type" : "SCALAR"
        },
        {
            "bufferView" : 12,
            "componentType" : 5126,
            "count" : 128,
            "max" : [
                0.0313783697783947,
                0.7125795483589172,
                0.8587635159492493
            ],
            "min" : [
                -0.04545510187745094,
                0.48663395643234253,
                0.734292209148407
            ],
            "type" : "VEC3"
        },
        {
            "bufferView" : 13,
            "componentType" : 5126,
            "count" : 128,
            "type" : "VEC3"
        },
        {
            "bufferView" : 14,
            "componentType" : 5126,
            "count" : 128,
            "type" : "VEC2"
        },
        {
            "bufferView" : 15,
            "componentType" : 5123,
            "count" : 666,
            "type" : "SCALAR"
        },
        {
            "bufferView" : 16,
            "componentType" : 5126,
            "count" : 32,
            "max" : [
                0.02985578402876854,
                0.6972629427909851,
                0.8503257632255554
            ],
            "min" : [
                0.029855769127607346,
                0.5019505620002747,
                0.7427299618721008
            ],
            "type" : "VEC3"
        },
        {
            "bufferView" : 17,
            "componentType" : 5126,
            "count" : 32,
            "type" : "VEC3"
        },
        {
            "bufferView" : 18,
            "componentType" : 5126,
            "count" : 32,
            "type" : "VEC2"
        },
        {
            "bufferView" : 19,
            "componentType" : 5123,
            "count" : 90,
            "type" : "SCALAR"
        }
    ],
    "bufferViews" : [
        {
            "buffer" : 0,
            "byteLength" : 2544,
            "byteOffset" : 0
        },
        {
            "buffer" : 0,
            "byteLength" : 2544,
            "byteOffset" : 2544
        },
        {
            "buffer" : 0,
            "byteLength" : 1696,
            "byteOffset" : 5088
        },
        {
            "buffer" : 0,
            "byteLength" : 708,
            "byteOffset" : 6784
        },
        {
            "buffer" : 0,
            "byteLength" : 192,
            "byteOffset" : 7492
        },
        {
            "buffer" : 0,
            "byteLength" : 192,
            "byteOffset" : 7684
        },
        {
            "buffer" : 0,
            "byteLength" : 128,
            "byteOffset" : 7876
        },
        {
            "buffer" : 0,
            "byteLength" : 84,
            "byteOffset" : 8004
        },
        {
            "buffer" : 0,
            "byteLength" : 864,
            "byteOffset" : 8088
        },
        {
            "buffer" : 0,
            "byteLength" : 864,
            "byteOffset" : 8952
        },
        {
            "buffer" : 0,
            "byteLength" : 576,
            "byteOffset" : 9816
        },
        {
            "buffer" : 0,
            "byteLength" : 216,
            "byteOffset" : 10392
        },
        {
            "buffer" : 0,
            "byteLength" : 1536,
            "byteOffset" : 10608
        },
        {
            "buffer" : 0,
            "byteLength" : 1536,
            "byteOffset" : 12144
        },
        {
            "buffer" : 0,
            "byteLength" : 1024,
            "byteOffset" : 13680
        },
        {
            "buffer" : 0,
            "byteLength" : 1332,
            "byteOffset" : 14704
        },
        {
            "buffer" : 0,
            "byteLength" : 384,
            "byteOffset" : 16036
        },
        {
            "buffer" : 0,
            "byteLength" : 384,
            "byteOffset" : 16420
        },
        {
            "buffer" : 0,
            "byteLength" : 256,
            "byteOffset" : 16804
        },
        {
            "buffer" : 0,
            "byteLength" : 180,
            "byteOffset" : 17060
        }
    ],
    "samplers" : [
        {
            "magFilter" : 9729,
            "minFilter" : 9987
        }
    ],
    "buffers" : [
        {
            "byteLength" : 17240,
            "uri" : "phone.bin"
        }
    ]
}
