<svg width="640" height="133" viewBox="0 0 640 133" fill="none" xmlns="http://www.w3.org/2000/svg">
<path d="M0 66.4065C0 53.6864 1.27687 42.2757 3.8306 32.1744C6.43866 22.0731 9.94325 14.2166 14.3444 8.60478C18.7998 2.86826 23.6628 0 28.9332 0C34.9644 0 40.3164 3.42944 44.9891 10.2883C49.7163 17.0225 53.1393 26.6249 55.2584 39.0956H44.0926C42.6256 32.2368 40.588 27.1238 37.98 23.7567C35.3719 20.3896 32.3563 18.7061 28.9332 18.7061C25.1841 18.7061 21.8426 20.639 18.9085 24.5049C15.9744 28.3708 13.6652 33.9203 11.9808 41.1533C10.3508 48.3863 9.53574 56.804 9.53574 66.4065C9.53574 76.0089 10.3508 84.4266 11.9808 91.6596C13.6652 98.8926 15.9744 104.504 18.9085 108.495C21.8426 112.361 25.1841 114.294 28.9332 114.294C32.3563 114.294 35.3719 112.61 37.98 109.243C40.588 105.876 42.6256 100.763 44.0926 93.9044H55.2584C53.1393 106.375 49.7163 115.978 44.9891 122.712C40.3164 129.446 34.9644 132.813 28.9332 132.813C23.6084 132.813 18.7455 130.007 14.3444 124.395C9.94325 118.659 6.43866 110.74 3.8306 100.639C1.27687 90.5373 0 79.1266 0 66.4065Z" fill="black"/>
<path d="M90.7474 133C85.477 133 80.614 130.194 76.1586 124.582C71.7575 118.846 68.2529 110.927 65.6448 100.826C63.0911 90.5996 61.8142 79.1266 61.8142 66.4065C61.8142 53.6864 63.0911 42.2757 65.6448 32.1744C68.2529 22.0731 71.7575 14.2166 76.1586 8.60478C80.614 2.86826 85.477 0 90.7474 0C96.0723 0 100.935 2.86826 105.336 8.60478C109.792 14.2166 113.296 22.0731 115.85 32.1744C118.404 42.2757 119.681 53.6864 119.681 66.4065C119.681 79.1266 118.404 90.5996 115.85 100.826C113.296 110.927 109.792 118.846 105.336 124.582C100.935 130.194 96.0723 133 90.7474 133ZM90.7474 114.481C94.4965 114.481 97.8381 112.548 100.772 108.682C103.706 104.692 105.988 99.0797 107.618 91.8467C109.303 84.489 110.145 76.0089 110.145 66.4065C110.145 56.804 109.303 48.3863 107.618 41.1533C105.988 33.9203 103.706 28.3708 100.772 24.5049C97.8381 20.639 94.4965 18.7061 90.7474 18.7061C86.9984 18.7061 83.6568 20.639 80.7227 24.5049C77.7886 28.3708 75.4794 33.9203 73.795 41.1533C72.165 48.3863 71.35 56.804 71.35 66.4065C71.35 76.0089 72.165 84.489 73.795 91.8467C75.4794 99.0797 77.7886 104.692 80.7227 108.682C83.6568 112.548 86.9984 114.481 90.7474 114.481Z" fill="black"/>
<path d="M174.139 131.691H164.847L136.892 34.6062V131.691H127.601V1.49649H136.892L164.847 98.3938V1.49649H174.139V131.691Z" fill="black"/>
<path d="M221.712 1.68354V19.0802H206.634V131.691H197.343V19.0802H182.183V1.68354H221.712Z" fill="black"/>
<path d="M264.048 105.128H240.331L236.256 131.691H226.557L246.851 1.49649H257.61L277.904 131.691H268.123L264.048 105.128ZM261.44 87.7314L252.23 27.3108L242.939 87.7314H261.44Z" fill="black"/>
<path d="M282.408 66.4065C282.408 53.6864 283.685 42.2757 286.238 32.1744C288.846 22.0731 292.351 14.2166 296.752 8.60478C301.208 2.86826 306.071 0 311.341 0C317.372 0 322.724 3.42944 327.397 10.2883C332.124 17.0225 335.547 26.6249 337.666 39.0956H326.5C325.033 32.2368 322.996 27.1238 320.388 23.7567C317.78 20.3896 314.764 18.7061 311.341 18.7061C307.592 18.7061 304.25 20.639 301.316 24.5049C298.382 28.3708 296.073 33.9203 294.389 41.1533C292.759 48.3863 291.944 56.804 291.944 66.4065C291.944 76.0089 292.759 84.4266 294.389 91.6596C296.073 98.8926 298.382 104.504 301.316 108.495C304.25 112.361 307.592 114.294 311.341 114.294C314.764 114.294 317.78 112.61 320.388 109.243C322.996 105.876 325.033 100.763 326.5 93.9044H337.666C335.547 106.375 332.124 115.978 327.397 122.712C322.724 129.446 317.372 132.813 311.341 132.813C306.016 132.813 301.153 130.007 296.752 124.395C292.351 118.659 288.846 110.74 286.238 100.639C283.685 90.5373 282.408 79.1266 282.408 66.4065Z" fill="black"/>
<path d="M383.914 1.68354V19.0802H368.836V131.691H359.544V19.0802H344.385V1.68354H383.914Z" fill="black"/>
<path d="M401.392 18.8931V57.0535H420.952V74.4501H401.392V114.294H423.397V131.691H392.101V1.49649H423.397V18.8931H401.392Z" fill="black"/>
<path d="M513.227 1.68354V131.691H503.936V42.6498L486.658 131.691H480.219L462.859 42.6498V131.691H453.568V1.68354H463.593L483.479 103.632L503.284 1.68354H513.227Z" fill="black"/>
<path d="M550.053 133C544.782 133 539.919 130.194 535.464 124.582C531.063 118.846 527.558 110.927 524.95 100.826C522.397 90.5996 521.12 79.1266 521.12 66.4065C521.12 53.6864 522.397 42.2757 524.95 32.1744C527.558 22.0731 531.063 14.2166 535.464 8.60478C539.919 2.86826 544.782 0 550.053 0C555.378 0 560.241 2.86826 564.642 8.60478C569.097 14.2166 572.602 22.0731 575.156 32.1744C577.709 42.2757 578.986 53.6864 578.986 66.4065C578.986 79.1266 577.709 90.5996 575.156 100.826C572.602 110.927 569.097 118.846 564.642 124.582C560.241 130.194 555.378 133 550.053 133ZM550.053 114.481C553.802 114.481 557.144 112.548 560.078 108.682C563.012 104.692 565.294 99.0797 566.924 91.8467C568.608 84.489 569.45 76.0089 569.45 66.4065C569.45 56.804 568.608 48.3863 566.924 41.1533C565.294 33.9203 563.012 28.3708 560.078 24.5049C557.144 20.639 553.802 18.7061 550.053 18.7061C546.304 18.7061 542.962 20.639 540.028 24.5049C537.094 28.3708 534.785 33.9203 533.1 41.1533C531.47 48.3863 530.655 56.804 530.655 66.4065C530.655 76.0089 531.47 84.489 533.1 91.8467C534.785 99.0797 537.094 104.692 540.028 108.682C542.962 112.548 546.304 114.481 550.053 114.481Z" fill="black"/>
<path d="M596.198 1.68354V131.691H586.906V1.68354H596.198Z" fill="black"/>
<path d="M638.777 1.68354L637.718 92.4079H629.975L628.916 1.68354H638.777ZM634.132 133C632.448 133 631.035 131.691 629.894 129.072C628.753 126.453 628.182 123.211 628.182 119.345C628.182 115.479 628.753 112.236 629.894 109.617C631.035 106.999 632.448 105.689 634.132 105.689C635.762 105.689 637.147 106.999 638.288 109.617C639.43 112.236 640 115.479 640 119.345C640 123.211 639.43 126.453 638.288 129.072C637.147 131.691 635.762 133 634.132 133Z" fill="black"/>
</svg>
