<svg width="80" height="80" viewBox="0 0 80 80" fill="none" xmlns="http://www.w3.org/2000/svg">
<path d="M59.4284 32.2482C61.2097 32.2482 62.8561 32.4399 64.8533 32.8512L63.4301 35.8978C62.3236 35.6784 63.3415 35.8684 62.5054 35.7862V36.2252L62.5591 38.0075L62.5858 40.3114C62.6129 40.8871 62.6129 41.4632 62.64 42.0391V43.191C62.64 46.8113 62.3432 48.5115 61.4526 49.9101C60.1572 51.9672 57.9171 52.9819 54.7327 52.9819C53.1133 52.9819 51.7102 52.7351 50.2526 52.1591V48.2647H50.2529C51.7105 49.0325 53.1676 49.3889 54.7058 49.3889C57.4314 49.3889 58.592 48.2647 58.592 45.5768V45.4946C57.7825 45.9058 56.9726 46.0705 55.8934 46.0705C52.25 46.0705 49.9287 43.6296 49.9287 39.7628C49.9287 34.9629 53.3564 32.248 59.4283 32.248L59.4284 32.2482ZM21.7297 32.5222V42.313C21.7297 45.6865 21.4868 47.3044 20.7583 48.7032C20.0833 50.0472 19.1926 50.8972 17.3577 51.8298L13.4984 49.9648C15.3336 49.0873 16.224 48.3196 16.7907 47.1398C17.3846 45.9331 17.5737 44.5344 17.5737 40.8595V32.5224H21.7297V32.5222ZM71.3053 32.1657C75.4613 32.1657 77.9983 34.8261 77.9983 39.1318C77.9983 43.5476 75.3537 46.3174 71.1433 46.3174C66.987 46.3174 64.4231 43.6571 64.4231 39.3789C64.4234 34.9355 67.0683 32.1658 71.3053 32.1658V32.1657ZM29.7457 32.2207C31.8778 32.2207 33.281 32.7965 33.9018 33.921C34.2525 34.5518 34.3604 35.3744 34.3604 37.1299V45.7138C32.4981 45.988 30.1504 46.1802 28.4232 46.1802C24.9419 46.1802 23.3763 44.9456 23.3763 42.2033C23.3763 39.2412 25.4543 37.87 30.5553 37.4311V36.4986C30.5553 35.7309 30.1775 35.4568 29.1248 35.4568C27.5867 35.4568 25.8594 35.8954 24.24 36.7458V33.4822C26.0755 32.6049 27.8295 32.2209 29.7457 32.2209V32.2207ZM15.1179 26V45.5497C12.986 45.961 11.4205 46.1256 9.72052 46.1256C4.64657 46.1256 2.00183 43.7944 2.00183 39.324C2.00183 35.0182 4.80865 32.221 9.15366 32.221C9.82828 32.221 10.3411 32.2756 10.9618 32.4402V26H15.1179V26ZM42.9157 32.2209C45.0477 32.2209 46.5861 32.7144 47.504 33.6743C48.3675 34.5792 48.6372 35.5664 48.6372 37.6785V45.9608H44.481V37.843C44.481 36.225 43.9413 35.6214 42.457 35.6214C41.8903 35.6214 41.3776 35.6763 40.5408 35.923V45.9608H36.3847V33.1805C38.8405 32.5224 40.8645 32.2209 42.9157 32.2209V32.2209ZM30.7442 40.2015C27.9913 40.4758 27.1007 40.9147 27.1007 42.0116C27.1007 42.8343 27.6137 43.2183 28.7471 43.2183C29.3678 43.2183 29.9345 43.1636 30.7442 43.0264V40.2015V40.2015ZM71.2515 35.5666C69.605 35.5666 68.6601 36.9106 68.6601 39.2415C68.6604 41.5728 69.605 42.9166 71.2239 42.9166C72.8166 42.9166 73.7612 41.5727 73.7612 39.2415C73.7612 36.9379 72.8434 35.5666 71.2515 35.5666V35.5666ZM9.55858 35.6214C7.45354 35.6214 6.23893 36.9379 6.23893 39.2415C6.23893 41.4905 7.39966 42.7246 9.53157 42.7246C9.99022 42.7246 10.3681 42.6972 10.9618 42.6151V35.8407C10.476 35.6763 10.0713 35.6214 9.55858 35.6214V35.6214ZM55.6774 36.2519C54.6792 36.8281 54.1661 37.8703 54.1661 39.3511C54.1661 41.4632 55.1919 42.6697 57.027 42.6697C57.5937 42.6697 58.0526 42.5599 58.5922 42.3955V40.9422C58.5922 40.4485 58.5655 39.8997 58.5655 39.324L58.5386 37.3768L58.5114 35.9781V35.6488H58.0795C57.2701 35.6214 56.3255 35.8407 55.6776 36.252L55.6774 36.2519ZM21.7297 26.0226V30.3559H17.5737V26.0225H21.7297V26.0226Z" fill="black"/>
</svg>
