<svg width="80" height="80" viewBox="0 0 80 80" fill="none" xmlns="http://www.w3.org/2000/svg">
<path fill-rule="evenodd" clip-rule="evenodd" d="M40 8C22.32 8 8 22.32 8 40C8 54.16 17.16 66.12 29.88 70.36C31.48 70.64 32.08 69.68 32.08 68.84C32.08 68.08 32.04 65.56 32.04 62.88C24 64.36 21.92 60.92 21.28 59.12C20.92 58.2 19.36 55.36 18 54.6C16.88 54 15.28 52.52 17.96 52.48C20.48 52.44 22.28 54.8 22.88 55.76C25.76 60.6 30.36 59.24 32.2 58.4C32.48 56.32 33.32 54.92 34.24 54.12C27.12 53.32 19.68 50.56 19.68 38.32C19.68 34.84 20.92 31.96 22.96 29.72C22.64 28.92 21.52 25.64 23.28 21.24C23.28 21.24 25.96 20.4 32.08 24.52C34.64 23.8 37.36 23.44 40.08 23.44C42.8 23.44 45.52 23.8 48.08 24.52C54.2 20.36 56.88 21.24 56.88 21.24C58.64 25.64 57.52 28.92 57.2 29.72C59.24 31.96 60.48 34.8 60.48 38.32C60.48 50.6 53 53.32 45.88 54.12C47.04 55.12 48.04 57.04 48.04 60.04C48.04 64.32 48 67.76 48 68.84C48 69.68 48.6 70.68 50.2 70.36C56.5525 68.2153 62.0725 64.1325 65.9831 58.6863C69.8937 53.2401 71.9981 46.7048 72 40C72 22.32 57.68 8 40 8Z" fill="black"/>
</svg>
