<svg width="80" height="80" viewBox="0 0 80 80" fill="none" xmlns="http://www.w3.org/2000/svg">
<path d="M12 12H68V68H12V12Z" fill="white"/>
<path d="M49.6179 55.7502C50.0951 56.7194 50.8364 57.534 51.7564 58.1002C52.6764 58.6664 53.7377 58.961 54.8179 58.9502C56.9979 58.9502 58.3919 57.8602 58.3919 56.3502C58.3919 54.5502 56.9599 53.9062 54.5599 52.8562L53.2439 52.2922C49.4439 50.6742 46.9239 48.6482 46.9239 44.3642C46.9239 40.4182 49.9239 37.4122 54.6299 37.4122C56.1533 37.3022 57.6754 37.6432 59.0063 38.3926C60.3372 39.1419 61.418 40.2666 62.1139 41.6262L57.9999 44.2562C57.732 43.5821 57.2654 43.0053 56.6621 42.6024C56.0588 42.1995 55.3473 41.9895 54.6219 42.0002C54.3054 41.9685 53.9858 42.0031 53.6835 42.1018C53.3811 42.2005 53.1026 42.361 52.8657 42.5733C52.6288 42.7855 52.4387 43.0448 52.3076 43.3345C52.1764 43.6243 52.1071 43.9382 52.1039 44.2562C52.1039 45.8342 53.0819 46.4742 55.3399 47.4562L56.6559 48.0202C61.1279 49.9382 63.6559 51.8922 63.6559 56.2862C63.6559 61.0242 59.9339 63.6202 54.9359 63.6202C52.9885 63.7443 51.0468 63.3022 49.3452 62.3472C47.6435 61.3922 46.2545 59.9651 45.3459 58.2382L49.6179 55.7502ZM31.0279 56.2062C31.8539 57.6722 32.6059 58.9122 34.4139 58.9122C36.1419 58.9122 37.2339 58.2362 37.2339 55.6062V37.7122H42.4959V55.6762C42.4959 61.1242 39.2959 63.6042 34.6379 63.6042C32.9914 63.6942 31.3562 63.2839 29.9473 62.4272C28.5383 61.5705 27.4216 60.3075 26.7439 58.8042L31.0279 56.2062Z" fill="black"/>
</svg>
