<svg width="64" height="65" viewBox="0 0 64 65" fill="none" xmlns="http://www.w3.org/2000/svg">
<path fill-rule="evenodd" clip-rule="evenodd" d="M2.66669 8.06809C2.66669 6.76817 3.18308 5.5215 4.10226 4.60232C5.02143 3.68314 6.26811 3.16675 7.56802 3.16675H56.4267C57.0709 3.1657 57.709 3.29172 58.3044 3.5376C58.8998 3.78348 59.4409 4.14438 59.8967 4.59965C60.3525 5.05492 60.7139 5.59562 60.9605 6.19078C61.207 6.78594 61.3337 7.42389 61.3334 8.06809V56.9268C61.3341 57.5711 61.2077 58.2092 60.9615 58.8047C60.7154 59.4001 60.3542 59.9412 59.8987 60.3969C59.4433 60.8526 58.9024 61.2141 58.3071 61.4606C57.7118 61.7071 57.0737 61.8338 56.4294 61.8334H7.56802C6.92414 61.8334 6.28658 61.7066 5.69175 61.4601C5.09691 61.2136 4.55648 60.8523 4.10131 60.3969C3.64615 59.9415 3.28517 59.4009 3.03901 58.8059C2.79286 58.2109 2.66634 57.5733 2.66669 56.9294V8.06809ZM25.888 25.5348H33.832V29.5241C34.9787 27.2308 37.912 25.1668 42.32 25.1668C50.7707 25.1668 52.7734 29.7348 52.7734 38.1161V53.6414H44.2214V40.0254C44.2214 35.2521 43.0747 32.5588 40.1627 32.5588C36.1227 32.5588 34.4427 35.4628 34.4427 40.0254V53.6414H25.888V25.5348ZM11.2214 53.2761H19.776V25.1668H11.2214V53.2734V53.2761ZM21 15.9988C21.0162 16.7312 20.8858 17.4595 20.6167 18.1409C20.3475 18.8223 19.945 19.4431 19.4326 19.9668C18.9203 20.4906 18.3086 20.9067 17.6332 21.1908C16.9579 21.4749 16.2327 21.6212 15.5 21.6212C14.7674 21.6212 14.0421 21.4749 13.3668 21.1908C12.6915 20.9067 12.0797 20.4906 11.5674 19.9668C11.0551 19.4431 10.6525 18.8223 10.3834 18.1409C10.1142 17.4595 9.98389 16.7312 10 15.9988C10.0317 14.561 10.625 13.1929 11.653 12.1873C12.6811 11.1816 14.062 10.6185 15.5 10.6185C16.9381 10.6185 18.319 11.1816 19.347 12.1873C20.375 13.1929 20.9684 14.561 21 15.9988Z" fill="black"/>
</svg>
