<svg width="300" height="300" viewBox="0 0 300 300" fill="none" xmlns="http://www.w3.org/2000/svg">
<rect width="300" height="300" fill="#97BEE6"/>
<path fill-rule="evenodd" clip-rule="evenodd" d="M74.7832 66.752C84.5819 74.0555 94.2236 81.242 101 91C111.576 106.229 107.656 127.901 103.776 149.353C98.4846 178.611 93.2667 207.461 125 219C136.26 223.095 146.641 226.351 156.072 229.31C192.706 240.802 215.024 247.804 219 282C219.735 288.325 221.226 294.341 223.248 300H300V0H35.7748C34.9534 37.0648 55.1824 52.1425 74.7832 66.752Z" fill="#E8643C"/>
<line x1="35" y1="64.5" x2="189.003" y2="64.5" stroke="black"/>
<line x1="102" y1="92.5" x2="163" y2="92.5" stroke="black"/>
<line x1="102" y1="113.5" x2="163" y2="113.5" stroke="black"/>
<line x1="102" y1="134.5" x2="163" y2="134.5" stroke="black"/>
<line x1="102" y1="155.5" x2="163" y2="155.5" stroke="black"/>
<line x1="102" y1="198.5" x2="163" y2="198.5" stroke="black"/>
<line x1="102" y1="219.5" x2="163" y2="219.5" stroke="black"/>
<line x1="102" y1="240.5" x2="163" y2="240.5" stroke="black"/>
<line x1="102" y1="261.5" x2="163" y2="261.5" stroke="black"/>
<rect x="70.5" y="80.5" width="12" height="12" fill="#C4C4C4" stroke="black"/>
<rect x="70.5" y="101.5" width="12" height="12" fill="#C4C4C4" stroke="black"/>
<rect x="70.5" y="122.5" width="12" height="12" fill="#C4C4C4" stroke="black"/>
<rect x="70.5" y="143.5" width="12" height="12" fill="#C4C4C4" stroke="black"/>
<line x1="35" y1="170.5" x2="189.003" y2="170.5" stroke="black"/>
<rect x="70.5" y="186.5" width="12" height="12" fill="#C4C4C4" stroke="black"/>
<rect x="70.5" y="207.5" width="12" height="12" fill="#C4C4C4" stroke="black"/>
<rect x="70.5" y="228.5" width="12" height="12" fill="#C4C4C4" stroke="black"/>
<rect x="70.5" y="249.5" width="12" height="12" fill="#C4C4C4" stroke="black"/>
</svg>
