<svg width="297" height="332" viewBox="0 0 297 332" fill="none" xmlns="http://www.w3.org/2000/svg">
<rect x="1" y="10" width="296" height="313" fill="#97BEE6"/>
<path fill-rule="evenodd" clip-rule="evenodd" d="M0.546143 10C31.7287 22.1666 57.0427 35.5331 61.7154 51.2716C66.4099 67.0834 64.337 89.4265 62.1251 113.268C56.6077 172.738 50.2254 241.53 145.855 241.53C190.067 241.53 204.359 268.803 218.74 296.246C223.585 305.49 228.439 314.753 234.45 323H297V10H0.546143Z" fill="#E8643C"/>
<rect x="109.297" y="149.95" width="27" height="172" rx="5" transform="rotate(-25 109.297 149.95)" fill="black"/>
<circle cx="101.005" cy="99.005" r="73" transform="rotate(-25 101.005 99.005)" fill="#F4EBEB" stroke="black" stroke-width="3"/>
<path fill-rule="evenodd" clip-rule="evenodd" d="M88.936 155.94C103.702 149.054 106.779 124.402 95.809 100.876C84.8389 77.3509 63.9758 63.8615 49.2098 70.747C49.002 70.8439 48.7965 70.9443 48.5933 71.0482C48.441 71.1101 48.29 71.1759 48.1404 71.2457C47.2067 71.6811 46.3572 72.2563 45.5916 72.9594C34.0118 81.9539 32.3302 104.351 42.3368 125.811C52.3435 147.27 70.5818 160.379 84.9154 157.29C85.9461 157.155 86.9328 156.874 87.8665 156.439C88.0162 156.369 88.1636 156.296 88.3089 156.219C88.5191 156.13 88.7281 156.037 88.936 155.94ZM88.3089 156.219C98.4881 150.831 98.0691 128.06 87.2534 104.866C76.4378 81.6715 59.2635 66.7135 48.5933 71.0482C47.5287 71.5926 46.5278 72.2322 45.5916 72.9594C37.6396 80.2622 38.7468 101.359 48.7535 122.819C58.7601 144.278 74.2097 158.687 84.9154 157.29C86.0742 157.04 87.2075 156.684 88.3089 156.219Z" fill="#443333"/>
<rect x="39.3321" y="72.043" width="64" height="97" transform="rotate(-25 39.3321 72.043)" fill="#F4EBEB"/>
</svg>
