<svg width="64" height="65" viewBox="0 0 64 65" fill="none" xmlns="http://www.w3.org/2000/svg">
<path d="M60.8 46.9001V18.1C60.8 15.444 58.656 13.3 56 13.3H11.168C8.51198 13.3 6.36798 15.444 6.36798 18.1V46.9001C6.36798 49.556 8.51198 51.7001 11.168 51.7001H56C58.656 51.7001 60.8 49.556 60.8 46.9001ZM56.608 17.748C57.664 18.804 57.088 19.892 56.512 20.436L43.52 32.34L56 45.3321C56.384 45.78 56.64 46.4841 56.192 46.9641C55.776 47.4761 54.816 47.444 54.4 47.1241L40.416 35.188L33.568 41.428L26.752 35.188L12.768 47.1241C12.352 47.444 11.392 47.4761 10.976 46.9641C10.528 46.4841 10.784 45.78 11.168 45.3321L23.648 32.34L10.656 20.436C10.08 19.892 9.50398 18.804 10.56 17.748C11.616 16.692 12.704 17.204 13.6 17.972L33.568 34.1L53.568 17.972C54.464 17.204 55.552 16.692 56.608 17.748Z" fill="black"/>
</svg>
