<svg width="284" height="607" viewBox="0 0 284 607" fill="none" xmlns="http://www.w3.org/2000/svg">
<rect width="284" height="607" fill="#6B9AC4"/>
<g id="shadow">
<path id="Vector" fill-rule="evenodd" clip-rule="evenodd" d="M135.018 127.26C169.452 124.118 180.261 89.5995 211.705 119C241.121 146.505 242.366 149.607 246.323 216.245C249.56 270.759 284.967 363.628 237.465 418.333C211.705 448 231.975 441.54 194.189 456C169.364 465.5 156.323 450.43 122.841 456C86.7727 462 79.8192 447.82 59.0682 443C22.4773 434.5 41.4176 404 41.4176 386.699C41.4176 329.527 3.78902 293.155 4.71601 235.21C5.73779 171.34 1.80234 145.624 30.3182 122C59.7658 97.6038 103.355 130.15 135.018 127.26Z" fill="#F4B942" fill-opacity="0.27"/>
</g>
<g id="layer_lycee">
<g id="blob_lycee">
<path id="Vector_2" fill-rule="evenodd" clip-rule="evenodd" d="M156.018 96.2605C190.452 93.1184 201.261 58.5995 232.705 88C262.121 115.505 263.366 118.607 267.323 185.245C270.56 239.759 305.967 332.628 258.465 387.333C232.705 417 252.975 410.54 215.189 425C190.364 434.5 177.323 419.43 143.841 425C107.773 431 100.819 416.82 80.0682 412C43.4773 403.5 62.4176 373 62.4176 355.699C62.4176 298.527 24.789 262.155 25.716 204.21C26.7378 140.34 22.8023 114.624 51.3182 91C80.7658 66.6038 124.355 99.1496 156.018 96.2605Z" fill="#F4B942"/>
</g>
<g id="lycee_text">
<path id="J&#226;&#128;&#153;ai suivi un cursus plut&#195;&#180;t orient&#195;&#169; science, comme le montre mes diff&#195;&#169;rentes options : Math&#195;&#169;matiques Mat&#195;&#169;matiques expertes Anglais euro Science de l&#226;&#128;&#153;ing&#195;&#169;nieur" d="M77.3906 203.112L77.2946 202.008L78.2546 201.944C78.7986 201.901 79.2146 201.715 79.5026 201.384C79.7906 201.043 79.9346 200.579 79.9346 199.992V191.72H81.2466V200.008C81.2466 200.936 81.0066 201.661 80.5266 202.184C80.0466 202.696 79.3479 202.984 78.4306 203.048L77.3906 203.112ZM84.3221 195.192L83.7301 194.712C83.9648 194.467 84.1301 194.237 84.2261 194.024C84.3328 193.8 84.3968 193.576 84.4181 193.352H83.6661V191.72H85.2981V192.872C85.2981 193.309 85.2288 193.715 85.0901 194.088C84.9514 194.461 84.6954 194.829 84.3221 195.192ZM89.9467 203.144C89.4134 203.144 88.9334 203.043 88.5067 202.84C88.0907 202.627 87.76 202.339 87.5147 201.976C87.2694 201.613 87.1467 201.208 87.1467 200.76C87.1467 200.195 87.2907 199.747 87.5787 199.416C87.8774 199.085 88.3627 198.851 89.0347 198.712C89.7174 198.563 90.6454 198.488 91.8187 198.488H92.3307V197.992C92.3307 197.331 92.192 196.856 91.9147 196.568C91.648 196.269 91.216 196.12 90.6187 196.12C90.1494 196.12 89.696 196.189 89.2587 196.328C88.8214 196.456 88.3734 196.669 87.9147 196.968L87.4667 196.024C87.872 195.736 88.3627 195.507 88.9387 195.336C89.5254 195.165 90.0854 195.08 90.6187 195.08C91.6214 195.08 92.3627 195.325 92.8427 195.816C93.3334 196.307 93.5787 197.069 93.5787 198.104V203H92.3627V201.656C92.16 202.115 91.8454 202.477 91.4187 202.744C91.0027 203.011 90.512 203.144 89.9467 203.144ZM90.1547 202.168C90.7947 202.168 91.3174 201.949 91.7227 201.512C92.128 201.064 92.3307 200.499 92.3307 199.816V199.336H91.8347C90.9707 199.336 90.288 199.379 89.7867 199.464C89.296 199.539 88.9494 199.677 88.7467 199.88C88.5547 200.072 88.4587 200.339 88.4587 200.68C88.4587 201.117 88.608 201.475 88.9067 201.752C89.216 202.029 89.632 202.168 90.1547 202.168ZM95.8231 193.288V191.832H97.4231V193.288H95.8231ZM95.9831 203V195.224H97.2791V203H95.9831ZM106.435 203.144C105.827 203.144 105.251 203.059 104.707 202.888C104.163 202.717 103.715 202.477 103.363 202.168L103.779 201.256C104.163 201.565 104.585 201.795 105.043 201.944C105.513 202.083 105.987 202.152 106.467 202.152C107.075 202.152 107.534 202.04 107.843 201.816C108.153 201.592 108.307 201.288 108.307 200.904C108.307 200.605 108.206 200.371 108.003 200.2C107.801 200.019 107.481 199.88 107.043 199.784L105.587 199.464C104.265 199.176 103.603 198.493 103.603 197.416C103.603 196.712 103.881 196.147 104.435 195.72C105.001 195.293 105.737 195.08 106.643 195.08C107.177 195.08 107.683 195.165 108.163 195.336C108.654 195.496 109.059 195.736 109.379 196.056L108.947 196.968C108.638 196.68 108.275 196.461 107.859 196.312C107.454 196.152 107.049 196.072 106.643 196.072C106.046 196.072 105.593 196.189 105.283 196.424C104.974 196.659 104.819 196.968 104.819 197.352C104.819 197.949 105.214 198.333 106.003 198.504L107.459 198.808C108.142 198.957 108.659 199.197 109.011 199.528C109.363 199.848 109.539 200.285 109.539 200.84C109.539 201.555 109.257 202.12 108.691 202.536C108.126 202.941 107.374 203.144 106.435 203.144ZM114.266 203.144C112.4 203.144 111.466 202.115 111.466 200.056V195.224H112.762V200.04C112.762 200.733 112.901 201.245 113.178 201.576C113.466 201.907 113.914 202.072 114.522 202.072C115.184 202.072 115.722 201.853 116.138 201.416C116.554 200.968 116.762 200.376 116.762 199.64V195.224H118.058V203H116.794V201.688C116.549 202.157 116.202 202.52 115.754 202.776C115.317 203.021 114.821 203.144 114.266 203.144ZM120.323 193.288V191.832H121.923V193.288H120.323ZM120.483 203V195.224H121.779V203H120.483ZM126.49 203L123.146 195.224H124.554L127.13 201.528L129.738 195.224H131.066L127.706 203H126.49ZM132.276 193.288V191.832H133.876V193.288H132.276ZM132.436 203V195.224H133.732V203H132.436ZM143.016 203.144C141.15 203.144 140.216 202.115 140.216 200.056V195.224H141.512V200.04C141.512 200.733 141.651 201.245 141.928 201.576C142.216 201.907 142.664 202.072 143.272 202.072C143.934 202.072 144.472 201.853 144.888 201.416C145.304 200.968 145.512 200.376 145.512 199.64V195.224H146.808V203H145.544V201.688C145.299 202.157 144.952 202.52 144.504 202.776C144.067 203.021 143.571 203.144 143.016 203.144ZM149.233 203V195.224H150.497V196.552C150.753 196.061 151.116 195.693 151.585 195.448C152.054 195.203 152.582 195.08 153.169 195.08C155.014 195.08 155.937 196.104 155.937 198.152V203H154.641V198.232C154.641 197.507 154.497 196.979 154.209 196.648C153.932 196.307 153.484 196.136 152.865 196.136C152.15 196.136 151.58 196.36 151.153 196.808C150.737 197.245 150.529 197.832 150.529 198.568V203H149.233ZM165.732 203.144C164.954 203.144 164.282 202.979 163.716 202.648C163.151 202.307 162.714 201.832 162.404 201.224C162.106 200.605 161.956 199.885 161.956 199.064C161.956 197.827 162.292 196.856 162.964 196.152C163.636 195.437 164.559 195.08 165.732 195.08C166.212 195.08 166.687 195.165 167.156 195.336C167.626 195.507 168.015 195.747 168.324 196.056L167.876 197C167.567 196.701 167.226 196.483 166.852 196.344C166.49 196.205 166.143 196.136 165.812 196.136C165.002 196.136 164.378 196.392 163.94 196.904C163.503 197.405 163.284 198.131 163.284 199.08C163.284 200.008 163.503 200.744 163.94 201.288C164.378 201.821 165.002 202.088 165.812 202.088C166.143 202.088 166.49 202.019 166.852 201.88C167.226 201.741 167.567 201.517 167.876 201.208L168.324 202.152C168.015 202.461 167.62 202.707 167.14 202.888C166.671 203.059 166.202 203.144 165.732 203.144ZM172.594 203.144C170.728 203.144 169.794 202.115 169.794 200.056V195.224H171.09V200.04C171.09 200.733 171.229 201.245 171.506 201.576C171.794 201.907 172.242 202.072 172.85 202.072C173.512 202.072 174.05 201.853 174.466 201.416C174.882 200.968 175.09 200.376 175.09 199.64V195.224H176.386V203H175.122V201.688C174.877 202.157 174.53 202.52 174.082 202.776C173.645 203.021 173.149 203.144 172.594 203.144ZM178.811 203V195.224H180.075V196.616C180.491 195.677 181.345 195.16 182.635 195.064L183.099 195.016L183.195 196.136L182.379 196.232C181.643 196.296 181.083 196.531 180.699 196.936C180.315 197.331 180.123 197.875 180.123 198.568V203H178.811ZM187.091 203.144C186.483 203.144 185.907 203.059 185.363 202.888C184.819 202.717 184.371 202.477 184.019 202.168L184.435 201.256C184.819 201.565 185.241 201.795 185.699 201.944C186.169 202.083 186.643 202.152 187.123 202.152C187.731 202.152 188.19 202.04 188.499 201.816C188.809 201.592 188.963 201.288 188.963 200.904C188.963 200.605 188.862 200.371 188.659 200.2C188.457 200.019 188.137 199.88 187.699 199.784L186.243 199.464C184.921 199.176 184.259 198.493 184.259 197.416C184.259 196.712 184.537 196.147 185.091 195.72C185.657 195.293 186.393 195.08 187.299 195.08C187.833 195.08 188.339 195.165 188.819 195.336C189.31 195.496 189.715 195.736 190.035 196.056L189.603 196.968C189.294 196.68 188.931 196.461 188.515 196.312C188.11 196.152 187.705 196.072 187.299 196.072C186.702 196.072 186.249 196.189 185.939 196.424C185.63 196.659 185.475 196.968 185.475 197.352C185.475 197.949 185.87 198.333 186.659 198.504L188.115 198.808C188.798 198.957 189.315 199.197 189.667 199.528C190.019 199.848 190.195 200.285 190.195 200.84C190.195 201.555 189.913 202.12 189.347 202.536C188.782 202.941 188.03 203.144 187.091 203.144ZM194.923 203.144C193.056 203.144 192.123 202.115 192.123 200.056V195.224H193.419V200.04C193.419 200.733 193.557 201.245 193.835 201.576C194.123 201.907 194.571 202.072 195.179 202.072C195.84 202.072 196.379 201.853 196.795 201.416C197.211 200.968 197.419 200.376 197.419 199.64V195.224H198.715V203H197.451V201.688C197.205 202.157 196.859 202.52 196.411 202.776C195.973 203.021 195.477 203.144 194.923 203.144ZM203.763 203.144C203.155 203.144 202.579 203.059 202.035 202.888C201.491 202.717 201.043 202.477 200.691 202.168L201.107 201.256C201.491 201.565 201.913 201.795 202.371 201.944C202.841 202.083 203.315 202.152 203.795 202.152C204.403 202.152 204.862 202.04 205.171 201.816C205.481 201.592 205.635 201.288 205.635 200.904C205.635 200.605 205.534 200.371 205.331 200.2C205.129 200.019 204.809 199.88 204.371 199.784L202.915 199.464C201.593 199.176 200.931 198.493 200.931 197.416C200.931 196.712 201.209 196.147 201.763 195.72C202.329 195.293 203.065 195.08 203.971 195.08C204.505 195.08 205.011 195.165 205.491 195.336C205.982 195.496 206.387 195.736 206.707 196.056L206.275 196.968C205.966 196.68 205.603 196.461 205.187 196.312C204.782 196.152 204.377 196.072 203.971 196.072C203.374 196.072 202.921 196.189 202.611 196.424C202.302 196.659 202.147 196.968 202.147 197.352C202.147 197.949 202.542 198.333 203.331 198.504L204.787 198.808C205.47 198.957 205.987 199.197 206.339 199.528C206.691 199.848 206.867 200.285 206.867 200.84C206.867 201.555 206.585 202.12 206.019 202.536C205.454 202.941 204.702 203.144 203.763 203.144ZM212.952 205.88V195.224H214.216V196.616C214.451 196.136 214.797 195.763 215.256 195.496C215.725 195.219 216.269 195.08 216.888 195.08C217.581 195.08 218.184 195.245 218.696 195.576C219.219 195.896 219.619 196.36 219.896 196.968C220.184 197.565 220.328 198.28 220.328 199.112C220.328 199.933 220.184 200.648 219.896 201.256C219.619 201.853 219.219 202.317 218.696 202.648C218.184 202.979 217.581 203.144 216.888 203.144C216.291 203.144 215.757 203.011 215.288 202.744C214.819 202.477 214.472 202.109 214.248 201.64V205.88H212.952ZM216.616 202.104C217.341 202.104 217.923 201.848 218.36 201.336C218.797 200.813 219.016 200.072 219.016 199.112C219.016 198.141 218.797 197.4 218.36 196.888C217.923 196.376 217.341 196.12 216.616 196.12C215.891 196.12 215.309 196.376 214.872 196.888C214.435 197.4 214.216 198.141 214.216 199.112C214.216 200.072 214.435 200.813 214.872 201.336C215.309 201.848 215.891 202.104 216.616 202.104ZM224.664 203.144C223.875 203.144 223.277 202.915 222.872 202.456C222.477 201.987 222.28 201.309 222.28 200.424V191.72H223.576V200.328C223.576 201.469 224.029 202.04 224.936 202.04C225.203 202.04 225.443 202.008 225.656 201.944L225.624 203.032C225.293 203.107 224.973 203.144 224.664 203.144ZM229.766 203.144C227.9 203.144 226.966 202.115 226.966 200.056V195.224H228.262V200.04C228.262 200.733 228.401 201.245 228.678 201.576C228.966 201.907 229.414 202.072 230.022 202.072C230.684 202.072 231.222 201.853 231.638 201.416C232.054 200.968 232.262 200.376 232.262 199.64V195.224H233.558V203H232.294V201.688C232.049 202.157 231.702 202.52 231.254 202.776C230.817 203.021 230.321 203.144 229.766 203.144ZM239.103 203.144C238.186 203.144 237.498 202.904 237.039 202.424C236.58 201.933 236.351 201.229 236.351 200.312V196.232H234.831V195.224H236.351V192.84H237.647V195.224H240.111V196.232H237.647V200.184C237.647 200.792 237.775 201.256 238.031 201.576C238.287 201.885 238.703 202.04 239.279 202.04C239.45 202.04 239.62 202.019 239.791 201.976C239.962 201.933 240.116 201.891 240.255 201.848L240.479 202.84C240.34 202.915 240.138 202.984 239.871 203.048C239.604 203.112 239.348 203.144 239.103 203.144ZM244.731 203.144C243.973 203.144 243.317 202.979 242.763 202.648C242.208 202.317 241.776 201.853 241.467 201.256C241.168 200.648 241.019 199.933 241.019 199.112C241.019 198.291 241.168 197.581 241.467 196.984C241.776 196.376 242.208 195.907 242.763 195.576C243.317 195.245 243.973 195.08 244.731 195.08C245.477 195.08 246.128 195.245 246.683 195.576C247.248 195.907 247.68 196.376 247.979 196.984C248.288 197.581 248.443 198.291 248.443 199.112C248.443 199.933 248.288 200.648 247.979 201.256C247.68 201.853 247.248 202.317 246.683 202.648C246.128 202.979 245.477 203.144 244.731 203.144ZM244.731 202.104C245.456 202.104 246.037 201.848 246.475 201.336C246.912 200.813 247.131 200.072 247.131 199.112C247.131 198.141 246.912 197.4 246.475 196.888C246.037 196.376 245.456 196.12 244.731 196.12C243.995 196.12 243.408 196.376 242.971 196.888C242.544 197.4 242.331 198.141 242.331 199.112C242.331 200.072 242.544 200.813 242.971 201.336C243.408 201.848 243.995 202.104 244.731 202.104ZM242.363 194.184L244.107 190.952H245.355L247.099 194.184H246.203L244.731 191.816L243.259 194.184H242.363ZM253.431 203.144C252.514 203.144 251.826 202.904 251.367 202.424C250.909 201.933 250.679 201.229 250.679 200.312V196.232H249.159V195.224H250.679V192.84H251.975V195.224H254.439V196.232H251.975V200.184C251.975 200.792 252.103 201.256 252.359 201.576C252.615 201.885 253.031 202.04 253.607 202.04C253.778 202.04 253.949 202.019 254.119 201.976C254.29 201.933 254.445 201.891 254.583 201.848L254.807 202.84C254.669 202.915 254.466 202.984 254.199 203.048C253.933 203.112 253.677 203.144 253.431 203.144ZM81.9026 230.144C81.1453 230.144 80.4893 229.979 79.9346 229.648C79.3799 229.317 78.9479 228.853 78.6386 228.256C78.3399 227.648 78.1906 226.933 78.1906 226.112C78.1906 225.291 78.3399 224.581 78.6386 223.984C78.9479 223.376 79.3799 222.907 79.9346 222.576C80.4893 222.245 81.1453 222.08 81.9026 222.08C82.6493 222.08 83.2999 222.245 83.8546 222.576C84.4199 222.907 84.8519 223.376 85.1506 223.984C85.4599 224.581 85.6146 225.291 85.6146 226.112C85.6146 226.933 85.4599 227.648 85.1506 228.256C84.8519 228.853 84.4199 229.317 83.8546 229.648C83.2999 229.979 82.6493 230.144 81.9026 230.144ZM81.9026 229.104C82.6279 229.104 83.2093 228.848 83.6466 228.336C84.0839 227.813 84.3026 227.072 84.3026 226.112C84.3026 225.141 84.0839 224.4 83.6466 223.888C83.2093 223.376 82.6279 223.12 81.9026 223.12C81.1666 223.12 80.5799 223.376 80.1426 223.888C79.7159 224.4 79.5026 225.141 79.5026 226.112C79.5026 227.072 79.7159 227.813 80.1426 228.336C80.5799 228.848 81.1666 229.104 81.9026 229.104ZM87.5612 230V222.224H88.8252V223.616C89.2412 222.677 90.0945 222.16 91.3852 222.064L91.8492 222.016L91.9452 223.136L91.1292 223.232C90.3932 223.296 89.8332 223.531 89.4492 223.936C89.0652 224.331 88.8732 224.875 88.8732 225.568V230H87.5612ZM93.1356 220.288V218.832H94.7356V220.288H93.1356ZM93.2956 230V222.224H94.5916V230H93.2956ZM100.518 230.144C99.2917 230.144 98.321 229.787 97.6063 229.072C96.8917 228.347 96.5343 227.365 96.5343 226.128C96.5343 225.328 96.6943 224.624 97.0143 224.016C97.3343 223.397 97.7717 222.923 98.3263 222.592C98.8917 222.251 99.5423 222.08 100.278 222.08C101.334 222.08 102.161 222.421 102.758 223.104C103.356 223.776 103.654 224.704 103.654 225.888V226.384H97.7983C97.841 227.269 98.097 227.947 98.5663 228.416C99.0357 228.875 99.6863 229.104 100.518 229.104C100.988 229.104 101.436 229.035 101.862 228.896C102.289 228.747 102.694 228.507 103.078 228.176L103.526 229.088C103.174 229.419 102.726 229.68 102.182 229.872C101.638 230.053 101.084 230.144 100.518 230.144ZM100.31 223.04C99.5743 223.04 98.993 223.269 98.5663 223.728C98.1397 224.187 97.889 224.789 97.8143 225.536H102.534C102.502 224.747 102.294 224.133 101.91 223.696C101.537 223.259 101.004 223.04 100.31 223.04ZM105.53 230V222.224H106.794V223.552C107.05 223.061 107.413 222.693 107.882 222.448C108.351 222.203 108.879 222.08 109.466 222.08C111.311 222.08 112.234 223.104 112.234 225.152V230H110.938V225.232C110.938 224.507 110.794 223.979 110.506 223.648C110.229 223.307 109.781 223.136 109.162 223.136C108.447 223.136 107.877 223.36 107.45 223.808C107.034 224.245 106.826 224.832 106.826 225.568V230H105.53ZM117.744 230.144C116.826 230.144 116.138 229.904 115.68 229.424C115.221 228.933 114.992 228.229 114.992 227.312V223.232H113.472V222.224H114.992V219.84H116.288V222.224H118.752V223.232H116.288V227.184C116.288 227.792 116.416 228.256 116.672 228.576C116.928 228.885 117.344 229.04 117.92 229.04C118.09 229.04 118.261 229.019 118.432 228.976C118.602 228.933 118.757 228.891 118.896 228.848L119.12 229.84C118.981 229.915 118.778 229.984 118.512 230.048C118.245 230.112 117.989 230.144 117.744 230.144ZM123.643 230.144C122.417 230.144 121.446 229.787 120.731 229.072C120.017 228.347 119.659 227.365 119.659 226.128C119.659 225.328 119.819 224.624 120.139 224.016C120.459 223.397 120.897 222.923 121.451 222.592C122.017 222.251 122.667 222.08 123.403 222.08C124.459 222.08 125.286 222.421 125.883 223.104C126.481 223.776 126.779 224.704 126.779 225.888V226.384H120.923C120.966 227.269 121.222 227.947 121.691 228.416C122.161 228.875 122.811 229.104 123.643 229.104C124.113 229.104 124.561 229.035 124.987 228.896C125.414 228.747 125.819 228.507 126.203 228.176L126.651 229.088C126.299 229.419 125.851 229.68 125.307 229.872C124.763 230.053 124.209 230.144 123.643 230.144ZM123.435 223.04C122.699 223.04 122.118 223.269 121.691 223.728C121.265 224.187 121.014 224.789 120.939 225.536H125.659C125.627 224.747 125.419 224.133 125.035 223.696C124.662 223.259 124.129 223.04 123.435 223.04ZM122.939 221.184L124.587 217.952H125.979L123.867 221.184H122.939ZM135.388 230.144C134.78 230.144 134.204 230.059 133.66 229.888C133.116 229.717 132.668 229.477 132.316 229.168L132.732 228.256C133.116 228.565 133.538 228.795 133.996 228.944C134.466 229.083 134.94 229.152 135.42 229.152C136.028 229.152 136.487 229.04 136.796 228.816C137.106 228.592 137.26 228.288 137.26 227.904C137.26 227.605 137.159 227.371 136.956 227.2C136.754 227.019 136.434 226.88 135.996 226.784L134.54 226.464C133.218 226.176 132.556 225.493 132.556 224.416C132.556 223.712 132.834 223.147 133.388 222.72C133.954 222.293 134.69 222.08 135.596 222.08C136.13 222.08 136.636 222.165 137.116 222.336C137.607 222.496 138.012 222.736 138.332 223.056L137.9 223.968C137.591 223.68 137.228 223.461 136.812 223.312C136.407 223.152 136.002 223.072 135.596 223.072C134.999 223.072 134.546 223.189 134.236 223.424C133.927 223.659 133.772 223.968 133.772 224.352C133.772 224.949 134.167 225.333 134.956 225.504L136.412 225.808C137.095 225.957 137.612 226.197 137.964 226.528C138.316 226.848 138.492 227.285 138.492 227.84C138.492 228.555 138.21 229.12 137.644 229.536C137.079 229.941 136.327 230.144 135.388 230.144ZM143.763 230.144C142.985 230.144 142.313 229.979 141.747 229.648C141.182 229.307 140.745 228.832 140.435 228.224C140.137 227.605 139.987 226.885 139.987 226.064C139.987 224.827 140.323 223.856 140.995 223.152C141.667 222.437 142.59 222.08 143.763 222.08C144.243 222.08 144.718 222.165 145.187 222.336C145.657 222.507 146.046 222.747 146.355 223.056L145.907 224C145.598 223.701 145.257 223.483 144.883 223.344C144.521 223.205 144.174 223.136 143.843 223.136C143.033 223.136 142.409 223.392 141.971 223.904C141.534 224.405 141.315 225.131 141.315 226.08C141.315 227.008 141.534 227.744 141.971 228.288C142.409 228.821 143.033 229.088 143.843 229.088C144.174 229.088 144.521 229.019 144.883 228.88C145.257 228.741 145.598 228.517 145.907 228.208L146.355 229.152C146.046 229.461 145.651 229.707 145.171 229.888C144.702 230.059 144.233 230.144 143.763 230.144ZM147.714 220.288V218.832H149.314V220.288H147.714ZM147.874 230V222.224H149.17V230H147.874ZM155.096 230.144C153.87 230.144 152.899 229.787 152.184 229.072C151.47 228.347 151.112 227.365 151.112 226.128C151.112 225.328 151.272 224.624 151.592 224.016C151.912 223.397 152.35 222.923 152.904 222.592C153.47 222.251 154.12 222.08 154.856 222.08C155.912 222.08 156.739 222.421 157.336 223.104C157.934 223.776 158.232 224.704 158.232 225.888V226.384H152.376C152.419 227.269 152.675 227.947 153.144 228.416C153.614 228.875 154.264 229.104 155.096 229.104C155.566 229.104 156.014 229.035 156.44 228.896C156.867 228.747 157.272 228.507 157.656 228.176L158.104 229.088C157.752 229.419 157.304 229.68 156.76 229.872C156.216 230.053 155.662 230.144 155.096 230.144ZM154.888 223.04C154.152 223.04 153.571 223.269 153.144 223.728C152.718 224.187 152.467 224.789 152.392 225.536H157.112C157.08 224.747 156.872 224.133 156.488 223.696C156.115 223.259 155.582 223.04 154.888 223.04ZM160.108 230V222.224H161.372V223.552C161.628 223.061 161.991 222.693 162.46 222.448C162.929 222.203 163.457 222.08 164.044 222.08C165.889 222.08 166.812 223.104 166.812 225.152V230H165.516V225.232C165.516 224.507 165.372 223.979 165.084 223.648C164.807 223.307 164.359 223.136 163.74 223.136C163.025 223.136 162.455 223.36 162.028 223.808C161.612 224.245 161.404 224.832 161.404 225.568V230H160.108ZM172.498 230.144C171.719 230.144 171.047 229.979 170.482 229.648C169.917 229.307 169.479 228.832 169.17 228.224C168.871 227.605 168.722 226.885 168.722 226.064C168.722 224.827 169.058 223.856 169.73 223.152C170.402 222.437 171.325 222.08 172.498 222.08C172.978 222.08 173.453 222.165 173.922 222.336C174.391 222.507 174.781 222.747 175.09 223.056L174.642 224C174.333 223.701 173.991 223.483 173.618 223.344C173.255 223.205 172.909 223.136 172.578 223.136C171.767 223.136 171.143 223.392 170.706 223.904C170.269 224.405 170.05 225.131 170.05 226.08C170.05 227.008 170.269 227.744 170.706 228.288C171.143 228.821 171.767 229.088 172.578 229.088C172.909 229.088 173.255 229.019 173.618 228.88C173.991 228.741 174.333 228.517 174.642 228.208L175.09 229.152C174.781 229.461 174.386 229.707 173.906 229.888C173.437 230.059 172.967 230.144 172.498 230.144ZM179.956 230.144C178.729 230.144 177.759 229.787 177.044 229.072C176.329 228.347 175.972 227.365 175.972 226.128C175.972 225.328 176.132 224.624 176.452 224.016C176.772 223.397 177.209 222.923 177.764 222.592C178.329 222.251 178.98 222.08 179.716 222.08C180.772 222.08 181.599 222.421 182.196 223.104C182.793 223.776 183.092 224.704 183.092 225.888V226.384H177.236C177.279 227.269 177.535 227.947 178.004 228.416C178.473 228.875 179.124 229.104 179.956 229.104C180.425 229.104 180.873 229.035 181.3 228.896C181.727 228.747 182.132 228.507 182.516 228.176L182.964 229.088C182.612 229.419 182.164 229.68 181.62 229.872C181.076 230.053 180.521 230.144 179.956 230.144ZM179.748 223.04C179.012 223.04 178.431 223.269 178.004 223.728C177.577 224.187 177.327 224.789 177.252 225.536H181.972C181.94 224.747 181.732 224.133 181.348 223.696C180.975 223.259 180.441 223.04 179.748 223.04ZM185.431 231.824L184.823 231.36C185.058 231.115 185.223 230.88 185.319 230.656C185.426 230.443 185.495 230.224 185.527 230H184.759V228.368H186.391V229.52C186.391 229.957 186.322 230.363 186.183 230.736C186.045 231.109 185.794 231.472 185.431 231.824ZM196.013 230.144C195.235 230.144 194.563 229.979 193.997 229.648C193.432 229.307 192.995 228.832 192.685 228.224C192.387 227.605 192.237 226.885 192.237 226.064C192.237 224.827 192.573 223.856 193.245 223.152C193.917 222.437 194.84 222.08 196.013 222.08C196.493 222.08 196.968 222.165 197.437 222.336C197.907 222.507 198.296 222.747 198.605 223.056L198.157 224C197.848 223.701 197.507 223.483 197.133 223.344C196.771 223.205 196.424 223.136 196.093 223.136C195.283 223.136 194.659 223.392 194.221 223.904C193.784 224.405 193.565 225.131 193.565 226.08C193.565 227.008 193.784 227.744 194.221 228.288C194.659 228.821 195.283 229.088 196.093 229.088C196.424 229.088 196.771 229.019 197.133 228.88C197.507 228.741 197.848 228.517 198.157 228.208L198.605 229.152C198.296 229.461 197.901 229.707 197.421 229.888C196.952 230.059 196.483 230.144 196.013 230.144ZM203.199 230.144C202.442 230.144 201.786 229.979 201.231 229.648C200.677 229.317 200.245 228.853 199.935 228.256C199.637 227.648 199.487 226.933 199.487 226.112C199.487 225.291 199.637 224.581 199.935 223.984C200.245 223.376 200.677 222.907 201.231 222.576C201.786 222.245 202.442 222.08 203.199 222.08C203.946 222.08 204.597 222.245 205.151 222.576C205.717 222.907 206.149 223.376 206.447 223.984C206.757 224.581 206.911 225.291 206.911 226.112C206.911 226.933 206.757 227.648 206.447 228.256C206.149 228.853 205.717 229.317 205.151 229.648C204.597 229.979 203.946 230.144 203.199 230.144ZM203.199 229.104C203.925 229.104 204.506 228.848 204.943 228.336C205.381 227.813 205.599 227.072 205.599 226.112C205.599 225.141 205.381 224.4 204.943 223.888C204.506 223.376 203.925 223.12 203.199 223.12C202.463 223.12 201.877 223.376 201.439 223.888C201.013 224.4 200.799 225.141 200.799 226.112C200.799 227.072 201.013 227.813 201.439 228.336C201.877 228.848 202.463 229.104 203.199 229.104ZM208.89 230V222.224H210.154V223.536C210.389 223.067 210.714 222.709 211.13 222.464C211.546 222.208 212.031 222.08 212.586 222.08C213.802 222.08 214.581 222.608 214.922 223.664C215.157 223.173 215.503 222.789 215.962 222.512C216.421 222.224 216.949 222.08 217.546 222.08C219.274 222.08 220.138 223.104 220.138 225.152V230H218.842V225.216C218.842 224.501 218.714 223.979 218.458 223.648C218.213 223.307 217.802 223.136 217.226 223.136C216.597 223.136 216.095 223.36 215.722 223.808C215.349 224.256 215.162 224.853 215.162 225.6V230H213.866V225.216C213.866 224.501 213.738 223.979 213.482 223.648C213.237 223.307 212.826 223.136 212.25 223.136C211.61 223.136 211.103 223.36 210.73 223.808C210.367 224.256 210.186 224.853 210.186 225.6V230H208.89ZM222.593 230V222.224H223.857V223.536C224.092 223.067 224.417 222.709 224.833 222.464C225.249 222.208 225.735 222.08 226.289 222.08C227.505 222.08 228.284 222.608 228.625 223.664C228.86 223.173 229.207 222.789 229.665 222.512C230.124 222.224 230.652 222.08 231.249 222.08C232.977 222.08 233.841 223.104 233.841 225.152V230H232.545V225.216C232.545 224.501 232.417 223.979 232.161 223.648C231.916 223.307 231.505 223.136 230.929 223.136C230.3 223.136 229.799 223.36 229.425 223.808C229.052 224.256 228.865 224.853 228.865 225.6V230H227.569V225.216C227.569 224.501 227.441 223.979 227.185 223.648C226.94 223.307 226.529 223.136 225.953 223.136C225.313 223.136 224.807 223.36 224.433 223.808C224.071 224.256 223.889 224.853 223.889 225.6V230H222.593ZM239.768 230.144C238.542 230.144 237.571 229.787 236.856 229.072C236.142 228.347 235.784 227.365 235.784 226.128C235.784 225.328 235.944 224.624 236.264 224.016C236.584 223.397 237.022 222.923 237.576 222.592C238.142 222.251 238.792 222.08 239.528 222.08C240.584 222.08 241.411 222.421 242.008 223.104C242.606 223.776 242.904 224.704 242.904 225.888V226.384H237.048C237.091 227.269 237.347 227.947 237.816 228.416C238.286 228.875 238.936 229.104 239.768 229.104C240.238 229.104 240.686 229.035 241.112 228.896C241.539 228.747 241.944 228.507 242.328 228.176L242.776 229.088C242.424 229.419 241.976 229.68 241.432 229.872C240.888 230.053 240.334 230.144 239.768 230.144ZM239.56 223.04C238.824 223.04 238.243 223.269 237.816 223.728C237.39 224.187 237.139 224.789 237.064 225.536H241.784C241.752 224.747 241.544 224.133 241.16 223.696C240.787 223.259 240.254 223.04 239.56 223.04ZM251.273 230.144C250.484 230.144 249.887 229.915 249.481 229.456C249.087 228.987 248.889 228.309 248.889 227.424V218.72H250.185V227.328C250.185 228.469 250.639 229.04 251.545 229.04C251.812 229.04 252.052 229.008 252.265 228.944L252.233 230.032C251.903 230.107 251.583 230.144 251.273 230.144ZM257.05 230.144C255.823 230.144 254.852 229.787 254.138 229.072C253.423 228.347 253.066 227.365 253.066 226.128C253.066 225.328 253.226 224.624 253.546 224.016C253.866 223.397 254.303 222.923 254.858 222.592C255.423 222.251 256.074 222.08 256.81 222.08C257.866 222.08 258.692 222.421 259.29 223.104C259.887 223.776 260.186 224.704 260.186 225.888V226.384H254.33C254.372 227.269 254.628 227.947 255.098 228.416C255.567 228.875 256.218 229.104 257.05 229.104C257.519 229.104 257.967 229.035 258.394 228.896C258.82 228.747 259.226 228.507 259.61 228.176L260.058 229.088C259.706 229.419 259.258 229.68 258.714 229.872C258.17 230.053 257.615 230.144 257.05 230.144ZM256.842 223.04C256.106 223.04 255.524 223.269 255.098 223.728C254.671 224.187 254.42 224.789 254.346 225.536H259.066C259.034 224.747 258.826 224.133 258.442 223.696C258.068 223.259 257.535 223.04 256.842 223.04ZM78.7026 257V249.224H79.9666V250.536C80.2013 250.067 80.5266 249.709 80.9426 249.464C81.3586 249.208 81.8439 249.08 82.3986 249.08C83.6146 249.08 84.3933 249.608 84.7346 250.664C84.9693 250.173 85.3159 249.789 85.7746 249.512C86.2333 249.224 86.7613 249.08 87.3586 249.08C89.0866 249.08 89.9506 250.104 89.9506 252.152V257H88.6546V252.216C88.6546 251.501 88.5266 250.979 88.2706 250.648C88.0253 250.307 87.6146 250.136 87.0386 250.136C86.4093 250.136 85.9079 250.36 85.5346 250.808C85.1613 251.256 84.9746 251.853 84.9746 252.6V257H83.6786V252.216C83.6786 251.501 83.5506 250.979 83.2946 250.648C83.0493 250.307 82.6386 250.136 82.0626 250.136C81.4226 250.136 80.9159 250.36 80.5426 250.808C80.1799 251.256 79.9986 251.853 79.9986 252.6V257H78.7026ZM95.6057 257.144C94.8484 257.144 94.1924 256.979 93.6377 256.648C93.083 256.317 92.651 255.853 92.3417 255.256C92.043 254.648 91.8937 253.933 91.8937 253.112C91.8937 252.291 92.043 251.581 92.3417 250.984C92.651 250.376 93.083 249.907 93.6377 249.576C94.1924 249.245 94.8484 249.08 95.6057 249.08C96.3524 249.08 97.003 249.245 97.5577 249.576C98.123 249.907 98.555 250.376 98.8537 250.984C99.163 251.581 99.3177 252.291 99.3177 253.112C99.3177 253.933 99.163 254.648 98.8537 255.256C98.555 255.853 98.123 256.317 97.5577 256.648C97.003 256.979 96.3524 257.144 95.6057 257.144ZM95.6057 256.104C96.331 256.104 96.9124 255.848 97.3497 255.336C97.787 254.813 98.0057 254.072 98.0057 253.112C98.0057 252.141 97.787 251.4 97.3497 250.888C96.9124 250.376 96.331 250.12 95.6057 250.12C94.8697 250.12 94.283 250.376 93.8457 250.888C93.419 251.4 93.2057 252.141 93.2057 253.112C93.2057 254.072 93.419 254.813 93.8457 255.336C94.283 255.848 94.8697 256.104 95.6057 256.104ZM101.264 257V249.224H102.528V250.552C102.784 250.061 103.147 249.693 103.616 249.448C104.086 249.203 104.614 249.08 105.2 249.08C107.046 249.08 107.968 250.104 107.968 252.152V257H106.672V252.232C106.672 251.507 106.528 250.979 106.24 250.648C105.963 250.307 105.515 250.136 104.896 250.136C104.182 250.136 103.611 250.36 103.184 250.808C102.768 251.245 102.56 251.832 102.56 252.568V257H101.264ZM113.478 257.144C112.561 257.144 111.873 256.904 111.414 256.424C110.955 255.933 110.726 255.229 110.726 254.312V250.232H109.206V249.224H110.726V246.84H112.022V249.224H114.486V250.232H112.022V254.184C112.022 254.792 112.15 255.256 112.406 255.576C112.662 255.885 113.078 256.04 113.654 256.04C113.825 256.04 113.995 256.019 114.166 255.976C114.337 255.933 114.491 255.891 114.63 255.848L114.854 256.84C114.715 256.915 114.513 256.984 114.246 257.048C113.979 257.112 113.723 257.144 113.478 257.144ZM115.952 257V249.224H117.216V250.616C117.632 249.677 118.485 249.16 119.776 249.064L120.24 249.016L120.336 250.136L119.52 250.232C118.784 250.296 118.224 250.531 117.84 250.936C117.456 251.331 117.264 251.875 117.264 252.568V257H115.952ZM125.096 257.144C123.87 257.144 122.899 256.787 122.184 256.072C121.47 255.347 121.112 254.365 121.112 253.128C121.112 252.328 121.272 251.624 121.592 251.016C121.912 250.397 122.35 249.923 122.904 249.592C123.47 249.251 124.12 249.08 124.856 249.08C125.912 249.08 126.739 249.421 127.336 250.104C127.934 250.776 128.232 251.704 128.232 252.888V253.384H122.376C122.419 254.269 122.675 254.947 123.144 255.416C123.614 255.875 124.264 256.104 125.096 256.104C125.566 256.104 126.014 256.035 126.44 255.896C126.867 255.747 127.272 255.507 127.656 255.176L128.104 256.088C127.752 256.419 127.304 256.68 126.76 256.872C126.216 257.053 125.662 257.144 125.096 257.144ZM124.888 250.04C124.152 250.04 123.571 250.269 123.144 250.728C122.718 251.187 122.467 251.789 122.392 252.536H127.112C127.08 251.747 126.872 251.133 126.488 250.696C126.115 250.259 125.582 250.04 124.888 250.04ZM134.249 257V249.224H135.513V250.536C135.748 250.067 136.073 249.709 136.489 249.464C136.905 249.208 137.391 249.08 137.945 249.08C139.161 249.08 139.94 249.608 140.281 250.664C140.516 250.173 140.863 249.789 141.321 249.512C141.78 249.224 142.308 249.08 142.905 249.08C144.633 249.08 145.497 250.104 145.497 252.152V257H144.201V252.216C144.201 251.501 144.073 250.979 143.817 250.648C143.572 250.307 143.161 250.136 142.585 250.136C141.956 250.136 141.455 250.36 141.081 250.808C140.708 251.256 140.521 251.853 140.521 252.6V257H139.225V252.216C139.225 251.501 139.097 250.979 138.841 250.648C138.596 250.307 138.185 250.136 137.609 250.136C136.969 250.136 136.463 250.36 136.089 250.808C135.727 251.256 135.545 251.853 135.545 252.6V257H134.249ZM151.425 257.144C150.198 257.144 149.227 256.787 148.513 256.072C147.798 255.347 147.441 254.365 147.441 253.128C147.441 252.328 147.601 251.624 147.921 251.016C148.241 250.397 148.678 249.923 149.233 249.592C149.798 249.251 150.449 249.08 151.185 249.08C152.241 249.08 153.067 249.421 153.665 250.104C154.262 250.776 154.561 251.704 154.561 252.888V253.384H148.705C148.747 254.269 149.003 254.947 149.473 255.416C149.942 255.875 150.593 256.104 151.425 256.104C151.894 256.104 152.342 256.035 152.769 255.896C153.195 255.747 153.601 255.507 153.985 255.176L154.433 256.088C154.081 256.419 153.633 256.68 153.089 256.872C152.545 257.053 151.99 257.144 151.425 257.144ZM151.217 250.04C150.481 250.04 149.899 250.269 149.473 250.728C149.046 251.187 148.795 251.789 148.721 252.536H153.441C153.409 251.747 153.201 251.133 152.817 250.696C152.443 250.259 151.91 250.04 151.217 250.04ZM159.06 257.144C158.452 257.144 157.876 257.059 157.332 256.888C156.788 256.717 156.34 256.477 155.988 256.168L156.404 255.256C156.788 255.565 157.21 255.795 157.668 255.944C158.138 256.083 158.612 256.152 159.092 256.152C159.7 256.152 160.159 256.04 160.468 255.816C160.778 255.592 160.932 255.288 160.932 254.904C160.932 254.605 160.831 254.371 160.628 254.2C160.426 254.019 160.106 253.88 159.668 253.784L158.212 253.464C156.89 253.176 156.228 252.493 156.228 251.416C156.228 250.712 156.506 250.147 157.06 249.72C157.626 249.293 158.362 249.08 159.268 249.08C159.802 249.08 160.308 249.165 160.788 249.336C161.279 249.496 161.684 249.736 162.004 250.056L161.572 250.968C161.263 250.68 160.9 250.461 160.484 250.312C160.079 250.152 159.674 250.072 159.268 250.072C158.671 250.072 158.218 250.189 157.908 250.424C157.599 250.659 157.444 250.968 157.444 251.352C157.444 251.949 157.839 252.333 158.628 252.504L160.084 252.808C160.767 252.957 161.284 253.197 161.636 253.528C161.988 253.848 162.164 254.285 162.164 254.84C162.164 255.555 161.882 256.12 161.316 256.536C160.751 256.941 159.999 257.144 159.06 257.144ZM171.209 257.144C170.515 257.144 169.907 256.979 169.385 256.648C168.873 256.317 168.473 255.853 168.185 255.256C167.907 254.648 167.769 253.933 167.769 253.112C167.769 252.28 167.907 251.565 168.185 250.968C168.473 250.36 168.873 249.896 169.385 249.576C169.907 249.245 170.515 249.08 171.209 249.08C171.817 249.08 172.35 249.213 172.809 249.48C173.278 249.747 173.625 250.115 173.849 250.584V245.72H175.145V257H173.881V255.576C173.657 256.067 173.31 256.451 172.841 256.728C172.371 257.005 171.827 257.144 171.209 257.144ZM171.481 256.104C172.206 256.104 172.787 255.848 173.225 255.336C173.662 254.813 173.881 254.072 173.881 253.112C173.881 252.141 173.662 251.4 173.225 250.888C172.787 250.376 172.206 250.12 171.481 250.12C170.745 250.12 170.158 250.376 169.721 250.888C169.294 251.4 169.081 252.141 169.081 253.112C169.081 254.072 169.294 254.813 169.721 255.336C170.158 255.848 170.745 256.104 171.481 256.104ZM177.417 247.288V245.832H179.017V247.288H177.417ZM177.577 257V249.224H178.873V257H177.577ZM181.712 257V250.232H180.176V249.224H181.712V248.952C181.712 247.917 181.968 247.133 182.48 246.6C183.002 246.067 183.802 245.768 184.88 245.704L185.504 245.672L185.616 246.664L184.88 246.712C184.218 246.765 183.738 246.963 183.44 247.304C183.152 247.645 183.008 248.141 183.008 248.792V249.224H185.248V250.232H183.008V257H181.712ZM186.79 257V250.232H185.254V249.224H186.79V248.952C186.79 247.917 187.046 247.133 187.558 246.6C188.08 246.067 188.88 245.768 189.958 245.704L190.582 245.672L190.694 246.664L189.958 246.712C189.296 246.765 188.816 246.963 188.518 247.304C188.23 247.645 188.086 248.141 188.086 248.792V249.224H190.326V250.232H188.086V257H186.79ZM194.987 257.144C193.76 257.144 192.79 256.787 192.075 256.072C191.36 255.347 191.003 254.365 191.003 253.128C191.003 252.328 191.163 251.624 191.483 251.016C191.803 250.397 192.24 249.923 192.795 249.592C193.36 249.251 194.011 249.08 194.747 249.08C195.803 249.08 196.63 249.421 197.227 250.104C197.824 250.776 198.123 251.704 198.123 252.888V253.384H192.267C192.31 254.269 192.566 254.947 193.035 255.416C193.504 255.875 194.155 256.104 194.987 256.104C195.456 256.104 195.904 256.035 196.331 255.896C196.758 255.747 197.163 255.507 197.547 255.176L197.995 256.088C197.643 256.419 197.195 256.68 196.651 256.872C196.107 257.053 195.552 257.144 194.987 257.144ZM194.779 250.04C194.043 250.04 193.462 250.269 193.035 250.728C192.608 251.187 192.358 251.789 192.283 252.536H197.003C196.971 251.747 196.763 251.133 196.379 250.696C196.006 250.259 195.472 250.04 194.779 250.04ZM194.283 248.184L195.931 244.952H197.323L195.211 248.184H194.283ZM199.999 257V249.224H201.263V250.616C201.679 249.677 202.532 249.16 203.823 249.064L204.287 249.016L204.383 250.136L203.567 250.232C202.831 250.296 202.271 250.531 201.887 250.936C201.503 251.331 201.311 251.875 201.311 252.568V257H199.999ZM209.143 257.144C207.917 257.144 206.946 256.787 206.231 256.072C205.517 255.347 205.159 254.365 205.159 253.128C205.159 252.328 205.319 251.624 205.639 251.016C205.959 250.397 206.397 249.923 206.951 249.592C207.517 249.251 208.167 249.08 208.903 249.08C209.959 249.08 210.786 249.421 211.383 250.104C211.981 250.776 212.279 251.704 212.279 252.888V253.384H206.423C206.466 254.269 206.722 254.947 207.191 255.416C207.661 255.875 208.311 256.104 209.143 256.104C209.613 256.104 210.061 256.035 210.487 255.896C210.914 255.747 211.319 255.507 211.703 255.176L212.151 256.088C211.799 256.419 211.351 256.68 210.807 256.872C210.263 257.053 209.709 257.144 209.143 257.144ZM208.935 250.04C208.199 250.04 207.618 250.269 207.191 250.728C206.765 251.187 206.514 251.789 206.439 252.536H211.159C211.127 251.747 210.919 251.133 210.535 250.696C210.162 250.259 209.629 250.04 208.935 250.04ZM214.155 257V249.224H215.419V250.552C215.675 250.061 216.038 249.693 216.507 249.448C216.976 249.203 217.504 249.08 218.091 249.08C219.936 249.08 220.859 250.104 220.859 252.152V257H219.563V252.232C219.563 251.507 219.419 250.979 219.131 250.648C218.854 250.307 218.406 250.136 217.787 250.136C217.072 250.136 216.502 250.36 216.075 250.808C215.659 251.245 215.451 251.832 215.451 252.568V257H214.155ZM226.369 257.144C225.451 257.144 224.763 256.904 224.305 256.424C223.846 255.933 223.617 255.229 223.617 254.312V250.232H222.097V249.224H223.617V246.84H224.913V249.224H227.377V250.232H224.913V254.184C224.913 254.792 225.041 255.256 225.297 255.576C225.553 255.885 225.969 256.04 226.545 256.04C226.715 256.04 226.886 256.019 227.057 255.976C227.227 255.933 227.382 255.891 227.521 255.848L227.745 256.84C227.606 256.915 227.403 256.984 227.137 257.048C226.87 257.112 226.614 257.144 226.369 257.144ZM232.268 257.144C231.042 257.144 230.071 256.787 229.356 256.072C228.642 255.347 228.284 254.365 228.284 253.128C228.284 252.328 228.444 251.624 228.764 251.016C229.084 250.397 229.522 249.923 230.076 249.592C230.642 249.251 231.292 249.08 232.028 249.08C233.084 249.08 233.911 249.421 234.508 250.104C235.106 250.776 235.404 251.704 235.404 252.888V253.384H229.548C229.591 254.269 229.847 254.947 230.316 255.416C230.786 255.875 231.436 256.104 232.268 256.104C232.738 256.104 233.186 256.035 233.612 255.896C234.039 255.747 234.444 255.507 234.828 255.176L235.276 256.088C234.924 256.419 234.476 256.68 233.932 256.872C233.388 257.053 232.834 257.144 232.268 257.144ZM232.06 250.04C231.324 250.04 230.743 250.269 230.316 250.728C229.89 251.187 229.639 251.789 229.564 252.536H234.284C234.252 251.747 234.044 251.133 233.66 250.696C233.287 250.259 232.754 250.04 232.06 250.04ZM239.904 257.144C239.296 257.144 238.72 257.059 238.176 256.888C237.632 256.717 237.184 256.477 236.832 256.168L237.248 255.256C237.632 255.565 238.053 255.795 238.512 255.944C238.981 256.083 239.456 256.152 239.936 256.152C240.544 256.152 241.003 256.04 241.312 255.816C241.621 255.592 241.776 255.288 241.776 254.904C241.776 254.605 241.675 254.371 241.472 254.2C241.269 254.019 240.949 253.88 240.512 253.784L239.056 253.464C237.733 253.176 237.072 252.493 237.072 251.416C237.072 250.712 237.349 250.147 237.904 249.72C238.469 249.293 239.205 249.08 240.112 249.08C240.645 249.08 241.152 249.165 241.632 249.336C242.123 249.496 242.528 249.736 242.848 250.056L242.416 250.968C242.107 250.68 241.744 250.461 241.328 250.312C240.923 250.152 240.517 250.072 240.112 250.072C239.515 250.072 239.061 250.189 238.752 250.424C238.443 250.659 238.288 250.968 238.288 251.352C238.288 251.949 238.683 252.333 239.472 252.504L240.928 252.808C241.611 252.957 242.128 253.197 242.48 253.528C242.832 253.848 243.008 254.285 243.008 254.84C243.008 255.555 242.725 256.12 242.16 256.536C241.595 256.941 240.843 257.144 239.904 257.144ZM81.9026 284.144C81.1453 284.144 80.4893 283.979 79.9346 283.648C79.3799 283.317 78.9479 282.853 78.6386 282.256C78.3399 281.648 78.1906 280.933 78.1906 280.112C78.1906 279.291 78.3399 278.581 78.6386 277.984C78.9479 277.376 79.3799 276.907 79.9346 276.576C80.4893 276.245 81.1453 276.08 81.9026 276.08C82.6493 276.08 83.2999 276.245 83.8546 276.576C84.4199 276.907 84.8519 277.376 85.1506 277.984C85.4599 278.581 85.6146 279.291 85.6146 280.112C85.6146 280.933 85.4599 281.648 85.1506 282.256C84.8519 282.853 84.4199 283.317 83.8546 283.648C83.2999 283.979 82.6493 284.144 81.9026 284.144ZM81.9026 283.104C82.6279 283.104 83.2093 282.848 83.6466 282.336C84.0839 281.813 84.3026 281.072 84.3026 280.112C84.3026 279.141 84.0839 278.4 83.6466 277.888C83.2093 277.376 82.6279 277.12 81.9026 277.12C81.1666 277.12 80.5799 277.376 80.1426 277.888C79.7159 278.4 79.5026 279.141 79.5026 280.112C79.5026 281.072 79.7159 281.813 80.1426 282.336C80.5799 282.848 81.1666 283.104 81.9026 283.104ZM87.5612 286.88V276.224H88.8252V277.616C89.0599 277.136 89.4065 276.763 89.8652 276.496C90.3345 276.219 90.8785 276.08 91.4972 276.08C92.1905 276.08 92.7932 276.245 93.3052 276.576C93.8279 276.896 94.2279 277.36 94.5052 277.968C94.7932 278.565 94.9372 279.28 94.9372 280.112C94.9372 280.933 94.7932 281.648 94.5052 282.256C94.2279 282.853 93.8279 283.317 93.3052 283.648C92.7932 283.979 92.1905 284.144 91.4972 284.144C90.8999 284.144 90.3665 284.011 89.8972 283.744C89.4279 283.477 89.0812 283.109 88.8572 282.64V286.88H87.5612ZM91.2252 283.104C91.9505 283.104 92.5319 282.848 92.9692 282.336C93.4065 281.813 93.6252 281.072 93.6252 280.112C93.6252 279.141 93.4065 278.4 92.9692 277.888C92.5319 277.376 91.9505 277.12 91.2252 277.12C90.4999 277.12 89.9185 277.376 89.4812 277.888C89.0439 278.4 88.8252 279.141 88.8252 280.112C88.8252 281.072 89.0439 281.813 89.4812 282.336C89.9185 282.848 90.4999 283.104 91.2252 283.104ZM99.9312 284.144C99.0139 284.144 98.3259 283.904 97.8672 283.424C97.4085 282.933 97.1792 282.229 97.1792 281.312V277.232H95.6592V276.224H97.1792V273.84H98.4752V276.224H100.939V277.232H98.4752V281.184C98.4752 281.792 98.6032 282.256 98.8592 282.576C99.1152 282.885 99.5312 283.04 100.107 283.04C100.278 283.04 100.449 283.019 100.619 282.976C100.79 282.933 100.945 282.891 101.083 282.848L101.307 283.84C101.169 283.915 100.966 283.984 100.699 284.048C100.433 284.112 100.177 284.144 99.9312 284.144ZM102.245 274.288V272.832H103.845V274.288H102.245ZM102.405 284V276.224H103.701V284H102.405ZM109.356 284.144C108.598 284.144 107.942 283.979 107.388 283.648C106.833 283.317 106.401 282.853 106.092 282.256C105.793 281.648 105.644 280.933 105.644 280.112C105.644 279.291 105.793 278.581 106.092 277.984C106.401 277.376 106.833 276.907 107.388 276.576C107.942 276.245 108.598 276.08 109.356 276.08C110.102 276.08 110.753 276.245 111.308 276.576C111.873 276.907 112.305 277.376 112.604 277.984C112.913 278.581 113.068 279.291 113.068 280.112C113.068 280.933 112.913 281.648 112.604 282.256C112.305 282.853 111.873 283.317 111.308 283.648C110.753 283.979 110.102 284.144 109.356 284.144ZM109.356 283.104C110.081 283.104 110.662 282.848 111.1 282.336C111.537 281.813 111.756 281.072 111.756 280.112C111.756 279.141 111.537 278.4 111.1 277.888C110.662 277.376 110.081 277.12 109.356 277.12C108.62 277.12 108.033 277.376 107.596 277.888C107.169 278.4 106.956 279.141 106.956 280.112C106.956 281.072 107.169 281.813 107.596 282.336C108.033 282.848 108.62 283.104 109.356 283.104ZM115.014 284V276.224H116.278V277.552C116.534 277.061 116.897 276.693 117.366 276.448C117.836 276.203 118.364 276.08 118.95 276.08C120.796 276.08 121.718 277.104 121.718 279.152V284H120.422V279.232C120.422 278.507 120.278 277.979 119.99 277.648C119.713 277.307 119.265 277.136 118.646 277.136C117.932 277.136 117.361 277.36 116.934 277.808C116.518 278.245 116.31 278.832 116.31 279.568V284H115.014ZM126.732 284.144C126.124 284.144 125.548 284.059 125.004 283.888C124.46 283.717 124.012 283.477 123.66 283.168L124.076 282.256C124.46 282.565 124.881 282.795 125.34 282.944C125.809 283.083 126.284 283.152 126.764 283.152C127.372 283.152 127.831 283.04 128.14 282.816C128.449 282.592 128.604 282.288 128.604 281.904C128.604 281.605 128.503 281.371 128.3 281.2C128.097 281.019 127.777 280.88 127.34 280.784L125.884 280.464C124.561 280.176 123.9 279.493 123.9 278.416C123.9 277.712 124.177 277.147 124.732 276.72C125.297 276.293 126.033 276.08 126.94 276.08C127.473 276.08 127.98 276.165 128.46 276.336C128.951 276.496 129.356 276.736 129.676 277.056L129.244 277.968C128.935 277.68 128.572 277.461 128.156 277.312C127.751 277.152 127.345 277.072 126.94 277.072C126.343 277.072 125.889 277.189 125.58 277.424C125.271 277.659 125.116 277.968 125.116 278.352C125.116 278.949 125.511 279.333 126.3 279.504L127.756 279.808C128.439 279.957 128.956 280.197 129.308 280.528C129.66 280.848 129.836 281.285 129.836 281.84C129.836 282.555 129.553 283.12 128.988 283.536C128.423 283.941 127.671 284.144 126.732 284.144ZM135.713 277.856V276.224H137.345V277.856H135.713ZM135.713 284V282.368H137.345V284H135.713ZM78.8786 311V299.72H79.9826L84.3186 307.864L88.6226 299.72H89.7266V311H88.5106V302.184L84.7506 309.256H83.8866L80.0786 302.2V311H78.8786ZM94.8061 311.144C94.2728 311.144 93.7928 311.043 93.3661 310.84C92.9501 310.627 92.6194 310.339 92.3741 309.976C92.1288 309.613 92.0061 309.208 92.0061 308.76C92.0061 308.195 92.1501 307.747 92.4381 307.416C92.7368 307.085 93.2221 306.851 93.8941 306.712C94.5768 306.563 95.5048 306.488 96.6781 306.488H97.1901V305.992C97.1901 305.331 97.0514 304.856 96.7741 304.568C96.5074 304.269 96.0754 304.12 95.4781 304.12C95.0088 304.12 94.5554 304.189 94.1181 304.328C93.6808 304.456 93.2328 304.669 92.7741 304.968L92.3261 304.024C92.7314 303.736 93.2221 303.507 93.7981 303.336C94.3848 303.165 94.9448 303.08 95.4781 303.08C96.4808 303.08 97.2221 303.325 97.7021 303.816C98.1928 304.307 98.4381 305.069 98.4381 306.104V311H97.2221V309.656C97.0194 310.115 96.7048 310.477 96.2781 310.744C95.8621 311.011 95.3714 311.144 94.8061 311.144ZM95.0141 310.168C95.6541 310.168 96.1768 309.949 96.5821 309.512C96.9874 309.064 97.1901 308.499 97.1901 307.816V307.336H96.6941C95.8301 307.336 95.1474 307.379 94.6461 307.464C94.1554 307.539 93.8088 307.677 93.6061 307.88C93.4141 308.072 93.3181 308.339 93.3181 308.68C93.3181 309.117 93.4674 309.475 93.7661 309.752C94.0754 310.029 94.4914 310.168 95.0141 310.168ZM103.962 311.144C103.045 311.144 102.357 310.904 101.898 310.424C101.44 309.933 101.21 309.229 101.21 308.312V304.232H99.6905V303.224H101.21V300.84H102.506V303.224H104.97V304.232H102.506V308.184C102.506 308.792 102.634 309.256 102.89 309.576C103.146 309.885 103.562 310.04 104.138 310.04C104.309 310.04 104.48 310.019 104.65 309.976C104.821 309.933 104.976 309.891 105.114 309.848L105.338 310.84C105.2 310.915 104.997 310.984 104.73 311.048C104.464 311.112 104.208 311.144 103.962 311.144ZM106.436 311V299.72H107.732V304.504C107.988 304.035 108.346 303.683 108.804 303.448C109.274 303.203 109.796 303.08 110.372 303.08C112.218 303.08 113.14 304.104 113.14 306.152V311H111.844V306.232C111.844 305.507 111.7 304.979 111.412 304.648C111.135 304.307 110.687 304.136 110.068 304.136C109.354 304.136 108.783 304.36 108.356 304.808C107.94 305.245 107.732 305.832 107.732 306.568V311H106.436ZM119.034 311.144C117.807 311.144 116.837 310.787 116.122 310.072C115.407 309.347 115.05 308.365 115.05 307.128C115.05 306.328 115.21 305.624 115.53 305.016C115.85 304.397 116.287 303.923 116.842 303.592C117.407 303.251 118.058 303.08 118.794 303.08C119.85 303.08 120.677 303.421 121.274 304.104C121.871 304.776 122.17 305.704 122.17 306.888V307.384H116.314C116.357 308.269 116.613 308.947 117.082 309.416C117.551 309.875 118.202 310.104 119.034 310.104C119.503 310.104 119.951 310.035 120.378 309.896C120.805 309.747 121.21 309.507 121.594 309.176L122.042 310.088C121.69 310.419 121.242 310.68 120.698 310.872C120.154 311.053 119.599 311.144 119.034 311.144ZM118.826 304.04C118.09 304.04 117.509 304.269 117.082 304.728C116.655 305.187 116.405 305.789 116.33 306.536H121.05C121.018 305.747 120.81 305.133 120.426 304.696C120.053 304.259 119.519 304.04 118.826 304.04ZM118.33 302.184L119.978 298.952H121.37L119.258 302.184H118.33ZM124.078 311V303.224H125.342V304.536C125.576 304.067 125.902 303.709 126.318 303.464C126.734 303.208 127.219 303.08 127.774 303.08C128.99 303.08 129.768 303.608 130.11 304.664C130.344 304.173 130.691 303.789 131.15 303.512C131.608 303.224 132.136 303.08 132.734 303.08C134.462 303.08 135.326 304.104 135.326 306.152V311H134.03V306.216C134.03 305.501 133.902 304.979 133.646 304.648C133.4 304.307 132.99 304.136 132.414 304.136C131.784 304.136 131.283 304.36 130.91 304.808C130.536 305.256 130.35 305.853 130.35 306.6V311H129.054V306.216C129.054 305.501 128.926 304.979 128.67 304.648C128.424 304.307 128.014 304.136 127.438 304.136C126.798 304.136 126.291 304.36 125.918 304.808C125.555 305.256 125.374 305.853 125.374 306.6V311H124.078ZM140.197 311.144C139.663 311.144 139.183 311.043 138.757 310.84C138.341 310.627 138.01 310.339 137.765 309.976C137.519 309.613 137.397 309.208 137.397 308.76C137.397 308.195 137.541 307.747 137.829 307.416C138.127 307.085 138.613 306.851 139.285 306.712C139.967 306.563 140.895 306.488 142.069 306.488H142.581V305.992C142.581 305.331 142.442 304.856 142.165 304.568C141.898 304.269 141.466 304.12 140.869 304.12C140.399 304.12 139.946 304.189 139.509 304.328C139.071 304.456 138.623 304.669 138.165 304.968L137.717 304.024C138.122 303.736 138.613 303.507 139.189 303.336C139.775 303.165 140.335 303.08 140.869 303.08C141.871 303.08 142.613 303.325 143.093 303.816C143.583 304.307 143.829 305.069 143.829 306.104V311H142.613V309.656C142.41 310.115 142.095 310.477 141.669 310.744C141.253 311.011 140.762 311.144 140.197 311.144ZM140.405 310.168C141.045 310.168 141.567 309.949 141.973 309.512C142.378 309.064 142.581 308.499 142.581 307.816V307.336H142.085C141.221 307.336 140.538 307.379 140.037 307.464C139.546 307.539 139.199 307.677 138.997 307.88C138.805 308.072 138.709 308.339 138.709 308.68C138.709 309.117 138.858 309.475 139.157 309.752C139.466 310.029 139.882 310.168 140.405 310.168ZM149.353 311.144C148.436 311.144 147.748 310.904 147.289 310.424C146.83 309.933 146.601 309.229 146.601 308.312V304.232H145.081V303.224H146.601V300.84H147.897V303.224H150.361V304.232H147.897V308.184C147.897 308.792 148.025 309.256 148.281 309.576C148.537 309.885 148.953 310.04 149.529 310.04C149.7 310.04 149.87 310.019 150.041 309.976C150.212 309.933 150.366 309.891 150.505 309.848L150.729 310.84C150.59 310.915 150.388 310.984 150.121 311.048C149.854 311.112 149.598 311.144 149.353 311.144ZM151.667 301.288V299.832H153.267V301.288H151.667ZM151.827 311V303.224H153.123V311H151.827ZM161.146 313.88V309.64C160.922 310.099 160.575 310.467 160.106 310.744C159.647 311.011 159.114 311.144 158.506 311.144C157.812 311.144 157.204 310.979 156.682 310.648C156.17 310.317 155.77 309.853 155.482 309.256C155.204 308.648 155.066 307.933 155.066 307.112C155.066 306.28 155.204 305.565 155.482 304.968C155.77 304.36 156.17 303.896 156.682 303.576C157.204 303.245 157.812 303.08 158.506 303.08C159.124 303.08 159.668 303.219 160.138 303.496C160.607 303.773 160.954 304.152 161.178 304.632V303.224H162.442V313.88H161.146ZM158.778 310.104C159.503 310.104 160.084 309.848 160.522 309.336C160.959 308.813 161.178 308.072 161.178 307.112C161.178 306.141 160.959 305.4 160.522 304.888C160.084 304.376 159.503 304.12 158.778 304.12C158.042 304.12 157.455 304.376 157.018 304.888C156.591 305.4 156.378 306.141 156.378 307.112C156.378 308.072 156.591 308.813 157.018 309.336C157.455 309.848 158.042 310.104 158.778 310.104ZM167.626 311.144C165.759 311.144 164.826 310.115 164.826 308.056V303.224H166.122V308.04C166.122 308.733 166.26 309.245 166.538 309.576C166.826 309.907 167.274 310.072 167.882 310.072C168.543 310.072 169.082 309.853 169.498 309.416C169.914 308.968 170.122 308.376 170.122 307.64V303.224H171.418V311H170.154V309.688C169.908 310.157 169.562 310.52 169.114 310.776C168.676 311.021 168.18 311.144 167.626 311.144ZM177.346 311.144C176.12 311.144 175.149 310.787 174.434 310.072C173.72 309.347 173.362 308.365 173.362 307.128C173.362 306.328 173.522 305.624 173.842 305.016C174.162 304.397 174.6 303.923 175.154 303.592C175.72 303.251 176.37 303.08 177.106 303.08C178.162 303.08 178.989 303.421 179.586 304.104C180.184 304.776 180.482 305.704 180.482 306.888V307.384H174.626C174.669 308.269 174.925 308.947 175.394 309.416C175.864 309.875 176.514 310.104 177.346 310.104C177.816 310.104 178.264 310.035 178.69 309.896C179.117 309.747 179.522 309.507 179.906 309.176L180.354 310.088C180.002 310.419 179.554 310.68 179.01 310.872C178.466 311.053 177.912 311.144 177.346 311.144ZM177.138 304.04C176.402 304.04 175.821 304.269 175.394 304.728C174.968 305.187 174.717 305.789 174.642 306.536H179.362C179.33 305.747 179.122 305.133 178.738 304.696C178.365 304.259 177.832 304.04 177.138 304.04ZM184.982 311.144C184.374 311.144 183.798 311.059 183.254 310.888C182.71 310.717 182.262 310.477 181.91 310.168L182.326 309.256C182.71 309.565 183.131 309.795 183.59 309.944C184.059 310.083 184.534 310.152 185.014 310.152C185.622 310.152 186.081 310.04 186.39 309.816C186.699 309.592 186.854 309.288 186.854 308.904C186.854 308.605 186.753 308.371 186.55 308.2C186.347 308.019 186.027 307.88 185.59 307.784L184.134 307.464C182.811 307.176 182.15 306.493 182.15 305.416C182.15 304.712 182.427 304.147 182.982 303.72C183.547 303.293 184.283 303.08 185.19 303.08C185.723 303.08 186.23 303.165 186.71 303.336C187.201 303.496 187.606 303.736 187.926 304.056L187.494 304.968C187.185 304.68 186.822 304.461 186.406 304.312C186.001 304.152 185.595 304.072 185.19 304.072C184.593 304.072 184.139 304.189 183.83 304.424C183.521 304.659 183.366 304.968 183.366 305.352C183.366 305.949 183.761 306.333 184.55 306.504L186.006 306.808C186.689 306.957 187.206 307.197 187.558 307.528C187.91 307.848 188.086 308.285 188.086 308.84C188.086 309.555 187.803 310.12 187.238 310.536C186.673 310.941 185.921 311.144 184.982 311.144ZM78.8786 338V326.72H79.9826L84.3186 334.864L88.6226 326.72H89.7266V338H88.5106V329.184L84.7506 336.256H83.8866L80.0786 329.2V338H78.8786ZM94.8061 338.144C94.2728 338.144 93.7928 338.043 93.3661 337.84C92.9501 337.627 92.6194 337.339 92.3741 336.976C92.1288 336.613 92.0061 336.208 92.0061 335.76C92.0061 335.195 92.1501 334.747 92.4381 334.416C92.7368 334.085 93.2221 333.851 93.8941 333.712C94.5768 333.563 95.5048 333.488 96.6781 333.488H97.1901V332.992C97.1901 332.331 97.0514 331.856 96.7741 331.568C96.5074 331.269 96.0754 331.12 95.4781 331.12C95.0088 331.12 94.5554 331.189 94.1181 331.328C93.6808 331.456 93.2328 331.669 92.7741 331.968L92.3261 331.024C92.7314 330.736 93.2221 330.507 93.7981 330.336C94.3848 330.165 94.9448 330.08 95.4781 330.08C96.4808 330.08 97.2221 330.325 97.7021 330.816C98.1928 331.307 98.4381 332.069 98.4381 333.104V338H97.2221V336.656C97.0194 337.115 96.7048 337.477 96.2781 337.744C95.8621 338.011 95.3714 338.144 94.8061 338.144ZM95.0141 337.168C95.6541 337.168 96.1768 336.949 96.5821 336.512C96.9874 336.064 97.1901 335.499 97.1901 334.816V334.336H96.6941C95.8301 334.336 95.1474 334.379 94.6461 334.464C94.1554 334.539 93.8088 334.677 93.6061 334.88C93.4141 335.072 93.3181 335.339 93.3181 335.68C93.3181 336.117 93.4674 336.475 93.7661 336.752C94.0754 337.029 94.4914 337.168 95.0141 337.168ZM103.962 338.144C103.045 338.144 102.357 337.904 101.898 337.424C101.44 336.933 101.21 336.229 101.21 335.312V331.232H99.6905V330.224H101.21V327.84H102.506V330.224H104.97V331.232H102.506V335.184C102.506 335.792 102.634 336.256 102.89 336.576C103.146 336.885 103.562 337.04 104.138 337.04C104.309 337.04 104.48 337.019 104.65 336.976C104.821 336.933 104.976 336.891 105.114 336.848L105.338 337.84C105.2 337.915 104.997 337.984 104.73 338.048C104.464 338.112 104.208 338.144 103.962 338.144ZM109.862 338.144C108.635 338.144 107.665 337.787 106.95 337.072C106.235 336.347 105.878 335.365 105.878 334.128C105.878 333.328 106.038 332.624 106.358 332.016C106.678 331.397 107.115 330.923 107.67 330.592C108.235 330.251 108.886 330.08 109.622 330.08C110.678 330.08 111.505 330.421 112.102 331.104C112.699 331.776 112.998 332.704 112.998 333.888V334.384H107.142C107.185 335.269 107.441 335.947 107.91 336.416C108.379 336.875 109.03 337.104 109.862 337.104C110.331 337.104 110.779 337.035 111.206 336.896C111.633 336.747 112.038 336.507 112.422 336.176L112.87 337.088C112.518 337.419 112.07 337.68 111.526 337.872C110.982 338.053 110.427 338.144 109.862 338.144ZM109.654 331.04C108.918 331.04 108.337 331.269 107.91 331.728C107.483 332.187 107.233 332.789 107.158 333.536H111.878C111.846 332.747 111.638 332.133 111.254 331.696C110.881 331.259 110.347 331.04 109.654 331.04ZM109.158 329.184L110.806 325.952H112.198L110.086 329.184H109.158ZM114.906 338V330.224H116.17V331.536C116.404 331.067 116.73 330.709 117.146 330.464C117.562 330.208 118.047 330.08 118.602 330.08C119.818 330.08 120.596 330.608 120.938 331.664C121.172 331.173 121.519 330.789 121.978 330.512C122.436 330.224 122.964 330.08 123.562 330.08C125.29 330.08 126.154 331.104 126.154 333.152V338H124.858V333.216C124.858 332.501 124.73 331.979 124.474 331.648C124.228 331.307 123.818 331.136 123.242 331.136C122.612 331.136 122.111 331.36 121.738 331.808C121.364 332.256 121.178 332.853 121.178 333.6V338H119.882V333.216C119.882 332.501 119.754 331.979 119.498 331.648C119.252 331.307 118.842 331.136 118.266 331.136C117.626 331.136 117.119 331.36 116.746 331.808C116.383 332.256 116.202 332.853 116.202 333.6V338H114.906ZM131.025 338.144C130.492 338.144 130.012 338.043 129.585 337.84C129.169 337.627 128.838 337.339 128.593 336.976C128.348 336.613 128.225 336.208 128.225 335.76C128.225 335.195 128.369 334.747 128.657 334.416C128.956 334.085 129.441 333.851 130.113 333.712C130.796 333.563 131.724 333.488 132.897 333.488H133.409V332.992C133.409 332.331 133.27 331.856 132.993 331.568C132.726 331.269 132.294 331.12 131.697 331.12C131.228 331.12 130.774 331.189 130.337 331.328C129.9 331.456 129.452 331.669 128.993 331.968L128.545 331.024C128.95 330.736 129.441 330.507 130.017 330.336C130.604 330.165 131.164 330.08 131.697 330.08C132.7 330.08 133.441 330.325 133.921 330.816C134.412 331.307 134.657 332.069 134.657 333.104V338H133.441V336.656C133.238 337.115 132.924 337.477 132.497 337.744C132.081 338.011 131.59 338.144 131.025 338.144ZM131.233 337.168C131.873 337.168 132.396 336.949 132.801 336.512C133.206 336.064 133.409 335.499 133.409 334.816V334.336H132.913C132.049 334.336 131.366 334.379 130.865 334.464C130.374 334.539 130.028 334.677 129.825 334.88C129.633 335.072 129.537 335.339 129.537 335.68C129.537 336.117 129.686 336.475 129.985 336.752C130.294 337.029 130.71 337.168 131.233 337.168ZM140.181 338.144C139.264 338.144 138.576 337.904 138.117 337.424C137.659 336.933 137.429 336.229 137.429 335.312V331.232H135.909V330.224H137.429V327.84H138.725V330.224H141.189V331.232H138.725V335.184C138.725 335.792 138.853 336.256 139.109 336.576C139.365 336.885 139.781 337.04 140.357 337.04C140.528 337.04 140.699 337.019 140.869 336.976C141.04 336.933 141.195 336.891 141.333 336.848L141.557 337.84C141.419 337.915 141.216 337.984 140.949 338.048C140.683 338.112 140.427 338.144 140.181 338.144ZM142.495 328.288V326.832H144.095V328.288H142.495ZM142.655 338V330.224H143.951V338H142.655ZM151.974 340.88V336.64C151.75 337.099 151.403 337.467 150.934 337.744C150.475 338.011 149.942 338.144 149.334 338.144C148.64 338.144 148.032 337.979 147.51 337.648C146.998 337.317 146.598 336.853 146.31 336.256C146.032 335.648 145.894 334.933 145.894 334.112C145.894 333.28 146.032 332.565 146.31 331.968C146.598 331.36 146.998 330.896 147.51 330.576C148.032 330.245 148.64 330.08 149.334 330.08C149.952 330.08 150.496 330.219 150.966 330.496C151.435 330.773 151.782 331.152 152.006 331.632V330.224H153.27V340.88H151.974ZM149.606 337.104C150.331 337.104 150.912 336.848 151.35 336.336C151.787 335.813 152.006 335.072 152.006 334.112C152.006 333.141 151.787 332.4 151.35 331.888C150.912 331.376 150.331 331.12 149.606 331.12C148.87 331.12 148.283 331.376 147.846 331.888C147.419 332.4 147.206 333.141 147.206 334.112C147.206 335.072 147.419 335.813 147.846 336.336C148.283 336.848 148.87 337.104 149.606 337.104ZM158.454 338.144C156.587 338.144 155.654 337.115 155.654 335.056V330.224H156.95V335.04C156.95 335.733 157.089 336.245 157.366 336.576C157.654 336.907 158.102 337.072 158.71 337.072C159.371 337.072 159.91 336.853 160.326 336.416C160.742 335.968 160.95 335.376 160.95 334.64V330.224H162.246V338H160.982V336.688C160.737 337.157 160.39 337.52 159.942 337.776C159.505 338.021 159.009 338.144 158.454 338.144ZM168.175 338.144C166.948 338.144 165.977 337.787 165.263 337.072C164.548 336.347 164.191 335.365 164.191 334.128C164.191 333.328 164.351 332.624 164.671 332.016C164.991 331.397 165.428 330.923 165.983 330.592C166.548 330.251 167.199 330.08 167.935 330.08C168.991 330.08 169.817 330.421 170.415 331.104C171.012 331.776 171.311 332.704 171.311 333.888V334.384H165.455C165.497 335.269 165.753 335.947 166.223 336.416C166.692 336.875 167.343 337.104 168.175 337.104C168.644 337.104 169.092 337.035 169.519 336.896C169.945 336.747 170.351 336.507 170.735 336.176L171.183 337.088C170.831 337.419 170.383 337.68 169.839 337.872C169.295 338.053 168.74 338.144 168.175 338.144ZM167.967 331.04C167.231 331.04 166.649 331.269 166.223 331.728C165.796 332.187 165.545 332.789 165.471 333.536H170.191C170.159 332.747 169.951 332.133 169.567 331.696C169.193 331.259 168.66 331.04 167.967 331.04ZM175.81 338.144C175.202 338.144 174.626 338.059 174.082 337.888C173.538 337.717 173.09 337.477 172.738 337.168L173.154 336.256C173.538 336.565 173.96 336.795 174.418 336.944C174.888 337.083 175.362 337.152 175.842 337.152C176.45 337.152 176.909 337.04 177.218 336.816C177.528 336.592 177.682 336.288 177.682 335.904C177.682 335.605 177.581 335.371 177.378 335.2C177.176 335.019 176.856 334.88 176.418 334.784L174.962 334.464C173.64 334.176 172.978 333.493 172.978 332.416C172.978 331.712 173.256 331.147 173.81 330.72C174.376 330.293 175.112 330.08 176.018 330.08C176.552 330.08 177.058 330.165 177.538 330.336C178.029 330.496 178.434 330.736 178.754 331.056L178.322 331.968C178.013 331.68 177.65 331.461 177.234 331.312C176.829 331.152 176.424 331.072 176.018 331.072C175.421 331.072 174.968 331.189 174.658 331.424C174.349 331.659 174.194 331.968 174.194 332.352C174.194 332.949 174.589 333.333 175.378 333.504L176.834 333.808C177.517 333.957 178.034 334.197 178.386 334.528C178.738 334.848 178.914 335.285 178.914 335.84C178.914 336.555 178.632 337.12 178.066 337.536C177.501 337.941 176.749 338.144 175.81 338.144ZM188.503 338.144C187.276 338.144 186.305 337.787 185.591 337.072C184.876 336.347 184.519 335.365 184.519 334.128C184.519 333.328 184.679 332.624 184.999 332.016C185.319 331.397 185.756 330.923 186.311 330.592C186.876 330.251 187.527 330.08 188.263 330.08C189.319 330.08 190.145 330.421 190.743 331.104C191.34 331.776 191.639 332.704 191.639 333.888V334.384H185.783C185.825 335.269 186.081 335.947 186.551 336.416C187.02 336.875 187.671 337.104 188.503 337.104C188.972 337.104 189.42 337.035 189.847 336.896C190.273 336.747 190.679 336.507 191.063 336.176L191.511 337.088C191.159 337.419 190.711 337.68 190.167 337.872C189.623 338.053 189.068 338.144 188.503 338.144ZM188.295 331.04C187.559 331.04 186.977 331.269 186.551 331.728C186.124 332.187 185.873 332.789 185.799 333.536H190.519C190.487 332.747 190.279 332.133 189.895 331.696C189.521 331.259 188.988 331.04 188.295 331.04ZM192.46 338L195.692 333.984L192.652 330.224H194.188L196.444 333.088L198.716 330.224H200.236L197.196 333.984L200.428 338H198.892L196.428 334.912L193.996 338H192.46ZM201.858 340.88V330.224H203.122V331.616C203.357 331.136 203.703 330.763 204.162 330.496C204.631 330.219 205.175 330.08 205.794 330.08C206.487 330.08 207.09 330.245 207.602 330.576C208.125 330.896 208.525 331.36 208.802 331.968C209.09 332.565 209.234 333.28 209.234 334.112C209.234 334.933 209.09 335.648 208.802 336.256C208.525 336.853 208.125 337.317 207.602 337.648C207.09 337.979 206.487 338.144 205.794 338.144C205.197 338.144 204.663 338.011 204.194 337.744C203.725 337.477 203.378 337.109 203.154 336.64V340.88H201.858ZM205.522 337.104C206.247 337.104 206.829 336.848 207.266 336.336C207.703 335.813 207.922 335.072 207.922 334.112C207.922 333.141 207.703 332.4 207.266 331.888C206.829 331.376 206.247 331.12 205.522 331.12C204.797 331.12 204.215 331.376 203.778 331.888C203.341 332.4 203.122 333.141 203.122 334.112C203.122 335.072 203.341 335.813 203.778 336.336C204.215 336.848 204.797 337.104 205.522 337.104ZM214.69 338.144C213.464 338.144 212.493 337.787 211.778 337.072C211.064 336.347 210.706 335.365 210.706 334.128C210.706 333.328 210.866 332.624 211.186 332.016C211.506 331.397 211.944 330.923 212.498 330.592C213.064 330.251 213.714 330.08 214.45 330.08C215.506 330.08 216.333 330.421 216.93 331.104C217.528 331.776 217.826 332.704 217.826 333.888V334.384H211.97C212.013 335.269 212.269 335.947 212.738 336.416C213.208 336.875 213.858 337.104 214.69 337.104C215.16 337.104 215.608 337.035 216.034 336.896C216.461 336.747 216.866 336.507 217.25 336.176L217.698 337.088C217.346 337.419 216.898 337.68 216.354 337.872C215.81 338.053 215.256 338.144 214.69 338.144ZM214.482 331.04C213.746 331.04 213.165 331.269 212.738 331.728C212.312 332.187 212.061 332.789 211.986 333.536H216.706C216.674 332.747 216.466 332.133 216.082 331.696C215.709 331.259 215.176 331.04 214.482 331.04ZM219.702 338V330.224H220.966V331.616C221.382 330.677 222.235 330.16 223.526 330.064L223.99 330.016L224.086 331.136L223.27 331.232C222.534 331.296 221.974 331.531 221.59 331.936C221.206 332.331 221.014 332.875 221.014 333.568V338H219.702ZM228.978 338.144C228.061 338.144 227.373 337.904 226.914 337.424C226.455 336.933 226.226 336.229 226.226 335.312V331.232H224.706V330.224H226.226V327.84H227.522V330.224H229.986V331.232H227.522V335.184C227.522 335.792 227.65 336.256 227.906 336.576C228.162 336.885 228.578 337.04 229.154 337.04C229.325 337.04 229.495 337.019 229.666 336.976C229.837 336.933 229.991 336.891 230.13 336.848L230.354 337.84C230.215 337.915 230.013 337.984 229.746 338.048C229.479 338.112 229.223 338.144 228.978 338.144ZM234.878 338.144C233.651 338.144 232.68 337.787 231.966 337.072C231.251 336.347 230.894 335.365 230.894 334.128C230.894 333.328 231.054 332.624 231.374 332.016C231.694 331.397 232.131 330.923 232.686 330.592C233.251 330.251 233.902 330.08 234.638 330.08C235.694 330.08 236.52 330.421 237.118 331.104C237.715 331.776 238.014 332.704 238.014 333.888V334.384H232.158C232.2 335.269 232.456 335.947 232.926 336.416C233.395 336.875 234.046 337.104 234.878 337.104C235.347 337.104 235.795 337.035 236.222 336.896C236.648 336.747 237.054 336.507 237.438 336.176L237.886 337.088C237.534 337.419 237.086 337.68 236.542 337.872C235.998 338.053 235.443 338.144 234.878 338.144ZM234.67 331.04C233.934 331.04 233.352 331.269 232.926 331.728C232.499 332.187 232.248 332.789 232.174 333.536H236.894C236.862 332.747 236.654 332.133 236.27 331.696C235.896 331.259 235.363 331.04 234.67 331.04ZM242.513 338.144C241.905 338.144 241.329 338.059 240.785 337.888C240.241 337.717 239.793 337.477 239.441 337.168L239.857 336.256C240.241 336.565 240.663 336.795 241.121 336.944C241.591 337.083 242.065 337.152 242.545 337.152C243.153 337.152 243.612 337.04 243.921 336.816C244.231 336.592 244.385 336.288 244.385 335.904C244.385 335.605 244.284 335.371 244.081 335.2C243.879 335.019 243.559 334.88 243.121 334.784L241.665 334.464C240.343 334.176 239.681 333.493 239.681 332.416C239.681 331.712 239.959 331.147 240.513 330.72C241.079 330.293 241.815 330.08 242.721 330.08C243.255 330.08 243.761 330.165 244.241 330.336C244.732 330.496 245.137 330.736 245.457 331.056L245.025 331.968C244.716 331.68 244.353 331.461 243.937 331.312C243.532 331.152 243.127 331.072 242.721 331.072C242.124 331.072 241.671 331.189 241.361 331.424C241.052 331.659 240.897 331.968 240.897 332.352C240.897 332.949 241.292 333.333 242.081 333.504L243.537 333.808C244.22 333.957 244.737 334.197 245.089 334.528C245.441 334.848 245.617 335.285 245.617 335.84C245.617 336.555 245.335 337.12 244.769 337.536C244.204 337.941 243.452 338.144 242.513 338.144ZM77.7586 365L82.7346 353.72H83.8546L88.8306 365H87.4706L86.2226 362.12H80.3506L79.1186 365H77.7586ZM83.2786 355.256L80.8306 361.016H85.7586L83.3106 355.256H83.2786ZM90.3268 365V357.224H91.5908V358.552C91.8468 358.061 92.2095 357.693 92.6788 357.448C93.1482 357.203 93.6762 357.08 94.2628 357.08C96.1082 357.08 97.0308 358.104 97.0308 360.152V365H95.7348V360.232C95.7348 359.507 95.5908 358.979 95.3028 358.648C95.0255 358.307 94.5775 358.136 93.9588 358.136C93.2442 358.136 92.6735 358.36 92.2468 358.808C91.8308 359.245 91.6228 359.832 91.6228 360.568V365H90.3268ZM102.861 368.024C102.189 368.024 101.554 367.933 100.957 367.752C100.37 367.581 99.8473 367.32 99.3886 366.968L99.8206 366.024C100.301 366.365 100.775 366.611 101.245 366.76C101.725 366.909 102.242 366.984 102.797 366.984C104.333 366.984 105.101 366.195 105.101 364.616V363.24C104.877 363.731 104.525 364.12 104.045 364.408C103.575 364.685 103.037 364.824 102.429 364.824C101.714 364.824 101.095 364.659 100.573 364.328C100.05 363.997 99.6446 363.544 99.3566 362.968C99.0793 362.381 98.9406 361.704 98.9406 360.936C98.9406 360.168 99.0793 359.496 99.3566 358.92C99.6446 358.333 100.05 357.88 100.573 357.56C101.095 357.24 101.714 357.08 102.429 357.08C103.037 357.08 103.575 357.219 104.045 357.496C104.525 357.773 104.877 358.152 105.101 358.632V357.224H106.365V364.44C106.365 365.635 106.066 366.531 105.469 367.128C104.882 367.725 104.013 368.024 102.861 368.024ZM102.669 363.768C103.415 363.768 104.007 363.512 104.445 363C104.882 362.488 105.101 361.8 105.101 360.936C105.101 360.072 104.882 359.389 104.445 358.888C104.007 358.376 103.415 358.12 102.669 358.12C101.933 358.12 101.346 358.376 100.909 358.888C100.471 359.389 100.253 360.072 100.253 360.936C100.253 361.8 100.471 362.488 100.909 363C101.346 363.512 101.933 363.768 102.669 363.768ZM111.18 365.144C110.39 365.144 109.793 364.915 109.388 364.456C108.993 363.987 108.796 363.309 108.796 362.424V353.72H110.092V362.328C110.092 363.469 110.545 364.04 111.452 364.04C111.718 364.04 111.958 364.008 112.172 363.944L112.14 365.032C111.809 365.107 111.489 365.144 111.18 365.144ZM115.978 365.144C115.445 365.144 114.965 365.043 114.538 364.84C114.122 364.627 113.791 364.339 113.546 363.976C113.301 363.613 113.178 363.208 113.178 362.76C113.178 362.195 113.322 361.747 113.61 361.416C113.909 361.085 114.394 360.851 115.066 360.712C115.749 360.563 116.677 360.488 117.85 360.488H118.362V359.992C118.362 359.331 118.223 358.856 117.946 358.568C117.679 358.269 117.247 358.12 116.65 358.12C116.181 358.12 115.727 358.189 115.29 358.328C114.853 358.456 114.405 358.669 113.946 358.968L113.498 358.024C113.903 357.736 114.394 357.507 114.97 357.336C115.557 357.165 116.117 357.08 116.65 357.08C117.653 357.08 118.394 357.325 118.874 357.816C119.365 358.307 119.61 359.069 119.61 360.104V365H118.394V363.656C118.191 364.115 117.877 364.477 117.45 364.744C117.034 365.011 116.543 365.144 115.978 365.144ZM116.186 364.168C116.826 364.168 117.349 363.949 117.754 363.512C118.159 363.064 118.362 362.499 118.362 361.816V361.336H117.866C117.002 361.336 116.319 361.379 115.818 361.464C115.327 361.539 114.981 361.677 114.778 361.88C114.586 362.072 114.49 362.339 114.49 362.68C114.49 363.117 114.639 363.475 114.938 363.752C115.247 364.029 115.663 364.168 116.186 364.168ZM121.854 355.288V353.832H123.454V355.288H121.854ZM122.014 365V357.224H123.31V365H122.014ZM128.357 365.144C127.749 365.144 127.173 365.059 126.629 364.888C126.085 364.717 125.637 364.477 125.285 364.168L125.701 363.256C126.085 363.565 126.506 363.795 126.965 363.944C127.434 364.083 127.909 364.152 128.389 364.152C128.997 364.152 129.456 364.04 129.765 363.816C130.074 363.592 130.229 363.288 130.229 362.904C130.229 362.605 130.128 362.371 129.925 362.2C129.722 362.019 129.402 361.88 128.965 361.784L127.509 361.464C126.186 361.176 125.525 360.493 125.525 359.416C125.525 358.712 125.802 358.147 126.357 357.72C126.922 357.293 127.658 357.08 128.565 357.08C129.098 357.08 129.605 357.165 130.085 357.336C130.576 357.496 130.981 357.736 131.301 358.056L130.869 358.968C130.56 358.68 130.197 358.461 129.781 358.312C129.376 358.152 128.97 358.072 128.565 358.072C127.968 358.072 127.514 358.189 127.205 358.424C126.896 358.659 126.741 358.968 126.741 359.352C126.741 359.949 127.136 360.333 127.925 360.504L129.381 360.808C130.064 360.957 130.581 361.197 130.933 361.528C131.285 361.848 131.461 362.285 131.461 362.84C131.461 363.555 131.178 364.12 130.613 364.536C130.048 364.941 129.296 365.144 128.357 365.144ZM141.05 365.144C139.823 365.144 138.852 364.787 138.138 364.072C137.423 363.347 137.066 362.365 137.066 361.128C137.066 360.328 137.226 359.624 137.546 359.016C137.866 358.397 138.303 357.923 138.858 357.592C139.423 357.251 140.074 357.08 140.81 357.08C141.866 357.08 142.692 357.421 143.29 358.104C143.887 358.776 144.186 359.704 144.186 360.888V361.384H138.33C138.372 362.269 138.628 362.947 139.098 363.416C139.567 363.875 140.218 364.104 141.05 364.104C141.519 364.104 141.967 364.035 142.394 363.896C142.82 363.747 143.226 363.507 143.61 363.176L144.058 364.088C143.706 364.419 143.258 364.68 142.714 364.872C142.17 365.053 141.615 365.144 141.05 365.144ZM140.842 358.04C140.106 358.04 139.524 358.269 139.098 358.728C138.671 359.187 138.42 359.789 138.346 360.536H143.066C143.034 359.747 142.826 359.133 142.442 358.696C142.068 358.259 141.535 358.04 140.842 358.04ZM148.813 365.144C146.947 365.144 146.013 364.115 146.013 362.056V357.224H147.309V362.04C147.309 362.733 147.448 363.245 147.725 363.576C148.013 363.907 148.461 364.072 149.069 364.072C149.731 364.072 150.269 363.853 150.685 363.416C151.101 362.968 151.309 362.376 151.309 361.64V357.224H152.605V365H151.341V363.688C151.096 364.157 150.749 364.52 150.301 364.776C149.864 365.021 149.368 365.144 148.813 365.144ZM155.03 365V357.224H156.294V358.616C156.71 357.677 157.563 357.16 158.854 357.064L159.318 357.016L159.414 358.136L158.598 358.232C157.862 358.296 157.302 358.531 156.918 358.936C156.534 359.331 156.342 359.875 156.342 360.568V365H155.03ZM163.903 365.144C163.145 365.144 162.489 364.979 161.935 364.648C161.38 364.317 160.948 363.853 160.639 363.256C160.34 362.648 160.191 361.933 160.191 361.112C160.191 360.291 160.34 359.581 160.639 358.984C160.948 358.376 161.38 357.907 161.935 357.576C162.489 357.245 163.145 357.08 163.903 357.08C164.649 357.08 165.3 357.245 165.855 357.576C166.42 357.907 166.852 358.376 167.151 358.984C167.46 359.581 167.615 360.291 167.615 361.112C167.615 361.933 167.46 362.648 167.151 363.256C166.852 363.853 166.42 364.317 165.855 364.648C165.3 364.979 164.649 365.144 163.903 365.144ZM163.903 364.104C164.628 364.104 165.209 363.848 165.647 363.336C166.084 362.813 166.303 362.072 166.303 361.112C166.303 360.141 166.084 359.4 165.647 358.888C165.209 358.376 164.628 358.12 163.903 358.12C163.167 358.12 162.58 358.376 162.143 358.888C161.716 359.4 161.503 360.141 161.503 361.112C161.503 362.072 161.716 362.813 162.143 363.336C162.58 363.848 163.167 364.104 163.903 364.104ZM82.4946 392.144C81.6093 392.144 80.8093 392.032 80.0946 391.808C79.3799 391.573 78.7613 391.237 78.2386 390.8L78.7026 389.744C79.2466 390.16 79.8173 390.469 80.4146 390.672C81.0119 390.875 81.7053 390.976 82.4946 390.976C83.4546 390.976 84.1639 390.8 84.6226 390.448C85.0919 390.085 85.3266 389.611 85.3266 389.024C85.3266 388.555 85.1559 388.181 84.8146 387.904C84.4839 387.627 83.9239 387.408 83.1346 387.248L81.4706 386.912C80.4679 386.699 79.7159 386.352 79.2146 385.872C78.7239 385.381 78.4786 384.731 78.4786 383.92C78.4786 383.248 78.6493 382.661 78.9906 382.16C79.3426 381.659 79.8279 381.269 80.4466 380.992C81.0653 380.715 81.7799 380.576 82.5906 380.576C83.3479 380.576 84.0519 380.699 84.7026 380.944C85.3533 381.179 85.9026 381.52 86.3506 381.968L85.8866 382.992C85.4066 382.555 84.8999 382.24 84.3666 382.048C83.8333 381.845 83.2359 381.744 82.5746 381.744C81.7319 381.744 81.0599 381.941 80.5586 382.336C80.0573 382.72 79.8066 383.232 79.8066 383.872C79.8066 384.384 79.9613 384.789 80.2706 385.088C80.5906 385.387 81.1079 385.605 81.8226 385.744L83.4866 386.096C84.5639 386.32 85.3586 386.661 85.8706 387.12C86.3933 387.568 86.6546 388.181 86.6546 388.96C86.6546 389.589 86.4839 390.144 86.1426 390.624C85.8119 391.104 85.3319 391.477 84.7026 391.744C84.0839 392.011 83.3479 392.144 82.4946 392.144ZM91.8103 392.144C91.0317 392.144 90.3597 391.979 89.7943 391.648C89.229 391.307 88.7917 390.832 88.4823 390.224C88.1837 389.605 88.0343 388.885 88.0343 388.064C88.0343 386.827 88.3703 385.856 89.0423 385.152C89.7143 384.437 90.637 384.08 91.8103 384.08C92.2903 384.08 92.765 384.165 93.2343 384.336C93.7037 384.507 94.093 384.747 94.4023 385.056L93.9543 386C93.645 385.701 93.3037 385.483 92.9303 385.344C92.5677 385.205 92.221 385.136 91.8903 385.136C91.0797 385.136 90.4557 385.392 90.0183 385.904C89.581 386.405 89.3623 387.131 89.3623 388.08C89.3623 389.008 89.581 389.744 90.0183 390.288C90.4557 390.821 91.0797 391.088 91.8903 391.088C92.221 391.088 92.5677 391.019 92.9303 390.88C93.3037 390.741 93.645 390.517 93.9543 390.208L94.4023 391.152C94.093 391.461 93.6983 391.707 93.2183 391.888C92.749 392.059 92.2797 392.144 91.8103 392.144ZM95.7606 382.288V380.832H97.3606V382.288H95.7606ZM95.9206 392V384.224H97.2166V392H95.9206ZM103.143 392.144C101.917 392.144 100.946 391.787 100.231 391.072C99.5167 390.347 99.1593 389.365 99.1593 388.128C99.1593 387.328 99.3193 386.624 99.6393 386.016C99.9593 385.397 100.397 384.923 100.951 384.592C101.517 384.251 102.167 384.08 102.903 384.08C103.959 384.08 104.786 384.421 105.383 385.104C105.981 385.776 106.279 386.704 106.279 387.888V388.384H100.423C100.466 389.269 100.722 389.947 101.191 390.416C101.661 390.875 102.311 391.104 103.143 391.104C103.613 391.104 104.061 391.035 104.487 390.896C104.914 390.747 105.319 390.507 105.703 390.176L106.151 391.088C105.799 391.419 105.351 391.68 104.807 391.872C104.263 392.053 103.709 392.144 103.143 392.144ZM102.935 385.04C102.199 385.04 101.618 385.269 101.191 385.728C100.765 386.187 100.514 386.789 100.439 387.536H105.159C105.127 386.747 104.919 386.133 104.535 385.696C104.162 385.259 103.629 385.04 102.935 385.04ZM108.155 392V384.224H109.419V385.552C109.675 385.061 110.038 384.693 110.507 384.448C110.976 384.203 111.504 384.08 112.091 384.08C113.936 384.08 114.859 385.104 114.859 387.152V392H113.563V387.232C113.563 386.507 113.419 385.979 113.131 385.648C112.854 385.307 112.406 385.136 111.787 385.136C111.072 385.136 110.502 385.36 110.075 385.808C109.659 386.245 109.451 386.832 109.451 387.568V392H108.155ZM120.545 392.144C119.766 392.144 119.094 391.979 118.529 391.648C117.963 391.307 117.526 390.832 117.217 390.224C116.918 389.605 116.769 388.885 116.769 388.064C116.769 386.827 117.105 385.856 117.777 385.152C118.449 384.437 119.371 384.08 120.545 384.08C121.025 384.08 121.499 384.165 121.969 384.336C122.438 384.507 122.827 384.747 123.137 385.056L122.689 386C122.379 385.701 122.038 385.483 121.665 385.344C121.302 385.205 120.955 385.136 120.625 385.136C119.814 385.136 119.19 385.392 118.753 385.904C118.315 386.405 118.097 387.131 118.097 388.08C118.097 389.008 118.315 389.744 118.753 390.288C119.19 390.821 119.814 391.088 120.625 391.088C120.955 391.088 121.302 391.019 121.665 390.88C122.038 390.741 122.379 390.517 122.689 390.208L123.137 391.152C122.827 391.461 122.433 391.707 121.953 391.888C121.483 392.059 121.014 392.144 120.545 392.144ZM128.003 392.144C126.776 392.144 125.805 391.787 125.091 391.072C124.376 390.347 124.019 389.365 124.019 388.128C124.019 387.328 124.179 386.624 124.499 386.016C124.819 385.397 125.256 384.923 125.811 384.592C126.376 384.251 127.027 384.08 127.763 384.08C128.819 384.08 129.645 384.421 130.243 385.104C130.84 385.776 131.139 386.704 131.139 387.888V388.384H125.283C125.325 389.269 125.581 389.947 126.051 390.416C126.52 390.875 127.171 391.104 128.003 391.104C128.472 391.104 128.92 391.035 129.347 390.896C129.773 390.747 130.179 390.507 130.563 390.176L131.011 391.088C130.659 391.419 130.211 391.68 129.667 391.872C129.123 392.053 128.568 392.144 128.003 392.144ZM127.795 385.04C127.059 385.04 126.477 385.269 126.051 385.728C125.624 386.187 125.373 386.789 125.299 387.536H130.019C129.987 386.747 129.779 386.133 129.395 385.696C129.021 385.259 128.488 385.04 127.795 385.04ZM140.084 392.144C139.39 392.144 138.782 391.979 138.26 391.648C137.748 391.317 137.348 390.853 137.06 390.256C136.782 389.648 136.644 388.933 136.644 388.112C136.644 387.28 136.782 386.565 137.06 385.968C137.348 385.36 137.748 384.896 138.26 384.576C138.782 384.245 139.39 384.08 140.084 384.08C140.692 384.08 141.225 384.213 141.684 384.48C142.153 384.747 142.5 385.115 142.724 385.584V380.72H144.02V392H142.756V390.576C142.532 391.067 142.185 391.451 141.716 391.728C141.246 392.005 140.702 392.144 140.084 392.144ZM140.356 391.104C141.081 391.104 141.662 390.848 142.1 390.336C142.537 389.813 142.756 389.072 142.756 388.112C142.756 387.141 142.537 386.4 142.1 385.888C141.662 385.376 141.081 385.12 140.356 385.12C139.62 385.12 139.033 385.376 138.596 385.888C138.169 386.4 137.956 387.141 137.956 388.112C137.956 389.072 138.169 389.813 138.596 390.336C139.033 390.848 139.62 391.104 140.356 391.104ZM149.956 392.144C148.729 392.144 147.759 391.787 147.044 391.072C146.329 390.347 145.972 389.365 145.972 388.128C145.972 387.328 146.132 386.624 146.452 386.016C146.772 385.397 147.209 384.923 147.764 384.592C148.329 384.251 148.98 384.08 149.716 384.08C150.772 384.08 151.599 384.421 152.196 385.104C152.793 385.776 153.092 386.704 153.092 387.888V388.384H147.236C147.279 389.269 147.535 389.947 148.004 390.416C148.473 390.875 149.124 391.104 149.956 391.104C150.425 391.104 150.873 391.035 151.3 390.896C151.727 390.747 152.132 390.507 152.516 390.176L152.964 391.088C152.612 391.419 152.164 391.68 151.62 391.872C151.076 392.053 150.521 392.144 149.956 392.144ZM149.748 385.04C149.012 385.04 148.431 385.269 148.004 385.728C147.577 386.187 147.327 386.789 147.252 387.536H151.972C151.94 386.747 151.732 386.133 151.348 385.696C150.975 385.259 150.441 385.04 149.748 385.04ZM161.461 392.144C160.672 392.144 160.074 391.915 159.669 391.456C159.274 390.987 159.077 390.309 159.077 389.424V380.72H160.373V389.328C160.373 390.469 160.826 391.04 161.733 391.04C162 391.04 162.24 391.008 162.453 390.944L162.421 392.032C162.09 392.107 161.77 392.144 161.461 392.144ZM163.65 384.192L163.058 383.712C163.293 383.467 163.458 383.237 163.554 383.024C163.661 382.8 163.725 382.576 163.746 382.352H162.994V380.72H164.626V381.872C164.626 382.309 164.557 382.715 164.418 383.088C164.28 383.461 164.024 383.829 163.65 384.192ZM166.667 382.288V380.832H168.267V382.288H166.667ZM166.827 392V384.224H168.123V392H166.827ZM170.546 392V384.224H171.81V385.552C172.066 385.061 172.428 384.693 172.898 384.448C173.367 384.203 173.895 384.08 174.482 384.08C176.327 384.08 177.25 385.104 177.25 387.152V392H175.954V387.232C175.954 386.507 175.81 385.979 175.522 385.648C175.244 385.307 174.796 385.136 174.178 385.136C173.463 385.136 172.892 385.36 172.466 385.808C172.05 386.245 171.842 386.832 171.842 387.568V392H170.546ZM183.079 395.024C182.407 395.024 181.773 394.933 181.175 394.752C180.589 394.581 180.066 394.32 179.607 393.968L180.039 393.024C180.519 393.365 180.994 393.611 181.463 393.76C181.943 393.909 182.461 393.984 183.015 393.984C184.551 393.984 185.319 393.195 185.319 391.616V390.24C185.095 390.731 184.743 391.12 184.263 391.408C183.794 391.685 183.255 391.824 182.647 391.824C181.933 391.824 181.314 391.659 180.791 391.328C180.269 390.997 179.863 390.544 179.575 389.968C179.298 389.381 179.159 388.704 179.159 387.936C179.159 387.168 179.298 386.496 179.575 385.92C179.863 385.333 180.269 384.88 180.791 384.56C181.314 384.24 181.933 384.08 182.647 384.08C183.255 384.08 183.794 384.219 184.263 384.496C184.743 384.773 185.095 385.152 185.319 385.632V384.224H186.583V391.44C186.583 392.635 186.285 393.531 185.687 394.128C185.101 394.725 184.231 395.024 183.079 395.024ZM182.887 390.768C183.634 390.768 184.226 390.512 184.663 390C185.101 389.488 185.319 388.8 185.319 387.936C185.319 387.072 185.101 386.389 184.663 385.888C184.226 385.376 183.634 385.12 182.887 385.12C182.151 385.12 181.565 385.376 181.127 385.888C180.69 386.389 180.471 387.072 180.471 387.936C180.471 388.8 180.69 389.488 181.127 390C181.565 390.512 182.151 390.768 182.887 390.768ZM192.518 392.144C191.292 392.144 190.321 391.787 189.606 391.072C188.892 390.347 188.534 389.365 188.534 388.128C188.534 387.328 188.694 386.624 189.014 386.016C189.334 385.397 189.772 384.923 190.326 384.592C190.892 384.251 191.542 384.08 192.278 384.08C193.334 384.08 194.161 384.421 194.758 385.104C195.356 385.776 195.654 386.704 195.654 387.888V388.384H189.798C189.841 389.269 190.097 389.947 190.566 390.416C191.036 390.875 191.686 391.104 192.518 391.104C192.988 391.104 193.436 391.035 193.862 390.896C194.289 390.747 194.694 390.507 195.078 390.176L195.526 391.088C195.174 391.419 194.726 391.68 194.182 391.872C193.638 392.053 193.084 392.144 192.518 392.144ZM192.31 385.04C191.574 385.04 190.993 385.269 190.566 385.728C190.14 386.187 189.889 386.789 189.814 387.536H194.534C194.502 386.747 194.294 386.133 193.91 385.696C193.537 385.259 193.004 385.04 192.31 385.04ZM191.814 383.184L193.462 379.952H194.854L192.742 383.184H191.814ZM197.53 392V384.224H198.794V385.552C199.05 385.061 199.413 384.693 199.882 384.448C200.351 384.203 200.879 384.08 201.466 384.08C203.311 384.08 204.234 385.104 204.234 387.152V392H202.938V387.232C202.938 386.507 202.794 385.979 202.506 385.648C202.229 385.307 201.781 385.136 201.162 385.136C200.447 385.136 199.877 385.36 199.45 385.808C199.034 386.245 198.826 386.832 198.826 387.568V392H197.53ZM206.464 382.288V380.832H208.064V382.288H206.464ZM206.624 392V384.224H207.92V392H206.624ZM213.846 392.144C212.62 392.144 211.649 391.787 210.934 391.072C210.22 390.347 209.862 389.365 209.862 388.128C209.862 387.328 210.022 386.624 210.342 386.016C210.662 385.397 211.1 384.923 211.654 384.592C212.22 384.251 212.87 384.08 213.606 384.08C214.662 384.08 215.489 384.421 216.086 385.104C216.684 385.776 216.982 386.704 216.982 387.888V388.384H211.126C211.169 389.269 211.425 389.947 211.894 390.416C212.364 390.875 213.014 391.104 213.846 391.104C214.316 391.104 214.764 391.035 215.19 390.896C215.617 390.747 216.022 390.507 216.406 390.176L216.854 391.088C216.502 391.419 216.054 391.68 215.51 391.872C214.966 392.053 214.412 392.144 213.846 392.144ZM213.638 385.04C212.902 385.04 212.321 385.269 211.894 385.728C211.468 386.187 211.217 386.789 211.142 387.536H215.862C215.83 386.747 215.622 386.133 215.238 385.696C214.865 385.259 214.332 385.04 213.638 385.04ZM221.61 392.144C219.743 392.144 218.81 391.115 218.81 389.056V384.224H220.106V389.04C220.106 389.733 220.245 390.245 220.522 390.576C220.81 390.907 221.258 391.072 221.866 391.072C222.527 391.072 223.066 390.853 223.482 390.416C223.898 389.968 224.106 389.376 224.106 388.64V384.224H225.402V392H224.138V390.688C223.893 391.157 223.546 391.52 223.098 391.776C222.661 392.021 222.165 392.144 221.61 392.144ZM227.827 392V384.224H229.091V385.616C229.507 384.677 230.36 384.16 231.651 384.064L232.115 384.016L232.211 385.136L231.395 385.232C230.659 385.296 230.099 385.531 229.715 385.936C229.331 386.331 229.139 386.875 229.139 387.568V392H227.827Z" fill="#292929"/>
<g id="Group 1">
<line id="Line 1" x1="78.4465" y1="153.475" x2="200.007" y2="153.475" stroke="#4059AD" stroke-width="3"/>
<path id="Le lyc&#195;&#169;e :" d="M79.0191 147V125.85H81.4791V144.84H92.2491V147H79.0191ZM101.402 147.27C99.1017 147.27 97.2817 146.6 95.9417 145.26C94.6017 143.9 93.9317 142.06 93.9317 139.74C93.9317 138.24 94.2317 136.92 94.8317 135.78C95.4317 134.62 96.2517 133.73 97.2917 133.11C98.3517 132.47 99.5717 132.15 100.952 132.15C102.932 132.15 104.482 132.79 105.602 134.07C106.722 135.33 107.282 137.07 107.282 139.29V140.22H96.3017C96.3817 141.88 96.8617 143.15 97.7417 144.03C98.6217 144.89 99.8417 145.32 101.402 145.32C102.282 145.32 103.122 145.19 103.922 144.93C104.722 144.65 105.482 144.2 106.202 143.58L107.042 145.29C106.382 145.91 105.542 146.4 104.522 146.76C103.502 147.1 102.462 147.27 101.402 147.27ZM101.012 133.95C99.6317 133.95 98.5417 134.38 97.7417 135.24C96.9417 136.1 96.4717 137.23 96.3317 138.63H105.182C105.122 137.15 104.732 136 104.012 135.18C103.312 134.36 102.312 133.95 101.012 133.95ZM122.974 147.27C121.494 147.27 120.374 146.84 119.614 145.98C118.874 145.1 118.504 143.83 118.504 142.17V125.85H120.934V141.99C120.934 144.13 121.784 145.2 123.484 145.2C123.984 145.2 124.434 145.14 124.834 145.02L124.774 147.06C124.154 147.2 123.554 147.27 122.974 147.27ZM128.738 152.4L131.228 146.76L125.078 132.42H127.718L132.548 144.24L137.408 132.42H139.958L131.288 152.4H128.738ZM148.443 147.27C146.983 147.27 145.723 146.96 144.663 146.34C143.603 145.7 142.783 144.81 142.203 143.67C141.643 142.51 141.363 141.16 141.363 139.62C141.363 137.3 141.993 135.48 143.253 134.16C144.513 132.82 146.243 132.15 148.443 132.15C149.343 132.15 150.233 132.31 151.113 132.63C151.993 132.95 152.723 133.4 153.303 133.98L152.463 135.75C151.883 135.19 151.243 134.78 150.543 134.52C149.863 134.26 149.213 134.13 148.593 134.13C147.073 134.13 145.903 134.61 145.083 135.57C144.263 136.51 143.853 137.87 143.853 139.65C143.853 141.39 144.263 142.77 145.083 143.79C145.903 144.79 147.073 145.29 148.593 145.29C149.213 145.29 149.863 145.16 150.543 144.9C151.243 144.64 151.883 144.22 152.463 143.64L153.303 145.41C152.723 145.99 151.983 146.45 151.083 146.79C150.203 147.11 149.323 147.27 148.443 147.27ZM162.427 147.27C160.127 147.27 158.307 146.6 156.967 145.26C155.627 143.9 154.957 142.06 154.957 139.74C154.957 138.24 155.257 136.92 155.857 135.78C156.457 134.62 157.277 133.73 158.317 133.11C159.377 132.47 160.597 132.15 161.977 132.15C163.957 132.15 165.507 132.79 166.627 134.07C167.747 135.33 168.307 137.07 168.307 139.29V140.22H157.327C157.407 141.88 157.887 143.15 158.767 144.03C159.647 144.89 160.867 145.32 162.427 145.32C163.307 145.32 164.147 145.19 164.947 144.93C165.747 144.65 166.507 144.2 167.227 143.58L168.067 145.29C167.407 145.91 166.567 146.4 165.547 146.76C164.527 147.1 163.487 147.27 162.427 147.27ZM162.037 133.95C160.657 133.95 159.567 134.38 158.767 135.24C157.967 136.1 157.497 137.23 157.357 138.63H166.207C166.147 137.15 165.757 136 165.037 135.18C164.337 134.36 163.337 133.95 162.037 133.95ZM161.107 130.47L164.197 124.41H166.807L162.847 130.47H161.107ZM178.394 147.27C176.094 147.27 174.274 146.6 172.934 145.26C171.594 143.9 170.924 142.06 170.924 139.74C170.924 138.24 171.224 136.92 171.824 135.78C172.424 134.62 173.244 133.73 174.284 133.11C175.344 132.47 176.564 132.15 177.944 132.15C179.924 132.15 181.474 132.79 182.594 134.07C183.714 135.33 184.274 137.07 184.274 139.29V140.22H173.294C173.374 141.88 173.854 143.15 174.734 144.03C175.614 144.89 176.834 145.32 178.394 145.32C179.274 145.32 180.114 145.19 180.914 144.93C181.714 144.65 182.474 144.2 183.194 143.58L184.034 145.29C183.374 145.91 182.534 146.4 181.514 146.76C180.494 147.1 179.454 147.27 178.394 147.27ZM178.004 133.95C176.624 133.95 175.534 134.38 174.734 135.24C173.934 136.1 173.464 137.23 173.324 138.63H182.174C182.114 137.15 181.724 136 181.004 135.18C180.304 134.36 179.304 133.95 178.004 133.95ZM195.106 135.48V132.42H198.166V135.48H195.106ZM195.106 147V143.94H198.166V147H195.106Z" fill="black"/>
</g>
<g id="Ellipse 1">
<ellipse id="Ellipse 1_2" cx="73.7955" cy="306.5" rx="2.61364" ry="2.5" fill="#4059AD"/>
</g>
<g id="Ellipse 2">
<ellipse id="Ellipse 1_3" cx="72.75" cy="333.5" rx="2.61364" ry="2.5" fill="#4059AD"/>
</g>
<g id="Ellipse 3">
<ellipse id="Ellipse 1_4" cx="72.75" cy="360.5" rx="2.61364" ry="2.5" fill="#4059AD"/>
</g>
<g id="Ellipse 4">
<ellipse id="Ellipse 1_5" cx="72.75" cy="387.5" rx="2.61364" ry="2.5" fill="#4059AD"/>
</g>
</g>
</g>
</svg>
