<svg width="477" height="463" viewBox="0 0 477 463" fill="none" xmlns="http://www.w3.org/2000/svg">
<rect width="477" height="463" fill="#6B9AC4"/>
<g id="shadow">
<path id="Vector" fill-rule="evenodd" clip-rule="evenodd" d="M243.352 103.195C305.416 100.839 356.734 25.4174 413.406 47.4678C466.425 68.0966 436.833 119.955 443.965 169.934C449.799 210.819 460.789 269.786 428 321.5C405.627 356.786 413.116 406.123 350 421C280 437.5 284.108 460.78 228 451C119 432 128.838 464.588 88.5 426.5C45.6239 386.016 86.5063 351.752 74.6499 297.774C65.2674 255.058 6.82923 227.616 8.5 184.158C10.3416 136.255 32.3957 77.7014 83.7918 59.9832C136.867 41.6861 186.285 105.362 243.352 103.195Z" fill="#F4B942" fill-opacity="0.27"/>
</g>
<g id="layer_lycee">
<g id="blob_lycee">
<path id="Vector_2" fill-rule="evenodd" clip-rule="evenodd" d="M264.352 72.1953C326.416 69.8388 377.734 -5.58256 434.406 16.4678C487.425 37.0966 457.833 88.955 464.965 138.934C470.799 179.819 481.789 238.786 449 290.5C426.627 325.786 434.116 375.123 371 390C301 406.5 305.108 429.78 249 420C140 401 149.838 433.588 109.5 395.5C66.6239 355.016 107.506 320.752 95.6499 266.774C86.2674 224.058 27.8292 196.616 29.5 153.158C31.3416 105.255 53.3957 46.7014 104.792 28.9832C157.867 10.6861 207.285 74.3622 264.352 72.1953Z" fill="#F4B942"/>
</g>
<g id="lycee_text">
<path id="J&#226;&#128;&#153;ai suivi un cursus plut&#195;&#180;t orient&#195;&#169; science, comme le montre mes diff&#195;&#169;rentes options : Math&#195;&#169;matiques Mat&#195;&#169;matiques expertes Anglais euro Science de l&#226;&#128;&#153;ing&#195;&#169;nieur" d="M116.928 177.126L116.82 175.884L117.9 175.812C118.512 175.764 118.98 175.554 119.304 175.182C119.628 174.798 119.79 174.276 119.79 173.616V164.31H121.266V173.634C121.266 174.678 120.996 175.494 120.456 176.082C119.916 176.658 119.13 176.982 118.098 177.054L116.928 177.126ZM124.726 168.216L124.06 167.676C124.324 167.4 124.51 167.142 124.618 166.902C124.738 166.65 124.81 166.398 124.834 166.146H123.988V164.31H125.824V165.606C125.824 166.098 125.746 166.554 125.59 166.974C125.434 167.394 125.146 167.808 124.726 168.216ZM131.054 177.162C130.454 177.162 129.914 177.048 129.434 176.82C128.966 176.58 128.594 176.256 128.318 175.848C128.042 175.44 127.904 174.984 127.904 174.48C127.904 173.844 128.066 173.34 128.39 172.968C128.726 172.596 129.272 172.332 130.028 172.176C130.796 172.008 131.84 171.924 133.16 171.924H133.736V171.366C133.736 170.622 133.58 170.088 133.268 169.764C132.968 169.428 132.482 169.26 131.81 169.26C131.282 169.26 130.772 169.338 130.28 169.494C129.788 169.638 129.284 169.878 128.768 170.214L128.264 169.152C128.72 168.828 129.272 168.57 129.92 168.378C130.58 168.186 131.21 168.09 131.81 168.09C132.938 168.09 133.772 168.366 134.312 168.918C134.864 169.47 135.14 170.328 135.14 171.492V177H133.772V175.488C133.544 176.004 133.19 176.412 132.71 176.712C132.242 177.012 131.69 177.162 131.054 177.162ZM131.288 176.064C132.008 176.064 132.596 175.818 133.052 175.326C133.508 174.822 133.736 174.186 133.736 173.418V172.878H133.178C132.206 172.878 131.438 172.926 130.874 173.022C130.322 173.106 129.932 173.262 129.704 173.49C129.488 173.706 129.38 174.006 129.38 174.39C129.38 174.882 129.548 175.284 129.884 175.596C130.232 175.908 130.7 176.064 131.288 176.064ZM137.665 166.074V164.436H139.465V166.074H137.665ZM137.845 177V168.252H139.303V177H137.845ZM149.603 177.162C148.919 177.162 148.271 177.066 147.659 176.874C147.047 176.682 146.543 176.412 146.147 176.064L146.615 175.038C147.047 175.386 147.521 175.644 148.037 175.812C148.565 175.968 149.099 176.046 149.639 176.046C150.323 176.046 150.839 175.92 151.187 175.668C151.535 175.416 151.709 175.074 151.709 174.642C151.709 174.306 151.595 174.042 151.367 173.85C151.139 173.646 150.779 173.49 150.287 173.382L148.649 173.022C147.161 172.698 146.417 171.93 146.417 170.718C146.417 169.926 146.729 169.29 147.353 168.81C147.989 168.33 148.817 168.09 149.837 168.09C150.437 168.09 151.007 168.186 151.547 168.378C152.099 168.558 152.555 168.828 152.915 169.188L152.429 170.214C152.081 169.89 151.673 169.644 151.205 169.476C150.749 169.296 150.293 169.206 149.837 169.206C149.165 169.206 148.655 169.338 148.307 169.602C147.959 169.866 147.785 170.214 147.785 170.646C147.785 171.318 148.229 171.75 149.117 171.942L150.755 172.284C151.523 172.452 152.105 172.722 152.501 173.094C152.897 173.454 153.095 173.946 153.095 174.57C153.095 175.374 152.777 176.01 152.141 176.478C151.505 176.934 150.659 177.162 149.603 177.162ZM158.413 177.162C156.313 177.162 155.263 176.004 155.263 173.688V168.252H156.721V173.67C156.721 174.45 156.877 175.026 157.189 175.398C157.513 175.77 158.017 175.956 158.701 175.956C159.445 175.956 160.051 175.71 160.519 175.218C160.987 174.714 161.221 174.048 161.221 173.22V168.252H162.679V177H161.257V175.524C160.981 176.052 160.591 176.46 160.087 176.748C159.595 177.024 159.037 177.162 158.413 177.162ZM165.227 166.074V164.436H167.027V166.074H165.227ZM165.407 177V168.252H166.865V177H165.407ZM172.165 177L168.403 168.252H169.987L172.885 175.344L175.819 168.252H177.313L173.533 177H172.165ZM178.674 166.074V164.436H180.474V166.074H178.674ZM178.854 177V168.252H180.312V177H178.854ZM190.757 177.162C188.657 177.162 187.607 176.004 187.607 173.688V168.252H189.065V173.67C189.065 174.45 189.221 175.026 189.533 175.398C189.857 175.77 190.361 175.956 191.045 175.956C191.789 175.956 192.395 175.71 192.863 175.218C193.331 174.714 193.565 174.048 193.565 173.22V168.252H195.023V177H193.601V175.524C193.325 176.052 192.935 176.46 192.431 176.748C191.939 177.024 191.381 177.162 190.757 177.162ZM197.751 177V168.252H199.173V169.746C199.461 169.194 199.869 168.78 200.397 168.504C200.925 168.228 201.519 168.09 202.179 168.09C204.255 168.09 205.293 169.242 205.293 171.546V177H203.835V171.636C203.835 170.82 203.673 170.226 203.349 169.854C203.037 169.47 202.533 169.278 201.837 169.278C201.033 169.278 200.391 169.53 199.911 170.034C199.443 170.526 199.209 171.186 199.209 172.014V177H197.751ZM216.312 177.162C215.436 177.162 214.68 176.976 214.044 176.604C213.408 176.22 212.916 175.686 212.568 175.002C212.232 174.306 212.064 173.496 212.064 172.572C212.064 171.18 212.442 170.088 213.198 169.296C213.954 168.492 214.992 168.09 216.312 168.09C216.852 168.09 217.386 168.186 217.914 168.378C218.442 168.57 218.88 168.84 219.228 169.188L218.724 170.25C218.376 169.914 217.992 169.668 217.572 169.512C217.164 169.356 216.774 169.278 216.402 169.278C215.49 169.278 214.788 169.566 214.296 170.142C213.804 170.706 213.558 171.522 213.558 172.59C213.558 173.634 213.804 174.462 214.296 175.074C214.788 175.674 215.49 175.974 216.402 175.974C216.774 175.974 217.164 175.896 217.572 175.74C217.992 175.584 218.376 175.332 218.724 174.984L219.228 176.046C218.88 176.394 218.436 176.67 217.896 176.874C217.368 177.066 216.84 177.162 216.312 177.162ZM224.032 177.162C221.932 177.162 220.882 176.004 220.882 173.688V168.252H222.34V173.67C222.34 174.45 222.496 175.026 222.808 175.398C223.132 175.77 223.636 175.956 224.32 175.956C225.064 175.956 225.67 175.71 226.138 175.218C226.606 174.714 226.84 174.048 226.84 173.22V168.252H228.298V177H226.876V175.524C226.6 176.052 226.21 176.46 225.706 176.748C225.214 177.024 224.656 177.162 224.032 177.162ZM231.026 177V168.252H232.448V169.818C232.916 168.762 233.876 168.18 235.328 168.072L235.85 168.018L235.958 169.278L235.04 169.386C234.212 169.458 233.582 169.722 233.15 170.178C232.718 170.622 232.502 171.234 232.502 172.014V177H231.026ZM240.341 177.162C239.657 177.162 239.009 177.066 238.397 176.874C237.785 176.682 237.281 176.412 236.885 176.064L237.353 175.038C237.785 175.386 238.259 175.644 238.775 175.812C239.303 175.968 239.837 176.046 240.377 176.046C241.061 176.046 241.577 175.92 241.925 175.668C242.273 175.416 242.447 175.074 242.447 174.642C242.447 174.306 242.333 174.042 242.105 173.85C241.877 173.646 241.517 173.49 241.025 173.382L239.387 173.022C237.899 172.698 237.155 171.93 237.155 170.718C237.155 169.926 237.467 169.29 238.091 168.81C238.727 168.33 239.555 168.09 240.575 168.09C241.175 168.09 241.745 168.186 242.285 168.378C242.837 168.558 243.293 168.828 243.653 169.188L243.167 170.214C242.819 169.89 242.411 169.644 241.943 169.476C241.487 169.296 241.031 169.206 240.575 169.206C239.903 169.206 239.393 169.338 239.045 169.602C238.697 169.866 238.523 170.214 238.523 170.646C238.523 171.318 238.967 171.75 239.855 171.942L241.493 172.284C242.261 172.452 242.843 172.722 243.239 173.094C243.635 173.454 243.833 173.946 243.833 174.57C243.833 175.374 243.515 176.01 242.879 176.478C242.243 176.934 241.397 177.162 240.341 177.162ZM249.152 177.162C247.052 177.162 246.002 176.004 246.002 173.688V168.252H247.46V173.67C247.46 174.45 247.616 175.026 247.928 175.398C248.252 175.77 248.756 175.956 249.439 175.956C250.184 175.956 250.79 175.71 251.258 175.218C251.726 174.714 251.96 174.048 251.96 173.22V168.252H253.418V177H251.996V175.524C251.72 176.052 251.33 176.46 250.826 176.748C250.334 177.024 249.776 177.162 249.152 177.162ZM259.097 177.162C258.413 177.162 257.765 177.066 257.153 176.874C256.541 176.682 256.037 176.412 255.641 176.064L256.109 175.038C256.541 175.386 257.015 175.644 257.531 175.812C258.059 175.968 258.593 176.046 259.133 176.046C259.817 176.046 260.333 175.92 260.681 175.668C261.029 175.416 261.203 175.074 261.203 174.642C261.203 174.306 261.089 174.042 260.861 173.85C260.633 173.646 260.273 173.49 259.781 173.382L258.143 173.022C256.655 172.698 255.911 171.93 255.911 170.718C255.911 169.926 256.223 169.29 256.847 168.81C257.483 168.33 258.311 168.09 259.331 168.09C259.931 168.09 260.501 168.186 261.041 168.378C261.593 168.558 262.049 168.828 262.409 169.188L261.923 170.214C261.575 169.89 261.167 169.644 260.699 169.476C260.243 169.296 259.787 169.206 259.331 169.206C258.659 169.206 258.149 169.338 257.801 169.602C257.453 169.866 257.279 170.214 257.279 170.646C257.279 171.318 257.723 171.75 258.611 171.942L260.249 172.284C261.017 172.452 261.599 172.722 261.995 173.094C262.391 173.454 262.589 173.946 262.589 174.57C262.589 175.374 262.271 176.01 261.635 176.478C260.999 176.934 260.153 177.162 259.097 177.162ZM269.434 180.24V168.252H270.856V169.818C271.12 169.278 271.51 168.858 272.026 168.558C272.554 168.246 273.166 168.09 273.862 168.09C274.642 168.09 275.32 168.276 275.896 168.648C276.484 169.008 276.934 169.53 277.246 170.214C277.57 170.886 277.732 171.69 277.732 172.626C277.732 173.55 277.57 174.354 277.246 175.038C276.934 175.71 276.484 176.232 275.896 176.604C275.32 176.976 274.642 177.162 273.862 177.162C273.19 177.162 272.59 177.012 272.062 176.712C271.534 176.412 271.144 175.998 270.892 175.47V180.24H269.434ZM273.556 175.992C274.372 175.992 275.026 175.704 275.518 175.128C276.01 174.54 276.256 173.706 276.256 172.626C276.256 171.534 276.01 170.7 275.518 170.124C275.026 169.548 274.372 169.26 273.556 169.26C272.74 169.26 272.086 169.548 271.594 170.124C271.102 170.7 270.856 171.534 270.856 172.626C270.856 173.706 271.102 174.54 271.594 175.128C272.086 175.704 272.74 175.992 273.556 175.992ZM282.611 177.162C281.723 177.162 281.051 176.904 280.595 176.388C280.151 175.86 279.929 175.098 279.929 174.102V164.31H281.387V173.994C281.387 175.278 281.897 175.92 282.917 175.92C283.217 175.92 283.487 175.884 283.727 175.812L283.691 177.036C283.319 177.12 282.959 177.162 282.611 177.162ZM288.351 177.162C286.251 177.162 285.201 176.004 285.201 173.688V168.252H286.659V173.67C286.659 174.45 286.815 175.026 287.127 175.398C287.451 175.77 287.955 175.956 288.639 175.956C289.383 175.956 289.989 175.71 290.457 175.218C290.925 174.714 291.159 174.048 291.159 173.22V168.252H292.617V177H291.195V175.524C290.919 176.052 290.529 176.46 290.025 176.748C289.533 177.024 288.975 177.162 288.351 177.162ZM298.855 177.162C297.823 177.162 297.049 176.892 296.533 176.352C296.017 175.8 295.759 175.008 295.759 173.976V169.386H294.049V168.252H295.759V165.57H297.217V168.252H299.989V169.386H297.217V173.832C297.217 174.516 297.361 175.038 297.649 175.398C297.937 175.746 298.405 175.92 299.053 175.92C299.245 175.92 299.437 175.896 299.629 175.848C299.821 175.8 299.995 175.752 300.151 175.704L300.403 176.82C300.247 176.904 300.019 176.982 299.719 177.054C299.419 177.126 299.131 177.162 298.855 177.162ZM305.186 177.162C304.334 177.162 303.596 176.976 302.972 176.604C302.348 176.232 301.862 175.71 301.514 175.038C301.178 174.354 301.01 173.55 301.01 172.626C301.01 171.702 301.178 170.904 301.514 170.232C301.862 169.548 302.348 169.02 302.972 168.648C303.596 168.276 304.334 168.09 305.186 168.09C306.026 168.09 306.758 168.276 307.382 168.648C308.018 169.02 308.504 169.548 308.84 170.232C309.188 170.904 309.362 171.702 309.362 172.626C309.362 173.55 309.188 174.354 308.84 175.038C308.504 175.71 308.018 176.232 307.382 176.604C306.758 176.976 306.026 177.162 305.186 177.162ZM305.186 175.992C306.002 175.992 306.656 175.704 307.148 175.128C307.64 174.54 307.886 173.706 307.886 172.626C307.886 171.534 307.64 170.7 307.148 170.124C306.656 169.548 306.002 169.26 305.186 169.26C304.358 169.26 303.698 169.548 303.206 170.124C302.726 170.7 302.486 171.534 302.486 172.626C302.486 173.706 302.726 174.54 303.206 175.128C303.698 175.704 304.358 175.992 305.186 175.992ZM302.522 167.082L304.484 163.446H305.888L307.85 167.082H306.842L305.186 164.418L303.53 167.082H302.522ZM314.974 177.162C313.942 177.162 313.168 176.892 312.652 176.352C312.136 175.8 311.878 175.008 311.878 173.976V169.386H310.168V168.252H311.878V165.57H313.336V168.252H316.108V169.386H313.336V173.832C313.336 174.516 313.48 175.038 313.768 175.398C314.056 175.746 314.524 175.92 315.172 175.92C315.364 175.92 315.556 175.896 315.748 175.848C315.94 175.8 316.114 175.752 316.27 175.704L316.522 176.82C316.366 176.904 316.138 176.982 315.838 177.054C315.538 177.126 315.25 177.162 314.974 177.162ZM326.016 177.162C325.164 177.162 324.426 176.976 323.802 176.604C323.178 176.232 322.692 175.71 322.344 175.038C322.008 174.354 321.84 173.55 321.84 172.626C321.84 171.702 322.008 170.904 322.344 170.232C322.692 169.548 323.178 169.02 323.802 168.648C324.426 168.276 325.164 168.09 326.016 168.09C326.856 168.09 327.588 168.276 328.212 168.648C328.848 169.02 329.334 169.548 329.67 170.232C330.018 170.904 330.192 171.702 330.192 172.626C330.192 173.55 330.018 174.354 329.67 175.038C329.334 175.71 328.848 176.232 328.212 176.604C327.588 176.976 326.856 177.162 326.016 177.162ZM326.016 175.992C326.832 175.992 327.486 175.704 327.978 175.128C328.47 174.54 328.716 173.706 328.716 172.626C328.716 171.534 328.47 170.7 327.978 170.124C327.486 169.548 326.832 169.26 326.016 169.26C325.188 169.26 324.528 169.548 324.036 170.124C323.556 170.7 323.316 171.534 323.316 172.626C323.316 173.706 323.556 174.54 324.036 175.128C324.528 175.704 325.188 175.992 326.016 175.992ZM332.382 177V168.252H333.804V169.818C334.272 168.762 335.232 168.18 336.684 168.072L337.206 168.018L337.314 169.278L336.396 169.386C335.568 169.458 334.938 169.722 334.506 170.178C334.074 170.622 333.858 171.234 333.858 172.014V177H332.382ZM338.653 166.074V164.436H340.453V166.074H338.653ZM338.833 177V168.252H340.291V177H338.833ZM346.958 177.162C345.578 177.162 344.486 176.76 343.682 175.956C342.878 175.14 342.476 174.036 342.476 172.644C342.476 171.744 342.656 170.952 343.016 170.268C343.376 169.572 343.868 169.038 344.492 168.666C345.128 168.282 345.86 168.09 346.688 168.09C347.876 168.09 348.806 168.474 349.478 169.242C350.15 169.998 350.486 171.042 350.486 172.374V172.932H343.898C343.946 173.928 344.234 174.69 344.762 175.218C345.29 175.734 346.022 175.992 346.958 175.992C347.486 175.992 347.99 175.914 348.47 175.758C348.95 175.59 349.406 175.32 349.838 174.948L350.342 175.974C349.946 176.346 349.442 176.64 348.83 176.856C348.218 177.06 347.594 177.162 346.958 177.162ZM346.724 169.17C345.896 169.17 345.242 169.428 344.762 169.944C344.282 170.46 344 171.138 343.916 171.978H349.226C349.19 171.09 348.956 170.4 348.524 169.908C348.104 169.416 347.504 169.17 346.724 169.17ZM352.597 177V168.252H354.019V169.746C354.307 169.194 354.715 168.78 355.243 168.504C355.771 168.228 356.365 168.09 357.025 168.09C359.101 168.09 360.139 169.242 360.139 171.546V177H358.681V171.636C358.681 170.82 358.519 170.226 358.195 169.854C357.883 169.47 357.379 169.278 356.683 169.278C355.879 169.278 355.237 169.53 354.757 170.034C354.289 170.526 354.055 171.186 354.055 172.014V177H352.597ZM366.337 177.162C365.305 177.162 364.531 176.892 364.015 176.352C363.499 175.8 363.241 175.008 363.241 173.976V169.386H361.531V168.252H363.241V165.57H364.699V168.252H367.471V169.386H364.699V173.832C364.699 174.516 364.843 175.038 365.131 175.398C365.419 175.746 365.887 175.92 366.535 175.92C366.727 175.92 366.919 175.896 367.111 175.848C367.303 175.8 367.477 175.752 367.633 175.704L367.885 176.82C367.729 176.904 367.501 176.982 367.201 177.054C366.901 177.126 366.613 177.162 366.337 177.162ZM372.974 177.162C371.594 177.162 370.502 176.76 369.698 175.956C368.894 175.14 368.492 174.036 368.492 172.644C368.492 171.744 368.672 170.952 369.032 170.268C369.392 169.572 369.884 169.038 370.508 168.666C371.144 168.282 371.876 168.09 372.704 168.09C373.892 168.09 374.822 168.474 375.494 169.242C376.166 169.998 376.502 171.042 376.502 172.374V172.932H369.914C369.962 173.928 370.25 174.69 370.778 175.218C371.306 175.734 372.038 175.992 372.974 175.992C373.502 175.992 374.006 175.914 374.486 175.758C374.966 175.59 375.422 175.32 375.854 174.948L376.358 175.974C375.962 176.346 375.458 176.64 374.846 176.856C374.234 177.06 373.61 177.162 372.974 177.162ZM372.74 169.17C371.912 169.17 371.258 169.428 370.778 169.944C370.298 170.46 370.016 171.138 369.932 171.978H375.242C375.206 171.09 374.972 170.4 374.54 169.908C374.12 169.416 373.52 169.17 372.74 169.17ZM372.182 167.082L374.036 163.446H375.602L373.226 167.082H372.182ZM386.187 177.162C385.503 177.162 384.855 177.066 384.243 176.874C383.631 176.682 383.127 176.412 382.731 176.064L383.199 175.038C383.631 175.386 384.105 175.644 384.621 175.812C385.149 175.968 385.683 176.046 386.223 176.046C386.907 176.046 387.423 175.92 387.771 175.668C388.119 175.416 388.293 175.074 388.293 174.642C388.293 174.306 388.179 174.042 387.951 173.85C387.723 173.646 387.363 173.49 386.871 173.382L385.233 173.022C383.745 172.698 383.001 171.93 383.001 170.718C383.001 169.926 383.313 169.29 383.937 168.81C384.573 168.33 385.401 168.09 386.421 168.09C387.021 168.09 387.591 168.186 388.131 168.378C388.683 168.558 389.139 168.828 389.499 169.188L389.013 170.214C388.665 169.89 388.257 169.644 387.789 169.476C387.333 169.296 386.877 169.206 386.421 169.206C385.749 169.206 385.239 169.338 384.891 169.602C384.543 169.866 384.369 170.214 384.369 170.646C384.369 171.318 384.813 171.75 385.701 171.942L387.339 172.284C388.107 172.452 388.689 172.722 389.085 173.094C389.481 173.454 389.679 173.946 389.679 174.57C389.679 175.374 389.361 176.01 388.725 176.478C388.089 176.934 387.243 177.162 386.187 177.162ZM395.609 177.162C394.733 177.162 393.977 176.976 393.341 176.604C392.705 176.22 392.213 175.686 391.865 175.002C391.529 174.306 391.361 173.496 391.361 172.572C391.361 171.18 391.739 170.088 392.495 169.296C393.251 168.492 394.289 168.09 395.609 168.09C396.149 168.09 396.683 168.186 397.211 168.378C397.739 168.57 398.177 168.84 398.525 169.188L398.021 170.25C397.673 169.914 397.289 169.668 396.869 169.512C396.461 169.356 396.071 169.278 395.699 169.278C394.787 169.278 394.085 169.566 393.593 170.142C393.101 170.706 392.855 171.522 392.855 172.59C392.855 173.634 393.101 174.462 393.593 175.074C394.085 175.674 394.787 175.974 395.699 175.974C396.071 175.974 396.461 175.896 396.869 175.74C397.289 175.584 397.673 175.332 398.021 174.984L398.525 176.046C398.177 176.394 397.733 176.67 397.193 176.874C396.665 177.066 396.137 177.162 395.609 177.162ZM400.053 166.074V164.436H401.853V166.074H400.053ZM400.233 177V168.252H401.691V177H400.233ZM408.359 177.162C406.979 177.162 405.887 176.76 405.083 175.956C404.279 175.14 403.877 174.036 403.877 172.644C403.877 171.744 404.057 170.952 404.417 170.268C404.777 169.572 405.269 169.038 405.893 168.666C406.529 168.282 407.261 168.09 408.089 168.09C409.277 168.09 410.207 168.474 410.879 169.242C411.551 169.998 411.887 171.042 411.887 172.374V172.932H405.299C405.347 173.928 405.635 174.69 406.163 175.218C406.691 175.734 407.423 175.992 408.359 175.992C408.887 175.992 409.391 175.914 409.871 175.758C410.351 175.59 410.807 175.32 411.239 174.948L411.743 175.974C411.347 176.346 410.843 176.64 410.231 176.856C409.619 177.06 408.995 177.162 408.359 177.162ZM408.125 169.17C407.297 169.17 406.643 169.428 406.163 169.944C405.683 170.46 405.401 171.138 405.317 171.978H410.627C410.591 171.09 410.357 170.4 409.925 169.908C409.505 169.416 408.905 169.17 408.125 169.17ZM413.997 177V168.252H415.419V169.746C415.707 169.194 416.115 168.78 416.643 168.504C417.171 168.228 417.765 168.09 418.425 168.09C420.501 168.09 421.539 169.242 421.539 171.546V177H420.081V171.636C420.081 170.82 419.919 170.226 419.595 169.854C419.283 169.47 418.779 169.278 418.083 169.278C417.279 169.278 416.637 169.53 416.157 170.034C415.689 170.526 415.455 171.186 415.455 172.014V177H413.997ZM427.935 177.162C427.059 177.162 426.303 176.976 425.667 176.604C425.031 176.22 424.539 175.686 424.191 175.002C423.855 174.306 423.687 173.496 423.687 172.572C423.687 171.18 424.065 170.088 424.821 169.296C425.577 168.492 426.615 168.09 427.935 168.09C428.475 168.09 429.009 168.186 429.537 168.378C430.065 168.57 430.503 168.84 430.851 169.188L430.347 170.25C429.999 169.914 429.615 169.668 429.195 169.512C428.787 169.356 428.397 169.278 428.025 169.278C427.113 169.278 426.411 169.566 425.919 170.142C425.427 170.706 425.181 171.522 425.181 172.59C425.181 173.634 425.427 174.462 425.919 175.074C426.411 175.674 427.113 175.974 428.025 175.974C428.397 175.974 428.787 175.896 429.195 175.74C429.615 175.584 429.999 175.332 430.347 174.984L430.851 176.046C430.503 176.394 430.059 176.67 429.519 176.874C428.991 177.066 428.463 177.162 427.935 177.162ZM436.326 177.162C434.946 177.162 433.854 176.76 433.05 175.956C432.246 175.14 431.844 174.036 431.844 172.644C431.844 171.744 432.024 170.952 432.384 170.268C432.744 169.572 433.236 169.038 433.86 168.666C434.496 168.282 435.228 168.09 436.056 168.09C437.244 168.09 438.174 168.474 438.846 169.242C439.518 169.998 439.854 171.042 439.854 172.374V172.932H433.266C433.314 173.928 433.602 174.69 434.13 175.218C434.658 175.734 435.39 175.992 436.326 175.992C436.854 175.992 437.358 175.914 437.838 175.758C438.318 175.59 438.774 175.32 439.206 174.948L439.71 175.974C439.314 176.346 438.81 176.64 438.198 176.856C437.586 177.06 436.962 177.162 436.326 177.162ZM436.092 169.17C435.264 169.17 434.61 169.428 434.13 169.944C433.65 170.46 433.368 171.138 433.284 171.978H438.594C438.558 171.09 438.324 170.4 437.892 169.908C437.472 169.416 436.872 169.17 436.092 169.17ZM442.486 179.052L441.802 178.53C442.066 178.254 442.252 177.99 442.36 177.738C442.48 177.498 442.558 177.252 442.594 177H441.73V175.164H443.566V176.46C443.566 176.952 443.488 177.408 443.332 177.828C443.176 178.248 442.894 178.656 442.486 179.052ZM122.076 207.162C121.2 207.162 120.444 206.976 119.808 206.604C119.172 206.22 118.68 205.686 118.332 205.002C117.996 204.306 117.828 203.496 117.828 202.572C117.828 201.18 118.206 200.088 118.962 199.296C119.718 198.492 120.756 198.09 122.076 198.09C122.616 198.09 123.15 198.186 123.678 198.378C124.206 198.57 124.644 198.84 124.992 199.188L124.488 200.25C124.14 199.914 123.756 199.668 123.336 199.512C122.928 199.356 122.538 199.278 122.166 199.278C121.254 199.278 120.552 199.566 120.06 200.142C119.568 200.706 119.322 201.522 119.322 202.59C119.322 203.634 119.568 204.462 120.06 205.074C120.552 205.674 121.254 205.974 122.166 205.974C122.538 205.974 122.928 205.896 123.336 205.74C123.756 205.584 124.14 205.332 124.488 204.984L124.992 206.046C124.644 206.394 124.2 206.67 123.66 206.874C123.132 207.066 122.604 207.162 122.076 207.162ZM130.16 207.162C129.308 207.162 128.57 206.976 127.946 206.604C127.322 206.232 126.836 205.71 126.488 205.038C126.152 204.354 125.984 203.55 125.984 202.626C125.984 201.702 126.152 200.904 126.488 200.232C126.836 199.548 127.322 199.02 127.946 198.648C128.57 198.276 129.308 198.09 130.16 198.09C131 198.09 131.732 198.276 132.356 198.648C132.992 199.02 133.478 199.548 133.814 200.232C134.162 200.904 134.336 201.702 134.336 202.626C134.336 203.55 134.162 204.354 133.814 205.038C133.478 205.71 132.992 206.232 132.356 206.604C131.732 206.976 131 207.162 130.16 207.162ZM130.16 205.992C130.976 205.992 131.63 205.704 132.122 205.128C132.614 204.54 132.86 203.706 132.86 202.626C132.86 201.534 132.614 200.7 132.122 200.124C131.63 199.548 130.976 199.26 130.16 199.26C129.332 199.26 128.672 199.548 128.18 200.124C127.7 200.7 127.46 201.534 127.46 202.626C127.46 203.706 127.7 204.54 128.18 205.128C128.672 205.704 129.332 205.992 130.16 205.992ZM136.562 207V198.252H137.984V199.728C138.248 199.2 138.614 198.798 139.082 198.522C139.55 198.234 140.096 198.09 140.72 198.09C142.088 198.09 142.964 198.684 143.348 199.872C143.612 199.32 144.002 198.888 144.518 198.576C145.034 198.252 145.628 198.09 146.3 198.09C148.244 198.09 149.216 199.242 149.216 201.546V207H147.758V201.618C147.758 200.814 147.614 200.226 147.326 199.854C147.05 199.47 146.588 199.278 145.94 199.278C145.232 199.278 144.668 199.53 144.248 200.034C143.828 200.538 143.618 201.21 143.618 202.05V207H142.16V201.618C142.16 200.814 142.016 200.226 141.728 199.854C141.452 199.47 140.99 199.278 140.342 199.278C139.622 199.278 139.052 199.53 138.632 200.034C138.224 200.538 138.02 201.21 138.02 202.05V207H136.562ZM151.978 207V198.252H153.4V199.728C153.664 199.2 154.03 198.798 154.498 198.522C154.966 198.234 155.512 198.09 156.136 198.09C157.504 198.09 158.38 198.684 158.764 199.872C159.028 199.32 159.418 198.888 159.934 198.576C160.45 198.252 161.044 198.09 161.716 198.09C163.66 198.09 164.632 199.242 164.632 201.546V207H163.174V201.618C163.174 200.814 163.03 200.226 162.742 199.854C162.466 199.47 162.004 199.278 161.356 199.278C160.648 199.278 160.084 199.53 159.664 200.034C159.244 200.538 159.034 201.21 159.034 202.05V207H157.576V201.618C157.576 200.814 157.432 200.226 157.144 199.854C156.868 199.47 156.406 199.278 155.758 199.278C155.038 199.278 154.468 199.53 154.048 200.034C153.64 200.538 153.436 201.21 153.436 202.05V207H151.978ZM171.3 207.162C169.92 207.162 168.828 206.76 168.024 205.956C167.22 205.14 166.818 204.036 166.818 202.644C166.818 201.744 166.998 200.952 167.358 200.268C167.718 199.572 168.21 199.038 168.834 198.666C169.47 198.282 170.202 198.09 171.03 198.09C172.218 198.09 173.148 198.474 173.82 199.242C174.492 199.998 174.828 201.042 174.828 202.374V202.932H168.24C168.288 203.928 168.576 204.69 169.104 205.218C169.632 205.734 170.364 205.992 171.3 205.992C171.828 205.992 172.332 205.914 172.812 205.758C173.292 205.59 173.748 205.32 174.18 204.948L174.684 205.974C174.288 206.346 173.784 206.64 173.172 206.856C172.56 207.06 171.936 207.162 171.3 207.162ZM171.066 199.17C170.238 199.17 169.584 199.428 169.104 199.944C168.624 200.46 168.342 201.138 168.258 201.978H173.568C173.532 201.09 173.298 200.4 172.866 199.908C172.446 199.416 171.846 199.17 171.066 199.17ZM184.243 207.162C183.355 207.162 182.683 206.904 182.227 206.388C181.783 205.86 181.561 205.098 181.561 204.102V194.31H183.019V203.994C183.019 205.278 183.529 205.92 184.549 205.92C184.849 205.92 185.119 205.884 185.359 205.812L185.323 207.036C184.951 207.12 184.591 207.162 184.243 207.162ZM190.742 207.162C189.362 207.162 188.27 206.76 187.466 205.956C186.662 205.14 186.26 204.036 186.26 202.644C186.26 201.744 186.44 200.952 186.8 200.268C187.16 199.572 187.652 199.038 188.276 198.666C188.912 198.282 189.644 198.09 190.472 198.09C191.66 198.09 192.59 198.474 193.262 199.242C193.934 199.998 194.27 201.042 194.27 202.374V202.932H187.682C187.73 203.928 188.018 204.69 188.546 205.218C189.074 205.734 189.806 205.992 190.742 205.992C191.27 205.992 191.774 205.914 192.254 205.758C192.734 205.59 193.19 205.32 193.622 204.948L194.126 205.974C193.73 206.346 193.226 206.64 192.614 206.856C192.002 207.06 191.378 207.162 190.742 207.162ZM190.508 199.17C189.68 199.17 189.026 199.428 188.546 199.944C188.066 200.46 187.784 201.138 187.7 201.978H193.01C192.974 201.09 192.74 200.4 192.308 199.908C191.888 199.416 191.288 199.17 190.508 199.17ZM201.039 207V198.252H202.461V199.728C202.725 199.2 203.091 198.798 203.559 198.522C204.027 198.234 204.573 198.09 205.197 198.09C206.565 198.09 207.441 198.684 207.825 199.872C208.089 199.32 208.479 198.888 208.995 198.576C209.511 198.252 210.105 198.09 210.777 198.09C212.721 198.09 213.693 199.242 213.693 201.546V207H212.235V201.618C212.235 200.814 212.091 200.226 211.803 199.854C211.527 199.47 211.065 199.278 210.417 199.278C209.709 199.278 209.145 199.53 208.725 200.034C208.305 200.538 208.095 201.21 208.095 202.05V207H206.637V201.618C206.637 200.814 206.493 200.226 206.205 199.854C205.929 199.47 205.467 199.278 204.819 199.278C204.099 199.278 203.529 199.53 203.109 200.034C202.701 200.538 202.497 201.21 202.497 202.05V207H201.039ZM220.055 207.162C219.203 207.162 218.465 206.976 217.841 206.604C217.217 206.232 216.731 205.71 216.383 205.038C216.047 204.354 215.879 203.55 215.879 202.626C215.879 201.702 216.047 200.904 216.383 200.232C216.731 199.548 217.217 199.02 217.841 198.648C218.465 198.276 219.203 198.09 220.055 198.09C220.895 198.09 221.627 198.276 222.251 198.648C222.887 199.02 223.373 199.548 223.709 200.232C224.057 200.904 224.231 201.702 224.231 202.626C224.231 203.55 224.057 204.354 223.709 205.038C223.373 205.71 222.887 206.232 222.251 206.604C221.627 206.976 220.895 207.162 220.055 207.162ZM220.055 205.992C220.871 205.992 221.525 205.704 222.017 205.128C222.509 204.54 222.755 203.706 222.755 202.626C222.755 201.534 222.509 200.7 222.017 200.124C221.525 199.548 220.871 199.26 220.055 199.26C219.227 199.26 218.567 199.548 218.075 200.124C217.595 200.7 217.355 201.534 217.355 202.626C217.355 203.706 217.595 204.54 218.075 205.128C218.567 205.704 219.227 205.992 220.055 205.992ZM226.421 207V198.252H227.843V199.746C228.131 199.194 228.539 198.78 229.067 198.504C229.595 198.228 230.189 198.09 230.849 198.09C232.925 198.09 233.963 199.242 233.963 201.546V207H232.505V201.636C232.505 200.82 232.343 200.226 232.019 199.854C231.707 199.47 231.203 199.278 230.507 199.278C229.703 199.278 229.061 199.53 228.581 200.034C228.113 200.526 227.879 201.186 227.879 202.014V207H226.421ZM240.161 207.162C239.129 207.162 238.355 206.892 237.839 206.352C237.323 205.8 237.065 205.008 237.065 203.976V199.386H235.355V198.252H237.065V195.57H238.523V198.252H241.295V199.386H238.523V203.832C238.523 204.516 238.667 205.038 238.955 205.398C239.243 205.746 239.711 205.92 240.359 205.92C240.551 205.92 240.743 205.896 240.935 205.848C241.127 205.8 241.301 205.752 241.457 205.704L241.709 206.82C241.553 206.904 241.325 206.982 241.025 207.054C240.725 207.126 240.437 207.162 240.161 207.162ZM242.944 207V198.252H244.366V199.818C244.834 198.762 245.794 198.18 247.246 198.072L247.768 198.018L247.876 199.278L246.958 199.386C246.13 199.458 245.5 199.722 245.068 200.178C244.636 200.622 244.42 201.234 244.42 202.014V207H242.944ZM253.232 207.162C251.852 207.162 250.76 206.76 249.956 205.956C249.152 205.14 248.75 204.036 248.75 202.644C248.75 201.744 248.93 200.952 249.29 200.268C249.65 199.572 250.142 199.038 250.766 198.666C251.402 198.282 252.134 198.09 252.962 198.09C254.15 198.09 255.08 198.474 255.752 199.242C256.424 199.998 256.76 201.042 256.76 202.374V202.932H250.172C250.22 203.928 250.508 204.69 251.036 205.218C251.564 205.734 252.296 205.992 253.232 205.992C253.76 205.992 254.264 205.914 254.744 205.758C255.224 205.59 255.68 205.32 256.112 204.948L256.616 205.974C256.22 206.346 255.716 206.64 255.104 206.856C254.492 207.06 253.868 207.162 253.232 207.162ZM252.998 199.17C252.17 199.17 251.516 199.428 251.036 199.944C250.556 200.46 250.274 201.138 250.19 201.978H255.5C255.464 201.09 255.23 200.4 254.798 199.908C254.378 199.416 253.778 199.17 252.998 199.17ZM263.529 207V198.252H264.951V199.728C265.215 199.2 265.581 198.798 266.049 198.522C266.517 198.234 267.063 198.09 267.687 198.09C269.055 198.09 269.931 198.684 270.315 199.872C270.579 199.32 270.969 198.888 271.485 198.576C272.001 198.252 272.595 198.09 273.267 198.09C275.211 198.09 276.183 199.242 276.183 201.546V207H274.725V201.618C274.725 200.814 274.581 200.226 274.293 199.854C274.017 199.47 273.555 199.278 272.907 199.278C272.199 199.278 271.635 199.53 271.215 200.034C270.795 200.538 270.585 201.21 270.585 202.05V207H269.127V201.618C269.127 200.814 268.983 200.226 268.695 199.854C268.419 199.47 267.957 199.278 267.309 199.278C266.589 199.278 266.019 199.53 265.599 200.034C265.191 200.538 264.987 201.21 264.987 202.05V207H263.529ZM282.851 207.162C281.471 207.162 280.379 206.76 279.575 205.956C278.771 205.14 278.369 204.036 278.369 202.644C278.369 201.744 278.549 200.952 278.909 200.268C279.269 199.572 279.761 199.038 280.385 198.666C281.021 198.282 281.753 198.09 282.581 198.09C283.769 198.09 284.699 198.474 285.371 199.242C286.043 199.998 286.379 201.042 286.379 202.374V202.932H279.791C279.839 203.928 280.127 204.69 280.655 205.218C281.183 205.734 281.915 205.992 282.851 205.992C283.379 205.992 283.883 205.914 284.363 205.758C284.843 205.59 285.299 205.32 285.731 204.948L286.235 205.974C285.839 206.346 285.335 206.64 284.723 206.856C284.111 207.06 283.487 207.162 282.851 207.162ZM282.617 199.17C281.789 199.17 281.135 199.428 280.655 199.944C280.175 200.46 279.893 201.138 279.809 201.978H285.119C285.083 201.09 284.849 200.4 284.417 199.908C283.997 199.416 283.397 199.17 282.617 199.17ZM291.441 207.162C290.757 207.162 290.109 207.066 289.497 206.874C288.885 206.682 288.381 206.412 287.985 206.064L288.453 205.038C288.885 205.386 289.359 205.644 289.875 205.812C290.403 205.968 290.937 206.046 291.477 206.046C292.161 206.046 292.677 205.92 293.025 205.668C293.373 205.416 293.547 205.074 293.547 204.642C293.547 204.306 293.433 204.042 293.205 203.85C292.977 203.646 292.617 203.49 292.125 203.382L290.487 203.022C288.999 202.698 288.255 201.93 288.255 200.718C288.255 199.926 288.567 199.29 289.191 198.81C289.827 198.33 290.655 198.09 291.675 198.09C292.275 198.09 292.845 198.186 293.385 198.378C293.937 198.558 294.393 198.828 294.753 199.188L294.267 200.214C293.919 199.89 293.511 199.644 293.043 199.476C292.587 199.296 292.131 199.206 291.675 199.206C291.003 199.206 290.493 199.338 290.145 199.602C289.797 199.866 289.623 200.214 289.623 200.646C289.623 201.318 290.067 201.75 290.955 201.942L292.593 202.284C293.361 202.452 293.943 202.722 294.339 203.094C294.735 203.454 294.933 203.946 294.933 204.57C294.933 205.374 294.615 206.01 293.979 206.478C293.343 206.934 292.497 207.162 291.441 207.162ZM305.108 207.162C304.328 207.162 303.644 206.976 303.056 206.604C302.48 206.232 302.03 205.71 301.706 205.038C301.394 204.354 301.238 203.55 301.238 202.626C301.238 201.69 301.394 200.886 301.706 200.214C302.03 199.53 302.48 199.008 303.056 198.648C303.644 198.276 304.328 198.09 305.108 198.09C305.792 198.09 306.392 198.24 306.908 198.54C307.436 198.84 307.826 199.254 308.078 199.782V194.31H309.536V207H308.114V205.398C307.862 205.95 307.472 206.382 306.944 206.694C306.416 207.006 305.804 207.162 305.108 207.162ZM305.414 205.992C306.23 205.992 306.884 205.704 307.376 205.128C307.868 204.54 308.114 203.706 308.114 202.626C308.114 201.534 307.868 200.7 307.376 200.124C306.884 199.548 306.23 199.26 305.414 199.26C304.586 199.26 303.926 199.548 303.434 200.124C302.954 200.7 302.714 201.534 302.714 202.626C302.714 203.706 302.954 204.54 303.434 205.128C303.926 205.704 304.586 205.992 305.414 205.992ZM312.092 196.074V194.436H313.892V196.074H312.092ZM312.272 207V198.252H313.73V207H312.272ZM316.924 207V199.386H315.196V198.252H316.924V197.946C316.924 196.782 317.212 195.9 317.788 195.3C318.376 194.7 319.276 194.364 320.488 194.292L321.19 194.256L321.316 195.372L320.488 195.426C319.744 195.486 319.204 195.708 318.868 196.092C318.544 196.476 318.382 197.034 318.382 197.766V198.252H320.902V199.386H318.382V207H316.924ZM322.637 207V199.386H320.909V198.252H322.637V197.946C322.637 196.782 322.925 195.9 323.501 195.3C324.089 194.7 324.989 194.364 326.201 194.292L326.903 194.256L327.029 195.372L326.201 195.426C325.457 195.486 324.917 195.708 324.581 196.092C324.257 196.476 324.095 197.034 324.095 197.766V198.252H326.615V199.386H324.095V207H322.637ZM331.859 207.162C330.479 207.162 329.387 206.76 328.583 205.956C327.779 205.14 327.377 204.036 327.377 202.644C327.377 201.744 327.557 200.952 327.917 200.268C328.277 199.572 328.769 199.038 329.393 198.666C330.029 198.282 330.761 198.09 331.589 198.09C332.777 198.09 333.707 198.474 334.379 199.242C335.051 199.998 335.387 201.042 335.387 202.374V202.932H328.799C328.847 203.928 329.135 204.69 329.663 205.218C330.191 205.734 330.923 205.992 331.859 205.992C332.387 205.992 332.891 205.914 333.371 205.758C333.851 205.59 334.307 205.32 334.739 204.948L335.243 205.974C334.847 206.346 334.343 206.64 333.731 206.856C333.119 207.06 332.495 207.162 331.859 207.162ZM331.625 199.17C330.797 199.17 330.143 199.428 329.663 199.944C329.183 200.46 328.901 201.138 328.817 201.978H334.127C334.091 201.09 333.857 200.4 333.425 199.908C333.005 199.416 332.405 199.17 331.625 199.17ZM331.067 197.082L332.921 193.446H334.487L332.111 197.082H331.067ZM337.497 207V198.252H338.919V199.818C339.387 198.762 340.347 198.18 341.799 198.072L342.321 198.018L342.429 199.278L341.511 199.386C340.683 199.458 340.053 199.722 339.621 200.178C339.189 200.622 338.973 201.234 338.973 202.014V207H337.497ZM347.785 207.162C346.405 207.162 345.313 206.76 344.509 205.956C343.705 205.14 343.303 204.036 343.303 202.644C343.303 201.744 343.483 200.952 343.843 200.268C344.203 199.572 344.695 199.038 345.319 198.666C345.955 198.282 346.687 198.09 347.515 198.09C348.703 198.09 349.633 198.474 350.305 199.242C350.977 199.998 351.313 201.042 351.313 202.374V202.932H344.725C344.773 203.928 345.061 204.69 345.589 205.218C346.117 205.734 346.849 205.992 347.785 205.992C348.313 205.992 348.817 205.914 349.297 205.758C349.777 205.59 350.233 205.32 350.665 204.948L351.169 205.974C350.773 206.346 350.269 206.64 349.657 206.856C349.045 207.06 348.421 207.162 347.785 207.162ZM347.551 199.17C346.723 199.17 346.069 199.428 345.589 199.944C345.109 200.46 344.827 201.138 344.743 201.978H350.053C350.017 201.09 349.783 200.4 349.351 199.908C348.931 199.416 348.331 199.17 347.551 199.17ZM353.423 207V198.252H354.845V199.746C355.133 199.194 355.541 198.78 356.069 198.504C356.597 198.228 357.191 198.09 357.851 198.09C359.927 198.09 360.965 199.242 360.965 201.546V207H359.507V201.636C359.507 200.82 359.345 200.226 359.021 199.854C358.709 199.47 358.205 199.278 357.509 199.278C356.705 199.278 356.063 199.53 355.583 200.034C355.115 200.526 354.881 201.186 354.881 202.014V207H353.423ZM367.163 207.162C366.131 207.162 365.357 206.892 364.841 206.352C364.325 205.8 364.067 205.008 364.067 203.976V199.386H362.357V198.252H364.067V195.57H365.525V198.252H368.297V199.386H365.525V203.832C365.525 204.516 365.669 205.038 365.957 205.398C366.245 205.746 366.713 205.92 367.361 205.92C367.553 205.92 367.745 205.896 367.937 205.848C368.129 205.8 368.303 205.752 368.459 205.704L368.711 206.82C368.555 206.904 368.327 206.982 368.027 207.054C367.727 207.126 367.439 207.162 367.163 207.162ZM373.8 207.162C372.42 207.162 371.328 206.76 370.524 205.956C369.72 205.14 369.318 204.036 369.318 202.644C369.318 201.744 369.498 200.952 369.858 200.268C370.218 199.572 370.71 199.038 371.334 198.666C371.97 198.282 372.702 198.09 373.53 198.09C374.718 198.09 375.648 198.474 376.32 199.242C376.992 199.998 377.328 201.042 377.328 202.374V202.932H370.74C370.788 203.928 371.076 204.69 371.604 205.218C372.132 205.734 372.864 205.992 373.8 205.992C374.328 205.992 374.832 205.914 375.312 205.758C375.792 205.59 376.248 205.32 376.68 204.948L377.184 205.974C376.788 206.346 376.284 206.64 375.672 206.856C375.06 207.06 374.436 207.162 373.8 207.162ZM373.566 199.17C372.738 199.17 372.084 199.428 371.604 199.944C371.124 200.46 370.842 201.138 370.758 201.978H376.068C376.032 201.09 375.798 200.4 375.366 199.908C374.946 199.416 374.346 199.17 373.566 199.17ZM382.39 207.162C381.706 207.162 381.058 207.066 380.446 206.874C379.834 206.682 379.33 206.412 378.934 206.064L379.402 205.038C379.834 205.386 380.308 205.644 380.824 205.812C381.352 205.968 381.886 206.046 382.426 206.046C383.11 206.046 383.626 205.92 383.974 205.668C384.322 205.416 384.496 205.074 384.496 204.642C384.496 204.306 384.382 204.042 384.154 203.85C383.926 203.646 383.566 203.49 383.074 203.382L381.436 203.022C379.948 202.698 379.204 201.93 379.204 200.718C379.204 199.926 379.516 199.29 380.14 198.81C380.776 198.33 381.604 198.09 382.624 198.09C383.224 198.09 383.794 198.186 384.334 198.378C384.886 198.558 385.342 198.828 385.702 199.188L385.216 200.214C384.868 199.89 384.46 199.644 383.992 199.476C383.536 199.296 383.08 199.206 382.624 199.206C381.952 199.206 381.442 199.338 381.094 199.602C380.746 199.866 380.572 200.214 380.572 200.646C380.572 201.318 381.016 201.75 381.904 201.942L383.542 202.284C384.31 202.452 384.892 202.722 385.288 203.094C385.684 203.454 385.882 203.946 385.882 204.57C385.882 205.374 385.564 206.01 384.928 206.478C384.292 206.934 383.446 207.162 382.39 207.162ZM396.363 207.162C395.511 207.162 394.773 206.976 394.149 206.604C393.525 206.232 393.039 205.71 392.691 205.038C392.355 204.354 392.187 203.55 392.187 202.626C392.187 201.702 392.355 200.904 392.691 200.232C393.039 199.548 393.525 199.02 394.149 198.648C394.773 198.276 395.511 198.09 396.363 198.09C397.203 198.09 397.935 198.276 398.559 198.648C399.195 199.02 399.681 199.548 400.017 200.232C400.365 200.904 400.539 201.702 400.539 202.626C400.539 203.55 400.365 204.354 400.017 205.038C399.681 205.71 399.195 206.232 398.559 206.604C397.935 206.976 397.203 207.162 396.363 207.162ZM396.363 205.992C397.179 205.992 397.833 205.704 398.325 205.128C398.817 204.54 399.063 203.706 399.063 202.626C399.063 201.534 398.817 200.7 398.325 200.124C397.833 199.548 397.179 199.26 396.363 199.26C395.535 199.26 394.875 199.548 394.383 200.124C393.903 200.7 393.663 201.534 393.663 202.626C393.663 203.706 393.903 204.54 394.383 205.128C394.875 205.704 395.535 205.992 396.363 205.992ZM402.729 210.24V198.252H404.151V199.818C404.415 199.278 404.805 198.858 405.321 198.558C405.849 198.246 406.461 198.09 407.157 198.09C407.937 198.09 408.615 198.276 409.191 198.648C409.779 199.008 410.229 199.53 410.541 200.214C410.865 200.886 411.027 201.69 411.027 202.626C411.027 203.55 410.865 204.354 410.541 205.038C410.229 205.71 409.779 206.232 409.191 206.604C408.615 206.976 407.937 207.162 407.157 207.162C406.485 207.162 405.885 207.012 405.357 206.712C404.829 206.412 404.439 205.998 404.187 205.47V210.24H402.729ZM406.851 205.992C407.667 205.992 408.321 205.704 408.813 205.128C409.305 204.54 409.551 203.706 409.551 202.626C409.551 201.534 409.305 200.7 408.813 200.124C408.321 199.548 407.667 199.26 406.851 199.26C406.035 199.26 405.381 199.548 404.889 200.124C404.397 200.7 404.151 201.534 404.151 202.626C404.151 203.706 404.397 204.54 404.889 205.128C405.381 205.704 406.035 205.992 406.851 205.992ZM416.646 207.162C415.614 207.162 414.84 206.892 414.324 206.352C413.808 205.8 413.55 205.008 413.55 203.976V199.386H411.84V198.252H413.55V195.57H415.008V198.252H417.78V199.386H415.008V203.832C415.008 204.516 415.152 205.038 415.44 205.398C415.728 205.746 416.196 205.92 416.844 205.92C417.036 205.92 417.228 205.896 417.42 205.848C417.612 205.8 417.786 205.752 417.942 205.704L418.194 206.82C418.038 206.904 417.81 206.982 417.51 207.054C417.21 207.126 416.922 207.162 416.646 207.162ZM419.249 196.074V194.436H421.049V196.074H419.249ZM419.429 207V198.252H420.887V207H419.429ZM427.248 207.162C426.396 207.162 425.658 206.976 425.034 206.604C424.41 206.232 423.924 205.71 423.576 205.038C423.24 204.354 423.072 203.55 423.072 202.626C423.072 201.702 423.24 200.904 423.576 200.232C423.924 199.548 424.41 199.02 425.034 198.648C425.658 198.276 426.396 198.09 427.248 198.09C428.088 198.09 428.82 198.276 429.444 198.648C430.08 199.02 430.566 199.548 430.902 200.232C431.25 200.904 431.424 201.702 431.424 202.626C431.424 203.55 431.25 204.354 430.902 205.038C430.566 205.71 430.08 206.232 429.444 206.604C428.82 206.976 428.088 207.162 427.248 207.162ZM427.248 205.992C428.064 205.992 428.718 205.704 429.21 205.128C429.702 204.54 429.948 203.706 429.948 202.626C429.948 201.534 429.702 200.7 429.21 200.124C428.718 199.548 428.064 199.26 427.248 199.26C426.42 199.26 425.76 199.548 425.268 200.124C424.788 200.7 424.548 201.534 424.548 202.626C424.548 203.706 424.788 204.54 425.268 205.128C425.76 205.704 426.42 205.992 427.248 205.992ZM433.614 207V198.252H435.036V199.746C435.324 199.194 435.732 198.78 436.26 198.504C436.788 198.228 437.382 198.09 438.042 198.09C440.118 198.09 441.156 199.242 441.156 201.546V207H439.698V201.636C439.698 200.82 439.536 200.226 439.212 199.854C438.9 199.47 438.396 199.278 437.7 199.278C436.896 199.278 436.254 199.53 435.774 200.034C435.306 200.526 435.072 201.186 435.072 202.014V207H433.614ZM446.797 207.162C446.113 207.162 445.465 207.066 444.853 206.874C444.241 206.682 443.737 206.412 443.341 206.064L443.809 205.038C444.241 205.386 444.715 205.644 445.231 205.812C445.759 205.968 446.293 206.046 446.833 206.046C447.517 206.046 448.033 205.92 448.381 205.668C448.729 205.416 448.903 205.074 448.903 204.642C448.903 204.306 448.789 204.042 448.561 203.85C448.333 203.646 447.973 203.49 447.481 203.382L445.843 203.022C444.355 202.698 443.611 201.93 443.611 200.718C443.611 199.926 443.923 199.29 444.547 198.81C445.183 198.33 446.011 198.09 447.031 198.09C447.631 198.09 448.201 198.186 448.741 198.378C449.293 198.558 449.749 198.828 450.109 199.188L449.623 200.214C449.275 199.89 448.867 199.644 448.399 199.476C447.943 199.296 447.487 199.206 447.031 199.206C446.359 199.206 445.849 199.338 445.501 199.602C445.153 199.866 444.979 200.214 444.979 200.646C444.979 201.318 445.423 201.75 446.311 201.942L447.949 202.284C448.717 202.452 449.299 202.722 449.695 203.094C450.091 203.454 450.289 203.946 450.289 204.57C450.289 205.374 449.971 206.01 449.335 206.478C448.699 206.934 447.853 207.162 446.797 207.162ZM456.9 200.088V198.252H458.736V200.088H456.9ZM456.9 207V205.164H458.736V207H456.9ZM118.602 237V224.31H119.844L124.722 233.472L129.564 224.31H130.806V237H129.438V227.082L125.208 235.038H124.236L119.952 227.1V237H118.602ZM136.52 237.162C135.92 237.162 135.38 237.048 134.9 236.82C134.432 236.58 134.06 236.256 133.784 235.848C133.508 235.44 133.37 234.984 133.37 234.48C133.37 233.844 133.532 233.34 133.856 232.968C134.192 232.596 134.738 232.332 135.494 232.176C136.262 232.008 137.306 231.924 138.626 231.924H139.202V231.366C139.202 230.622 139.046 230.088 138.734 229.764C138.434 229.428 137.948 229.26 137.276 229.26C136.748 229.26 136.238 229.338 135.746 229.494C135.254 229.638 134.75 229.878 134.234 230.214L133.73 229.152C134.186 228.828 134.738 228.57 135.386 228.378C136.046 228.186 136.676 228.09 137.276 228.09C138.404 228.09 139.238 228.366 139.778 228.918C140.33 229.47 140.606 230.328 140.606 231.492V237H139.238V235.488C139.01 236.004 138.656 236.412 138.176 236.712C137.708 237.012 137.156 237.162 136.52 237.162ZM136.754 236.064C137.474 236.064 138.062 235.818 138.518 235.326C138.974 234.822 139.202 234.186 139.202 233.418V232.878H138.644C137.672 232.878 136.904 232.926 136.34 233.022C135.788 233.106 135.398 233.262 135.17 233.49C134.954 233.706 134.846 234.006 134.846 234.39C134.846 234.882 135.014 235.284 135.35 235.596C135.698 235.908 136.166 236.064 136.754 236.064ZM146.821 237.162C145.789 237.162 145.015 236.892 144.499 236.352C143.983 235.8 143.725 235.008 143.725 233.976V229.386H142.015V228.252H143.725V225.57H145.183V228.252H147.955V229.386H145.183V233.832C145.183 234.516 145.327 235.038 145.615 235.398C145.903 235.746 146.371 235.92 147.019 235.92C147.211 235.92 147.403 235.896 147.595 235.848C147.787 235.8 147.961 235.752 148.117 235.704L148.369 236.82C148.213 236.904 147.985 236.982 147.685 237.054C147.385 237.126 147.097 237.162 146.821 237.162ZM149.604 237V224.31H151.062V229.692C151.35 229.164 151.752 228.768 152.268 228.504C152.796 228.228 153.384 228.09 154.032 228.09C156.108 228.09 157.146 229.242 157.146 231.546V237H155.688V231.636C155.688 230.82 155.526 230.226 155.202 229.854C154.89 229.47 154.386 229.278 153.69 229.278C152.886 229.278 152.244 229.53 151.764 230.034C151.296 230.526 151.062 231.186 151.062 232.014V237H149.604ZM163.777 237.162C162.397 237.162 161.305 236.76 160.501 235.956C159.697 235.14 159.295 234.036 159.295 232.644C159.295 231.744 159.475 230.952 159.835 230.268C160.195 229.572 160.687 229.038 161.311 228.666C161.947 228.282 162.679 228.09 163.507 228.09C164.695 228.09 165.625 228.474 166.297 229.242C166.969 229.998 167.305 231.042 167.305 232.374V232.932H160.717C160.765 233.928 161.053 234.69 161.581 235.218C162.109 235.734 162.841 235.992 163.777 235.992C164.305 235.992 164.809 235.914 165.289 235.758C165.769 235.59 166.225 235.32 166.657 234.948L167.161 235.974C166.765 236.346 166.261 236.64 165.649 236.856C165.037 237.06 164.413 237.162 163.777 237.162ZM163.543 229.17C162.715 229.17 162.061 229.428 161.581 229.944C161.101 230.46 160.819 231.138 160.735 231.978H166.045C166.009 231.09 165.775 230.4 165.343 229.908C164.923 229.416 164.323 229.17 163.543 229.17ZM162.985 227.082L164.839 223.446H166.405L164.029 227.082H162.985ZM169.451 237V228.252H170.873V229.728C171.137 229.2 171.503 228.798 171.971 228.522C172.439 228.234 172.985 228.09 173.609 228.09C174.977 228.09 175.853 228.684 176.237 229.872C176.501 229.32 176.891 228.888 177.407 228.576C177.923 228.252 178.517 228.09 179.189 228.09C181.133 228.09 182.105 229.242 182.105 231.546V237H180.647V231.618C180.647 230.814 180.503 230.226 180.215 229.854C179.939 229.47 179.477 229.278 178.829 229.278C178.121 229.278 177.557 229.53 177.137 230.034C176.717 230.538 176.507 231.21 176.507 232.05V237H175.049V231.618C175.049 230.814 174.905 230.226 174.617 229.854C174.341 229.47 173.879 229.278 173.231 229.278C172.511 229.278 171.941 229.53 171.521 230.034C171.113 230.538 170.909 231.21 170.909 232.05V237H169.451ZM187.585 237.162C186.985 237.162 186.445 237.048 185.965 236.82C185.497 236.58 185.125 236.256 184.849 235.848C184.573 235.44 184.435 234.984 184.435 234.48C184.435 233.844 184.597 233.34 184.921 232.968C185.257 232.596 185.803 232.332 186.559 232.176C187.327 232.008 188.371 231.924 189.691 231.924H190.267V231.366C190.267 230.622 190.111 230.088 189.799 229.764C189.499 229.428 189.013 229.26 188.341 229.26C187.813 229.26 187.303 229.338 186.811 229.494C186.319 229.638 185.815 229.878 185.299 230.214L184.795 229.152C185.251 228.828 185.803 228.57 186.451 228.378C187.111 228.186 187.741 228.09 188.341 228.09C189.469 228.09 190.303 228.366 190.843 228.918C191.395 229.47 191.671 230.328 191.671 231.492V237H190.303V235.488C190.075 236.004 189.721 236.412 189.241 236.712C188.773 237.012 188.221 237.162 187.585 237.162ZM187.819 236.064C188.539 236.064 189.127 235.818 189.583 235.326C190.039 234.822 190.267 234.186 190.267 233.418V232.878H189.709C188.737 232.878 187.969 232.926 187.405 233.022C186.853 233.106 186.463 233.262 186.235 233.49C186.019 233.706 185.911 234.006 185.911 234.39C185.911 234.882 186.079 235.284 186.415 235.596C186.763 235.908 187.231 236.064 187.819 236.064ZM197.886 237.162C196.854 237.162 196.08 236.892 195.564 236.352C195.048 235.8 194.79 235.008 194.79 233.976V229.386H193.08V228.252H194.79V225.57H196.248V228.252H199.02V229.386H196.248V233.832C196.248 234.516 196.392 235.038 196.68 235.398C196.968 235.746 197.436 235.92 198.084 235.92C198.276 235.92 198.468 235.896 198.66 235.848C198.852 235.8 199.026 235.752 199.182 235.704L199.434 236.82C199.278 236.904 199.05 236.982 198.75 237.054C198.45 237.126 198.162 237.162 197.886 237.162ZM200.489 226.074V224.436H202.289V226.074H200.489ZM200.669 237V228.252H202.127V237H200.669ZM211.152 240.24V235.47C210.9 235.986 210.51 236.4 209.982 236.712C209.466 237.012 208.866 237.162 208.182 237.162C207.402 237.162 206.718 236.976 206.13 236.604C205.554 236.232 205.104 235.71 204.78 235.038C204.468 234.354 204.312 233.55 204.312 232.626C204.312 231.69 204.468 230.886 204.78 230.214C205.104 229.53 205.554 229.008 206.13 228.648C206.718 228.276 207.402 228.09 208.182 228.09C208.878 228.09 209.49 228.246 210.018 228.558C210.546 228.87 210.936 229.296 211.188 229.836V228.252H212.61V240.24H211.152ZM208.488 235.992C209.304 235.992 209.958 235.704 210.45 235.128C210.942 234.54 211.188 233.706 211.188 232.626C211.188 231.534 210.942 230.7 210.45 230.124C209.958 229.548 209.304 229.26 208.488 229.26C207.66 229.26 207 229.548 206.508 230.124C206.028 230.7 205.788 231.534 205.788 232.626C205.788 233.706 206.028 234.54 206.508 235.128C207 235.704 207.66 235.992 208.488 235.992ZM218.443 237.162C216.343 237.162 215.293 236.004 215.293 233.688V228.252H216.751V233.67C216.751 234.45 216.907 235.026 217.219 235.398C217.543 235.77 218.047 235.956 218.731 235.956C219.475 235.956 220.081 235.71 220.549 235.218C221.017 234.714 221.251 234.048 221.251 233.22V228.252H222.709V237H221.287V235.524C221.011 236.052 220.621 236.46 220.117 236.748C219.625 237.024 219.067 237.162 218.443 237.162ZM229.378 237.162C227.998 237.162 226.906 236.76 226.102 235.956C225.298 235.14 224.896 234.036 224.896 232.644C224.896 231.744 225.076 230.952 225.436 230.268C225.796 229.572 226.288 229.038 226.912 228.666C227.548 228.282 228.28 228.09 229.108 228.09C230.296 228.09 231.226 228.474 231.898 229.242C232.57 229.998 232.906 231.042 232.906 232.374V232.932H226.318C226.366 233.928 226.654 234.69 227.182 235.218C227.71 235.734 228.442 235.992 229.378 235.992C229.906 235.992 230.41 235.914 230.89 235.758C231.37 235.59 231.826 235.32 232.258 234.948L232.762 235.974C232.366 236.346 231.862 236.64 231.25 236.856C230.638 237.06 230.014 237.162 229.378 237.162ZM229.144 229.17C228.316 229.17 227.662 229.428 227.182 229.944C226.702 230.46 226.42 231.138 226.336 231.978H231.646C231.61 231.09 231.376 230.4 230.944 229.908C230.524 229.416 229.924 229.17 229.144 229.17ZM237.968 237.162C237.284 237.162 236.636 237.066 236.024 236.874C235.412 236.682 234.908 236.412 234.512 236.064L234.98 235.038C235.412 235.386 235.886 235.644 236.402 235.812C236.93 235.968 237.464 236.046 238.004 236.046C238.688 236.046 239.204 235.92 239.552 235.668C239.9 235.416 240.074 235.074 240.074 234.642C240.074 234.306 239.96 234.042 239.732 233.85C239.504 233.646 239.144 233.49 238.652 233.382L237.014 233.022C235.526 232.698 234.782 231.93 234.782 230.718C234.782 229.926 235.094 229.29 235.718 228.81C236.354 228.33 237.182 228.09 238.202 228.09C238.802 228.09 239.372 228.186 239.912 228.378C240.464 228.558 240.92 228.828 241.28 229.188L240.794 230.214C240.446 229.89 240.038 229.644 239.57 229.476C239.114 229.296 238.658 229.206 238.202 229.206C237.53 229.206 237.02 229.338 236.672 229.602C236.324 229.866 236.15 230.214 236.15 230.646C236.15 231.318 236.594 231.75 237.482 231.942L239.12 232.284C239.888 232.452 240.47 232.722 240.866 233.094C241.262 233.454 241.46 233.946 241.46 234.57C241.46 235.374 241.142 236.01 240.506 236.478C239.87 236.934 239.024 237.162 237.968 237.162ZM118.602 267V254.31H119.844L124.722 263.472L129.564 254.31H130.806V267H129.438V257.082L125.208 265.038H124.236L119.952 257.1V267H118.602ZM136.52 267.162C135.92 267.162 135.38 267.048 134.9 266.82C134.432 266.58 134.06 266.256 133.784 265.848C133.508 265.44 133.37 264.984 133.37 264.48C133.37 263.844 133.532 263.34 133.856 262.968C134.192 262.596 134.738 262.332 135.494 262.176C136.262 262.008 137.306 261.924 138.626 261.924H139.202V261.366C139.202 260.622 139.046 260.088 138.734 259.764C138.434 259.428 137.948 259.26 137.276 259.26C136.748 259.26 136.238 259.338 135.746 259.494C135.254 259.638 134.75 259.878 134.234 260.214L133.73 259.152C134.186 258.828 134.738 258.57 135.386 258.378C136.046 258.186 136.676 258.09 137.276 258.09C138.404 258.09 139.238 258.366 139.778 258.918C140.33 259.47 140.606 260.328 140.606 261.492V267H139.238V265.488C139.01 266.004 138.656 266.412 138.176 266.712C137.708 267.012 137.156 267.162 136.52 267.162ZM136.754 266.064C137.474 266.064 138.062 265.818 138.518 265.326C138.974 264.822 139.202 264.186 139.202 263.418V262.878H138.644C137.672 262.878 136.904 262.926 136.34 263.022C135.788 263.106 135.398 263.262 135.17 263.49C134.954 263.706 134.846 264.006 134.846 264.39C134.846 264.882 135.014 265.284 135.35 265.596C135.698 265.908 136.166 266.064 136.754 266.064ZM146.821 267.162C145.789 267.162 145.015 266.892 144.499 266.352C143.983 265.8 143.725 265.008 143.725 263.976V259.386H142.015V258.252H143.725V255.57H145.183V258.252H147.955V259.386H145.183V263.832C145.183 264.516 145.327 265.038 145.615 265.398C145.903 265.746 146.371 265.92 147.019 265.92C147.211 265.92 147.403 265.896 147.595 265.848C147.787 265.8 147.961 265.752 148.117 265.704L148.369 266.82C148.213 266.904 147.985 266.982 147.685 267.054C147.385 267.126 147.097 267.162 146.821 267.162ZM153.458 267.162C152.078 267.162 150.986 266.76 150.182 265.956C149.378 265.14 148.976 264.036 148.976 262.644C148.976 261.744 149.156 260.952 149.516 260.268C149.876 259.572 150.368 259.038 150.992 258.666C151.628 258.282 152.36 258.09 153.188 258.09C154.376 258.09 155.306 258.474 155.978 259.242C156.65 259.998 156.986 261.042 156.986 262.374V262.932H150.398C150.446 263.928 150.734 264.69 151.262 265.218C151.79 265.734 152.522 265.992 153.458 265.992C153.986 265.992 154.49 265.914 154.97 265.758C155.45 265.59 155.906 265.32 156.338 264.948L156.842 265.974C156.446 266.346 155.942 266.64 155.33 266.856C154.718 267.06 154.094 267.162 153.458 267.162ZM153.224 259.17C152.396 259.17 151.742 259.428 151.262 259.944C150.782 260.46 150.5 261.138 150.416 261.978H155.726C155.69 261.09 155.456 260.4 155.024 259.908C154.604 259.416 154.004 259.17 153.224 259.17ZM152.666 257.082L154.52 253.446H156.086L153.71 257.082H152.666ZM159.133 267V258.252H160.555V259.728C160.819 259.2 161.185 258.798 161.653 258.522C162.121 258.234 162.667 258.09 163.291 258.09C164.659 258.09 165.535 258.684 165.919 259.872C166.183 259.32 166.573 258.888 167.089 258.576C167.605 258.252 168.199 258.09 168.871 258.09C170.815 258.09 171.787 259.242 171.787 261.546V267H170.329V261.618C170.329 260.814 170.185 260.226 169.897 259.854C169.621 259.47 169.159 259.278 168.511 259.278C167.803 259.278 167.239 259.53 166.819 260.034C166.399 260.538 166.189 261.21 166.189 262.05V267H164.731V261.618C164.731 260.814 164.587 260.226 164.299 259.854C164.023 259.47 163.561 259.278 162.913 259.278C162.193 259.278 161.623 259.53 161.203 260.034C160.795 260.538 160.591 261.21 160.591 262.05V267H159.133ZM177.267 267.162C176.667 267.162 176.127 267.048 175.647 266.82C175.179 266.58 174.807 266.256 174.531 265.848C174.255 265.44 174.117 264.984 174.117 264.48C174.117 263.844 174.279 263.34 174.603 262.968C174.939 262.596 175.485 262.332 176.241 262.176C177.009 262.008 178.053 261.924 179.373 261.924H179.949V261.366C179.949 260.622 179.793 260.088 179.481 259.764C179.181 259.428 178.695 259.26 178.023 259.26C177.495 259.26 176.985 259.338 176.493 259.494C176.001 259.638 175.497 259.878 174.981 260.214L174.477 259.152C174.933 258.828 175.485 258.57 176.133 258.378C176.793 258.186 177.423 258.09 178.023 258.09C179.151 258.09 179.985 258.366 180.525 258.918C181.077 259.47 181.353 260.328 181.353 261.492V267H179.985V265.488C179.757 266.004 179.403 266.412 178.923 266.712C178.455 267.012 177.903 267.162 177.267 267.162ZM177.501 266.064C178.221 266.064 178.809 265.818 179.265 265.326C179.721 264.822 179.949 264.186 179.949 263.418V262.878H179.391C178.419 262.878 177.651 262.926 177.087 263.022C176.535 263.106 176.145 263.262 175.917 263.49C175.701 263.706 175.593 264.006 175.593 264.39C175.593 264.882 175.761 265.284 176.097 265.596C176.445 265.908 176.913 266.064 177.501 266.064ZM187.567 267.162C186.535 267.162 185.761 266.892 185.245 266.352C184.729 265.8 184.471 265.008 184.471 263.976V259.386H182.761V258.252H184.471V255.57H185.929V258.252H188.701V259.386H185.929V263.832C185.929 264.516 186.073 265.038 186.361 265.398C186.649 265.746 187.117 265.92 187.765 265.92C187.957 265.92 188.149 265.896 188.341 265.848C188.533 265.8 188.707 265.752 188.863 265.704L189.115 266.82C188.959 266.904 188.731 266.982 188.431 267.054C188.131 267.126 187.843 267.162 187.567 267.162ZM190.17 256.074V254.436H191.97V256.074H190.17ZM190.35 267V258.252H191.808V267H190.35ZM200.834 270.24V265.47C200.582 265.986 200.192 266.4 199.664 266.712C199.148 267.012 198.548 267.162 197.864 267.162C197.084 267.162 196.4 266.976 195.812 266.604C195.236 266.232 194.786 265.71 194.462 265.038C194.15 264.354 193.994 263.55 193.994 262.626C193.994 261.69 194.15 260.886 194.462 260.214C194.786 259.53 195.236 259.008 195.812 258.648C196.4 258.276 197.084 258.09 197.864 258.09C198.56 258.09 199.172 258.246 199.7 258.558C200.228 258.87 200.618 259.296 200.87 259.836V258.252H202.292V270.24H200.834ZM198.17 265.992C198.986 265.992 199.64 265.704 200.132 265.128C200.624 264.54 200.87 263.706 200.87 262.626C200.87 261.534 200.624 260.7 200.132 260.124C199.64 259.548 198.986 259.26 198.17 259.26C197.342 259.26 196.682 259.548 196.19 260.124C195.71 260.7 195.47 261.534 195.47 262.626C195.47 263.706 195.71 264.54 196.19 265.128C196.682 265.704 197.342 265.992 198.17 265.992ZM208.124 267.162C206.024 267.162 204.974 266.004 204.974 263.688V258.252H206.432V263.67C206.432 264.45 206.588 265.026 206.9 265.398C207.224 265.77 207.728 265.956 208.412 265.956C209.156 265.956 209.762 265.71 210.23 265.218C210.698 264.714 210.932 264.048 210.932 263.22V258.252H212.39V267H210.968V265.524C210.692 266.052 210.302 266.46 209.798 266.748C209.306 267.024 208.748 267.162 208.124 267.162ZM219.06 267.162C217.68 267.162 216.588 266.76 215.784 265.956C214.98 265.14 214.578 264.036 214.578 262.644C214.578 261.744 214.758 260.952 215.118 260.268C215.478 259.572 215.97 259.038 216.594 258.666C217.23 258.282 217.962 258.09 218.79 258.09C219.978 258.09 220.908 258.474 221.58 259.242C222.252 259.998 222.588 261.042 222.588 262.374V262.932H216C216.048 263.928 216.336 264.69 216.864 265.218C217.392 265.734 218.124 265.992 219.06 265.992C219.588 265.992 220.092 265.914 220.572 265.758C221.052 265.59 221.508 265.32 221.94 264.948L222.444 265.974C222.048 266.346 221.544 266.64 220.932 266.856C220.32 267.06 219.696 267.162 219.06 267.162ZM218.826 259.17C217.998 259.17 217.344 259.428 216.864 259.944C216.384 260.46 216.102 261.138 216.018 261.978H221.328C221.292 261.09 221.058 260.4 220.626 259.908C220.206 259.416 219.606 259.17 218.826 259.17ZM227.65 267.162C226.966 267.162 226.318 267.066 225.706 266.874C225.094 266.682 224.59 266.412 224.194 266.064L224.662 265.038C225.094 265.386 225.568 265.644 226.084 265.812C226.612 265.968 227.146 266.046 227.686 266.046C228.37 266.046 228.886 265.92 229.234 265.668C229.582 265.416 229.756 265.074 229.756 264.642C229.756 264.306 229.642 264.042 229.414 263.85C229.186 263.646 228.826 263.49 228.334 263.382L226.696 263.022C225.208 262.698 224.464 261.93 224.464 260.718C224.464 259.926 224.776 259.29 225.4 258.81C226.036 258.33 226.864 258.09 227.884 258.09C228.484 258.09 229.054 258.186 229.594 258.378C230.146 258.558 230.602 258.828 230.962 259.188L230.476 260.214C230.128 259.89 229.72 259.644 229.252 259.476C228.796 259.296 228.34 259.206 227.884 259.206C227.212 259.206 226.702 259.338 226.354 259.602C226.006 259.866 225.832 260.214 225.832 260.646C225.832 261.318 226.276 261.75 227.164 261.942L228.802 262.284C229.57 262.452 230.152 262.722 230.548 263.094C230.944 263.454 231.142 263.946 231.142 264.57C231.142 265.374 230.824 266.01 230.188 266.478C229.552 266.934 228.706 267.162 227.65 267.162ZM241.929 267.162C240.549 267.162 239.457 266.76 238.653 265.956C237.849 265.14 237.447 264.036 237.447 262.644C237.447 261.744 237.627 260.952 237.987 260.268C238.347 259.572 238.839 259.038 239.463 258.666C240.099 258.282 240.831 258.09 241.659 258.09C242.847 258.09 243.777 258.474 244.449 259.242C245.121 259.998 245.457 261.042 245.457 262.374V262.932H238.869C238.917 263.928 239.205 264.69 239.733 265.218C240.261 265.734 240.993 265.992 241.929 265.992C242.457 265.992 242.961 265.914 243.441 265.758C243.921 265.59 244.377 265.32 244.809 264.948L245.313 265.974C244.917 266.346 244.413 266.64 243.801 266.856C243.189 267.06 242.565 267.162 241.929 267.162ZM241.695 259.17C240.867 259.17 240.213 259.428 239.733 259.944C239.253 260.46 238.971 261.138 238.887 261.978H244.197C244.161 261.09 243.927 260.4 243.495 259.908C243.075 259.416 242.475 259.17 241.695 259.17ZM246.381 267L250.017 262.482L246.597 258.252H248.325L250.863 261.474L253.419 258.252H255.129L251.709 262.482L255.345 267H253.617L250.845 263.526L248.109 267H246.381ZM256.954 270.24V258.252H258.376V259.818C258.64 259.278 259.03 258.858 259.546 258.558C260.074 258.246 260.686 258.09 261.382 258.09C262.162 258.09 262.84 258.276 263.416 258.648C264.004 259.008 264.454 259.53 264.766 260.214C265.09 260.886 265.252 261.69 265.252 262.626C265.252 263.55 265.09 264.354 264.766 265.038C264.454 265.71 264.004 266.232 263.416 266.604C262.84 266.976 262.162 267.162 261.382 267.162C260.71 267.162 260.11 267.012 259.582 266.712C259.054 266.412 258.664 265.998 258.412 265.47V270.24H256.954ZM261.076 265.992C261.892 265.992 262.546 265.704 263.038 265.128C263.53 264.54 263.776 263.706 263.776 262.626C263.776 261.534 263.53 260.7 263.038 260.124C262.546 259.548 261.892 259.26 261.076 259.26C260.26 259.26 259.606 259.548 259.114 260.124C258.622 260.7 258.376 261.534 258.376 262.626C258.376 263.706 258.622 264.54 259.114 265.128C259.606 265.704 260.26 265.992 261.076 265.992ZM271.39 267.162C270.01 267.162 268.918 266.76 268.114 265.956C267.31 265.14 266.908 264.036 266.908 262.644C266.908 261.744 267.088 260.952 267.448 260.268C267.808 259.572 268.3 259.038 268.924 258.666C269.56 258.282 270.292 258.09 271.12 258.09C272.308 258.09 273.238 258.474 273.91 259.242C274.582 259.998 274.918 261.042 274.918 262.374V262.932H268.33C268.378 263.928 268.666 264.69 269.194 265.218C269.722 265.734 270.454 265.992 271.39 265.992C271.918 265.992 272.422 265.914 272.902 265.758C273.382 265.59 273.838 265.32 274.27 264.948L274.774 265.974C274.378 266.346 273.874 266.64 273.262 266.856C272.65 267.06 272.026 267.162 271.39 267.162ZM271.156 259.17C270.328 259.17 269.674 259.428 269.194 259.944C268.714 260.46 268.432 261.138 268.348 261.978H273.658C273.622 261.09 273.388 260.4 272.956 259.908C272.536 259.416 271.936 259.17 271.156 259.17ZM277.028 267V258.252H278.45V259.818C278.918 258.762 279.878 258.18 281.33 258.072L281.852 258.018L281.96 259.278L281.042 259.386C280.214 259.458 279.584 259.722 279.152 260.178C278.72 260.622 278.504 261.234 278.504 262.014V267H277.028ZM287.464 267.162C286.432 267.162 285.658 266.892 285.142 266.352C284.626 265.8 284.368 265.008 284.368 263.976V259.386H282.658V258.252H284.368V255.57H285.826V258.252H288.598V259.386H285.826V263.832C285.826 264.516 285.97 265.038 286.258 265.398C286.546 265.746 287.014 265.92 287.662 265.92C287.854 265.92 288.046 265.896 288.238 265.848C288.43 265.8 288.604 265.752 288.76 265.704L289.012 266.82C288.856 266.904 288.628 266.982 288.328 267.054C288.028 267.126 287.74 267.162 287.464 267.162ZM294.101 267.162C292.721 267.162 291.629 266.76 290.825 265.956C290.021 265.14 289.619 264.036 289.619 262.644C289.619 261.744 289.799 260.952 290.159 260.268C290.519 259.572 291.011 259.038 291.635 258.666C292.271 258.282 293.003 258.09 293.831 258.09C295.019 258.09 295.949 258.474 296.621 259.242C297.293 259.998 297.629 261.042 297.629 262.374V262.932H291.041C291.089 263.928 291.377 264.69 291.905 265.218C292.433 265.734 293.165 265.992 294.101 265.992C294.629 265.992 295.133 265.914 295.613 265.758C296.093 265.59 296.549 265.32 296.981 264.948L297.485 265.974C297.089 266.346 296.585 266.64 295.973 266.856C295.361 267.06 294.737 267.162 294.101 267.162ZM293.867 259.17C293.039 259.17 292.385 259.428 291.905 259.944C291.425 260.46 291.143 261.138 291.059 261.978H296.369C296.333 261.09 296.099 260.4 295.667 259.908C295.247 259.416 294.647 259.17 293.867 259.17ZM302.691 267.162C302.007 267.162 301.359 267.066 300.747 266.874C300.135 266.682 299.631 266.412 299.235 266.064L299.703 265.038C300.135 265.386 300.609 265.644 301.125 265.812C301.653 265.968 302.187 266.046 302.727 266.046C303.411 266.046 303.927 265.92 304.275 265.668C304.623 265.416 304.797 265.074 304.797 264.642C304.797 264.306 304.683 264.042 304.455 263.85C304.227 263.646 303.867 263.49 303.375 263.382L301.737 263.022C300.249 262.698 299.505 261.93 299.505 260.718C299.505 259.926 299.817 259.29 300.441 258.81C301.077 258.33 301.905 258.09 302.925 258.09C303.525 258.09 304.095 258.186 304.635 258.378C305.187 258.558 305.643 258.828 306.003 259.188L305.517 260.214C305.169 259.89 304.761 259.644 304.293 259.476C303.837 259.296 303.381 259.206 302.925 259.206C302.253 259.206 301.743 259.338 301.395 259.602C301.047 259.866 300.873 260.214 300.873 260.646C300.873 261.318 301.317 261.75 302.205 261.942L303.843 262.284C304.611 262.452 305.193 262.722 305.589 263.094C305.985 263.454 306.183 263.946 306.183 264.57C306.183 265.374 305.865 266.01 305.229 266.478C304.593 266.934 303.747 267.162 302.691 267.162ZM117.342 297L122.94 284.31H124.2L129.798 297H128.268L126.864 293.76H120.258L118.872 297H117.342ZM123.552 286.038L120.798 292.518H126.342L123.588 286.038H123.552ZM131.481 297V288.252H132.903V289.746C133.191 289.194 133.599 288.78 134.127 288.504C134.655 288.228 135.249 288.09 135.909 288.09C137.985 288.09 139.023 289.242 139.023 291.546V297H137.565V291.636C137.565 290.82 137.403 290.226 137.079 289.854C136.767 289.47 136.263 289.278 135.567 289.278C134.763 289.278 134.121 289.53 133.641 290.034C133.173 290.526 132.939 291.186 132.939 292.014V297H131.481ZM145.582 300.402C144.826 300.402 144.112 300.3 143.44 300.096C142.78 299.904 142.192 299.61 141.676 299.214L142.162 298.152C142.702 298.536 143.236 298.812 143.764 298.98C144.304 299.148 144.886 299.232 145.51 299.232C147.238 299.232 148.102 298.344 148.102 296.568V295.02C147.85 295.572 147.454 296.01 146.914 296.334C146.386 296.646 145.78 296.802 145.096 296.802C144.292 296.802 143.596 296.616 143.008 296.244C142.42 295.872 141.964 295.362 141.64 294.714C141.328 294.054 141.172 293.292 141.172 292.428C141.172 291.564 141.328 290.808 141.64 290.16C141.964 289.5 142.42 288.99 143.008 288.63C143.596 288.27 144.292 288.09 145.096 288.09C145.78 288.09 146.386 288.246 146.914 288.558C147.454 288.87 147.85 289.296 148.102 289.836V288.252H149.524V296.37C149.524 297.714 149.188 298.722 148.516 299.394C147.856 300.066 146.878 300.402 145.582 300.402ZM145.366 295.614C146.206 295.614 146.872 295.326 147.364 294.75C147.856 294.174 148.102 293.4 148.102 292.428C148.102 291.456 147.856 290.688 147.364 290.124C146.872 289.548 146.206 289.26 145.366 289.26C144.538 289.26 143.878 289.548 143.386 290.124C142.894 290.688 142.648 291.456 142.648 292.428C142.648 293.4 142.894 294.174 143.386 294.75C143.878 295.326 144.538 295.614 145.366 295.614ZM154.941 297.162C154.053 297.162 153.381 296.904 152.925 296.388C152.481 295.86 152.259 295.098 152.259 294.102V284.31H153.717V293.994C153.717 295.278 154.227 295.92 155.247 295.92C155.547 295.92 155.817 295.884 156.057 295.812L156.021 297.036C155.649 297.12 155.289 297.162 154.941 297.162ZM160.339 297.162C159.739 297.162 159.199 297.048 158.719 296.82C158.251 296.58 157.879 296.256 157.603 295.848C157.327 295.44 157.189 294.984 157.189 294.48C157.189 293.844 157.351 293.34 157.675 292.968C158.011 292.596 158.557 292.332 159.313 292.176C160.081 292.008 161.125 291.924 162.445 291.924H163.021V291.366C163.021 290.622 162.865 290.088 162.553 289.764C162.253 289.428 161.767 289.26 161.095 289.26C160.567 289.26 160.057 289.338 159.565 289.494C159.073 289.638 158.569 289.878 158.053 290.214L157.549 289.152C158.005 288.828 158.557 288.57 159.205 288.378C159.865 288.186 160.495 288.09 161.095 288.09C162.223 288.09 163.057 288.366 163.597 288.918C164.149 289.47 164.425 290.328 164.425 291.492V297H163.057V295.488C162.829 296.004 162.475 296.412 161.995 296.712C161.527 297.012 160.975 297.162 160.339 297.162ZM160.573 296.064C161.293 296.064 161.881 295.818 162.337 295.326C162.793 294.822 163.021 294.186 163.021 293.418V292.878H162.463C161.491 292.878 160.723 292.926 160.159 293.022C159.607 293.106 159.217 293.262 158.989 293.49C158.773 293.706 158.665 294.006 158.665 294.39C158.665 294.882 158.833 295.284 159.169 295.596C159.517 295.908 159.985 296.064 160.573 296.064ZM166.95 286.074V284.436H168.75V286.074H166.95ZM167.13 297V288.252H168.588V297H167.13ZM174.265 297.162C173.581 297.162 172.933 297.066 172.321 296.874C171.709 296.682 171.205 296.412 170.809 296.064L171.277 295.038C171.709 295.386 172.183 295.644 172.699 295.812C173.227 295.968 173.761 296.046 174.301 296.046C174.985 296.046 175.501 295.92 175.849 295.668C176.197 295.416 176.371 295.074 176.371 294.642C176.371 294.306 176.257 294.042 176.029 293.85C175.801 293.646 175.441 293.49 174.949 293.382L173.311 293.022C171.823 292.698 171.079 291.93 171.079 290.718C171.079 289.926 171.391 289.29 172.015 288.81C172.651 288.33 173.479 288.09 174.499 288.09C175.099 288.09 175.669 288.186 176.209 288.378C176.761 288.558 177.217 288.828 177.577 289.188L177.091 290.214C176.743 289.89 176.335 289.644 175.867 289.476C175.411 289.296 174.955 289.206 174.499 289.206C173.827 289.206 173.317 289.338 172.969 289.602C172.621 289.866 172.447 290.214 172.447 290.646C172.447 291.318 172.891 291.75 173.779 291.942L175.417 292.284C176.185 292.452 176.767 292.722 177.163 293.094C177.559 293.454 177.757 293.946 177.757 294.57C177.757 295.374 177.439 296.01 176.803 296.478C176.167 296.934 175.321 297.162 174.265 297.162ZM188.544 297.162C187.164 297.162 186.072 296.76 185.268 295.956C184.464 295.14 184.062 294.036 184.062 292.644C184.062 291.744 184.242 290.952 184.602 290.268C184.962 289.572 185.454 289.038 186.078 288.666C186.714 288.282 187.446 288.09 188.274 288.09C189.462 288.09 190.392 288.474 191.064 289.242C191.736 289.998 192.072 291.042 192.072 292.374V292.932H185.484C185.532 293.928 185.82 294.69 186.348 295.218C186.876 295.734 187.608 295.992 188.544 295.992C189.072 295.992 189.576 295.914 190.056 295.758C190.536 295.59 190.992 295.32 191.424 294.948L191.928 295.974C191.532 296.346 191.028 296.64 190.416 296.856C189.804 297.06 189.18 297.162 188.544 297.162ZM188.31 289.17C187.482 289.17 186.828 289.428 186.348 289.944C185.868 290.46 185.586 291.138 185.502 291.978H190.812C190.776 291.09 190.542 290.4 190.11 289.908C189.69 289.416 189.09 289.17 188.31 289.17ZM197.278 297.162C195.178 297.162 194.128 296.004 194.128 293.688V288.252H195.586V293.67C195.586 294.45 195.742 295.026 196.054 295.398C196.378 295.77 196.882 295.956 197.566 295.956C198.31 295.956 198.916 295.71 199.384 295.218C199.852 294.714 200.086 294.048 200.086 293.22V288.252H201.544V297H200.122V295.524C199.846 296.052 199.456 296.46 198.952 296.748C198.46 297.024 197.902 297.162 197.278 297.162ZM204.272 297V288.252H205.694V289.818C206.162 288.762 207.122 288.18 208.574 288.072L209.096 288.018L209.204 289.278L208.286 289.386C207.458 289.458 206.828 289.722 206.396 290.178C205.964 290.622 205.748 291.234 205.748 292.014V297H204.272ZM214.254 297.162C213.402 297.162 212.664 296.976 212.04 296.604C211.416 296.232 210.93 295.71 210.582 295.038C210.246 294.354 210.078 293.55 210.078 292.626C210.078 291.702 210.246 290.904 210.582 290.232C210.93 289.548 211.416 289.02 212.04 288.648C212.664 288.276 213.402 288.09 214.254 288.09C215.094 288.09 215.826 288.276 216.45 288.648C217.086 289.02 217.572 289.548 217.908 290.232C218.256 290.904 218.43 291.702 218.43 292.626C218.43 293.55 218.256 294.354 217.908 295.038C217.572 295.71 217.086 296.232 216.45 296.604C215.826 296.976 215.094 297.162 214.254 297.162ZM214.254 295.992C215.07 295.992 215.724 295.704 216.216 295.128C216.708 294.54 216.954 293.706 216.954 292.626C216.954 291.534 216.708 290.7 216.216 290.124C215.724 289.548 215.07 289.26 214.254 289.26C213.426 289.26 212.766 289.548 212.274 290.124C211.794 290.7 211.554 291.534 211.554 292.626C211.554 293.706 211.794 294.54 212.274 295.128C212.766 295.704 213.426 295.992 214.254 295.992ZM122.67 327.162C121.674 327.162 120.774 327.036 119.97 326.784C119.166 326.52 118.47 326.142 117.882 325.65L118.404 324.462C119.016 324.93 119.658 325.278 120.33 325.506C121.002 325.734 121.782 325.848 122.67 325.848C123.75 325.848 124.548 325.65 125.064 325.254C125.592 324.846 125.856 324.312 125.856 323.652C125.856 323.124 125.664 322.704 125.28 322.392C124.908 322.08 124.278 321.834 123.39 321.654L121.518 321.276C120.39 321.036 119.544 320.646 118.98 320.106C118.428 319.554 118.152 318.822 118.152 317.91C118.152 317.154 118.344 316.494 118.728 315.93C119.124 315.366 119.67 314.928 120.366 314.616C121.062 314.304 121.866 314.148 122.778 314.148C123.63 314.148 124.422 314.286 125.154 314.562C125.886 314.826 126.504 315.21 127.008 315.714L126.486 316.866C125.946 316.374 125.376 316.02 124.776 315.804C124.176 315.576 123.504 315.462 122.76 315.462C121.812 315.462 121.056 315.684 120.492 316.128C119.928 316.56 119.646 317.136 119.646 317.856C119.646 318.432 119.82 318.888 120.168 319.224C120.528 319.56 121.11 319.806 121.914 319.962L123.786 320.358C124.998 320.61 125.892 320.994 126.468 321.51C127.056 322.014 127.35 322.704 127.35 323.58C127.35 324.288 127.158 324.912 126.774 325.452C126.402 325.992 125.862 326.412 125.154 326.712C124.458 327.012 123.63 327.162 122.67 327.162ZM133.15 327.162C132.274 327.162 131.518 326.976 130.882 326.604C130.246 326.22 129.754 325.686 129.406 325.002C129.07 324.306 128.902 323.496 128.902 322.572C128.902 321.18 129.28 320.088 130.036 319.296C130.792 318.492 131.83 318.09 133.15 318.09C133.69 318.09 134.224 318.186 134.752 318.378C135.28 318.57 135.718 318.84 136.066 319.188L135.562 320.25C135.214 319.914 134.83 319.668 134.41 319.512C134.002 319.356 133.612 319.278 133.24 319.278C132.328 319.278 131.626 319.566 131.134 320.142C130.642 320.706 130.396 321.522 130.396 322.59C130.396 323.634 130.642 324.462 131.134 325.074C131.626 325.674 132.328 325.974 133.24 325.974C133.612 325.974 134.002 325.896 134.41 325.74C134.83 325.584 135.214 325.332 135.562 324.984L136.066 326.046C135.718 326.394 135.274 326.67 134.734 326.874C134.206 327.066 133.678 327.162 133.15 327.162ZM137.594 316.074V314.436H139.394V316.074H137.594ZM137.774 327V318.252H139.232V327H137.774ZM145.9 327.162C144.52 327.162 143.428 326.76 142.624 325.956C141.82 325.14 141.418 324.036 141.418 322.644C141.418 321.744 141.598 320.952 141.958 320.268C142.318 319.572 142.81 319.038 143.434 318.666C144.07 318.282 144.802 318.09 145.63 318.09C146.818 318.09 147.748 318.474 148.42 319.242C149.092 319.998 149.428 321.042 149.428 322.374V322.932H142.84C142.888 323.928 143.176 324.69 143.704 325.218C144.232 325.734 144.964 325.992 145.9 325.992C146.428 325.992 146.932 325.914 147.412 325.758C147.892 325.59 148.348 325.32 148.78 324.948L149.284 325.974C148.888 326.346 148.384 326.64 147.772 326.856C147.16 327.06 146.536 327.162 145.9 327.162ZM145.666 319.17C144.838 319.17 144.184 319.428 143.704 319.944C143.224 320.46 142.942 321.138 142.858 321.978H148.168C148.132 321.09 147.898 320.4 147.466 319.908C147.046 319.416 146.446 319.17 145.666 319.17ZM151.538 327V318.252H152.96V319.746C153.248 319.194 153.656 318.78 154.184 318.504C154.712 318.228 155.306 318.09 155.966 318.09C158.042 318.09 159.08 319.242 159.08 321.546V327H157.622V321.636C157.622 320.82 157.46 320.226 157.136 319.854C156.824 319.47 156.32 319.278 155.624 319.278C154.82 319.278 154.178 319.53 153.698 320.034C153.23 320.526 152.996 321.186 152.996 322.014V327H151.538ZM165.476 327.162C164.6 327.162 163.844 326.976 163.208 326.604C162.572 326.22 162.08 325.686 161.732 325.002C161.396 324.306 161.228 323.496 161.228 322.572C161.228 321.18 161.606 320.088 162.362 319.296C163.118 318.492 164.156 318.09 165.476 318.09C166.016 318.09 166.55 318.186 167.078 318.378C167.606 318.57 168.044 318.84 168.392 319.188L167.888 320.25C167.54 319.914 167.156 319.668 166.736 319.512C166.328 319.356 165.938 319.278 165.566 319.278C164.654 319.278 163.952 319.566 163.46 320.142C162.968 320.706 162.722 321.522 162.722 322.59C162.722 323.634 162.968 324.462 163.46 325.074C163.952 325.674 164.654 325.974 165.566 325.974C165.938 325.974 166.328 325.896 166.736 325.74C167.156 325.584 167.54 325.332 167.888 324.984L168.392 326.046C168.044 326.394 167.6 326.67 167.06 326.874C166.532 327.066 166.004 327.162 165.476 327.162ZM173.867 327.162C172.487 327.162 171.395 326.76 170.591 325.956C169.787 325.14 169.385 324.036 169.385 322.644C169.385 321.744 169.565 320.952 169.925 320.268C170.285 319.572 170.777 319.038 171.401 318.666C172.037 318.282 172.769 318.09 173.597 318.09C174.785 318.09 175.715 318.474 176.387 319.242C177.059 319.998 177.395 321.042 177.395 322.374V322.932H170.807C170.855 323.928 171.143 324.69 171.671 325.218C172.199 325.734 172.931 325.992 173.867 325.992C174.395 325.992 174.899 325.914 175.379 325.758C175.859 325.59 176.315 325.32 176.747 324.948L177.251 325.974C176.855 326.346 176.351 326.64 175.739 326.856C175.127 327.06 174.503 327.162 173.867 327.162ZM173.633 319.17C172.805 319.17 172.151 319.428 171.671 319.944C171.191 320.46 170.909 321.138 170.825 321.978H176.135C176.099 321.09 175.865 320.4 175.433 319.908C175.013 319.416 174.413 319.17 173.633 319.17ZM187.458 327.162C186.678 327.162 185.994 326.976 185.406 326.604C184.83 326.232 184.38 325.71 184.056 325.038C183.744 324.354 183.588 323.55 183.588 322.626C183.588 321.69 183.744 320.886 184.056 320.214C184.38 319.53 184.83 319.008 185.406 318.648C185.994 318.276 186.678 318.09 187.458 318.09C188.142 318.09 188.742 318.24 189.258 318.54C189.786 318.84 190.176 319.254 190.428 319.782V314.31H191.886V327H190.464V325.398C190.212 325.95 189.822 326.382 189.294 326.694C188.766 327.006 188.154 327.162 187.458 327.162ZM187.764 325.992C188.58 325.992 189.234 325.704 189.726 325.128C190.218 324.54 190.464 323.706 190.464 322.626C190.464 321.534 190.218 320.7 189.726 320.124C189.234 319.548 188.58 319.26 187.764 319.26C186.936 319.26 186.276 319.548 185.784 320.124C185.304 320.7 185.064 321.534 185.064 322.626C185.064 323.706 185.304 324.54 185.784 325.128C186.276 325.704 186.936 325.992 187.764 325.992ZM198.564 327.162C197.184 327.162 196.092 326.76 195.288 325.956C194.484 325.14 194.082 324.036 194.082 322.644C194.082 321.744 194.262 320.952 194.622 320.268C194.982 319.572 195.474 319.038 196.098 318.666C196.734 318.282 197.466 318.09 198.294 318.09C199.482 318.09 200.412 318.474 201.084 319.242C201.756 319.998 202.092 321.042 202.092 322.374V322.932H195.504C195.552 323.928 195.84 324.69 196.368 325.218C196.896 325.734 197.628 325.992 198.564 325.992C199.092 325.992 199.596 325.914 200.076 325.758C200.556 325.59 201.012 325.32 201.444 324.948L201.948 325.974C201.552 326.346 201.048 326.64 200.436 326.856C199.824 327.06 199.2 327.162 198.564 327.162ZM198.33 319.17C197.502 319.17 196.848 319.428 196.368 319.944C195.888 320.46 195.606 321.138 195.522 321.978H200.832C200.796 321.09 200.562 320.4 200.13 319.908C199.71 319.416 199.11 319.17 198.33 319.17ZM211.507 327.162C210.619 327.162 209.947 326.904 209.491 326.388C209.047 325.86 208.825 325.098 208.825 324.102V314.31H210.283V323.994C210.283 325.278 210.793 325.92 211.813 325.92C212.113 325.92 212.383 325.884 212.623 325.812L212.587 327.036C212.215 327.12 211.855 327.162 211.507 327.162ZM213.97 318.216L213.304 317.676C213.568 317.4 213.754 317.142 213.862 316.902C213.982 316.65 214.054 316.398 214.078 316.146H213.232V314.31H215.068V315.606C215.068 316.098 214.99 316.554 214.834 316.974C214.678 317.394 214.39 317.808 213.97 318.216ZM217.364 316.074V314.436H219.164V316.074H217.364ZM217.544 327V318.252H219.002V327H217.544ZM221.727 327V318.252H223.149V319.746C223.437 319.194 223.845 318.78 224.373 318.504C224.901 318.228 225.495 318.09 226.155 318.09C228.231 318.09 229.269 319.242 229.269 321.546V327H227.811V321.636C227.811 320.82 227.649 320.226 227.325 319.854C227.013 319.47 226.509 319.278 225.813 319.278C225.009 319.278 224.367 319.53 223.887 320.034C223.419 320.526 223.185 321.186 223.185 322.014V327H221.727ZM235.828 330.402C235.072 330.402 234.358 330.3 233.686 330.096C233.026 329.904 232.438 329.61 231.922 329.214L232.408 328.152C232.948 328.536 233.482 328.812 234.01 328.98C234.55 329.148 235.132 329.232 235.756 329.232C237.484 329.232 238.348 328.344 238.348 326.568V325.02C238.096 325.572 237.7 326.01 237.16 326.334C236.632 326.646 236.026 326.802 235.342 326.802C234.538 326.802 233.842 326.616 233.254 326.244C232.666 325.872 232.21 325.362 231.886 324.714C231.574 324.054 231.418 323.292 231.418 322.428C231.418 321.564 231.574 320.808 231.886 320.16C232.21 319.5 232.666 318.99 233.254 318.63C233.842 318.27 234.538 318.09 235.342 318.09C236.026 318.09 236.632 318.246 237.16 318.558C237.7 318.87 238.096 319.296 238.348 319.836V318.252H239.77V326.37C239.77 327.714 239.434 328.722 238.762 329.394C238.102 330.066 237.124 330.402 235.828 330.402ZM235.612 325.614C236.452 325.614 237.118 325.326 237.61 324.75C238.102 324.174 238.348 323.4 238.348 322.428C238.348 321.456 238.102 320.688 237.61 320.124C237.118 319.548 236.452 319.26 235.612 319.26C234.784 319.26 234.124 319.548 233.632 320.124C233.14 320.688 232.894 321.456 232.894 322.428C232.894 323.4 233.14 324.174 233.632 324.75C234.124 325.326 234.784 325.614 235.612 325.614ZM246.447 327.162C245.067 327.162 243.975 326.76 243.171 325.956C242.367 325.14 241.965 324.036 241.965 322.644C241.965 321.744 242.145 320.952 242.505 320.268C242.865 319.572 243.357 319.038 243.981 318.666C244.617 318.282 245.349 318.09 246.177 318.09C247.365 318.09 248.295 318.474 248.967 319.242C249.639 319.998 249.975 321.042 249.975 322.374V322.932H243.387C243.435 323.928 243.723 324.69 244.251 325.218C244.779 325.734 245.511 325.992 246.447 325.992C246.975 325.992 247.479 325.914 247.959 325.758C248.439 325.59 248.895 325.32 249.327 324.948L249.831 325.974C249.435 326.346 248.931 326.64 248.319 326.856C247.707 327.06 247.083 327.162 246.447 327.162ZM246.213 319.17C245.385 319.17 244.731 319.428 244.251 319.944C243.771 320.46 243.489 321.138 243.405 321.978H248.715C248.679 321.09 248.445 320.4 248.013 319.908C247.593 319.416 246.993 319.17 246.213 319.17ZM245.655 317.082L247.509 313.446H249.075L246.699 317.082H245.655ZM252.085 327V318.252H253.507V319.746C253.795 319.194 254.203 318.78 254.731 318.504C255.259 318.228 255.853 318.09 256.513 318.09C258.589 318.09 259.627 319.242 259.627 321.546V327H258.169V321.636C258.169 320.82 258.007 320.226 257.683 319.854C257.371 319.47 256.867 319.278 256.171 319.278C255.367 319.278 254.725 319.53 254.245 320.034C253.777 320.526 253.543 321.186 253.543 322.014V327H252.085ZM262.135 316.074V314.436H263.935V316.074H262.135ZM262.315 327V318.252H263.773V327H262.315ZM270.441 327.162C269.061 327.162 267.969 326.76 267.165 325.956C266.361 325.14 265.959 324.036 265.959 322.644C265.959 321.744 266.139 320.952 266.499 320.268C266.859 319.572 267.351 319.038 267.975 318.666C268.611 318.282 269.343 318.09 270.171 318.09C271.359 318.09 272.289 318.474 272.961 319.242C273.633 319.998 273.969 321.042 273.969 322.374V322.932H267.381C267.429 323.928 267.717 324.69 268.245 325.218C268.773 325.734 269.505 325.992 270.441 325.992C270.969 325.992 271.473 325.914 271.953 325.758C272.433 325.59 272.889 325.32 273.321 324.948L273.825 325.974C273.429 326.346 272.925 326.64 272.313 326.856C271.701 327.06 271.077 327.162 270.441 327.162ZM270.207 319.17C269.379 319.17 268.725 319.428 268.245 319.944C267.765 320.46 267.483 321.138 267.399 321.978H272.709C272.673 321.09 272.439 320.4 272.007 319.908C271.587 319.416 270.987 319.17 270.207 319.17ZM279.175 327.162C277.075 327.162 276.025 326.004 276.025 323.688V318.252H277.483V323.67C277.483 324.45 277.639 325.026 277.951 325.398C278.275 325.77 278.779 325.956 279.463 325.956C280.207 325.956 280.813 325.71 281.281 325.218C281.749 324.714 281.983 324.048 281.983 323.22V318.252H283.441V327H282.019V325.524C281.743 326.052 281.353 326.46 280.849 326.748C280.357 327.024 279.799 327.162 279.175 327.162ZM286.169 327V318.252H287.591V319.818C288.059 318.762 289.019 318.18 290.471 318.072L290.993 318.018L291.101 319.278L290.183 319.386C289.355 319.458 288.725 319.722 288.293 320.178C287.861 320.622 287.645 321.234 287.645 322.014V327H286.169Z" fill="#292929"/>
<g id="Group 1">
<line id="Line 1" x1="120" y1="124.5" x2="252.015" y2="124.5" stroke="#4059AD" stroke-width="3"/>
<path id="Le lyc&#195;&#169;e :" d="M122.792 121V98.44H125.416V118.696H136.904V121H122.792ZM146.666 121.288C144.213 121.288 142.272 120.573 140.842 119.144C139.413 117.693 138.698 115.731 138.698 113.256C138.698 111.656 139.018 110.248 139.658 109.032C140.298 107.795 141.173 106.845 142.282 106.184C143.413 105.501 144.714 105.16 146.186 105.16C148.298 105.16 149.952 105.843 151.146 107.208C152.341 108.552 152.938 110.408 152.938 112.776V113.768H141.226C141.312 115.539 141.824 116.893 142.762 117.832C143.701 118.749 145.002 119.208 146.666 119.208C147.605 119.208 148.501 119.069 149.354 118.792C150.208 118.493 151.018 118.013 151.786 117.352L152.682 119.176C151.978 119.837 151.082 120.36 149.994 120.744C148.906 121.107 147.797 121.288 146.666 121.288ZM146.25 107.08C144.778 107.08 143.616 107.539 142.762 108.456C141.909 109.373 141.408 110.579 141.258 112.072H150.698C150.634 110.493 150.218 109.267 149.45 108.392C148.704 107.517 147.637 107.08 146.25 107.08ZM169.676 121.288C168.098 121.288 166.903 120.829 166.092 119.912C165.303 118.973 164.908 117.619 164.908 115.848V98.44H167.5V115.656C167.5 117.939 168.407 119.08 170.22 119.08C170.754 119.08 171.234 119.016 171.66 118.888L171.596 121.064C170.935 121.213 170.295 121.288 169.676 121.288ZM175.825 126.76L178.481 120.744L171.921 105.448H174.737L179.889 118.056L185.073 105.448H187.793L178.545 126.76H175.825ZM196.844 121.288C195.287 121.288 193.943 120.957 192.812 120.296C191.681 119.613 190.807 118.664 190.188 117.448C189.591 116.211 189.292 114.771 189.292 113.128C189.292 110.653 189.964 108.712 191.308 107.304C192.652 105.875 194.497 105.16 196.844 105.16C197.804 105.16 198.753 105.331 199.692 105.672C200.631 106.013 201.409 106.493 202.028 107.112L201.132 109C200.513 108.403 199.831 107.965 199.084 107.688C198.359 107.411 197.665 107.272 197.004 107.272C195.383 107.272 194.135 107.784 193.26 108.808C192.385 109.811 191.948 111.261 191.948 113.16C191.948 115.016 192.385 116.488 193.26 117.576C194.135 118.643 195.383 119.176 197.004 119.176C197.665 119.176 198.359 119.037 199.084 118.76C199.831 118.483 200.513 118.035 201.132 117.416L202.028 119.304C201.409 119.923 200.62 120.413 199.66 120.776C198.721 121.117 197.783 121.288 196.844 121.288ZM211.76 121.288C209.307 121.288 207.365 120.573 205.936 119.144C204.507 117.693 203.792 115.731 203.792 113.256C203.792 111.656 204.112 110.248 204.752 109.032C205.392 107.795 206.267 106.845 207.376 106.184C208.507 105.501 209.808 105.16 211.28 105.16C213.392 105.16 215.045 105.843 216.24 107.208C217.435 108.552 218.032 110.408 218.032 112.776V113.768H206.32C206.405 115.539 206.917 116.893 207.856 117.832C208.795 118.749 210.096 119.208 211.76 119.208C212.699 119.208 213.595 119.069 214.448 118.792C215.301 118.493 216.112 118.013 216.88 117.352L217.776 119.176C217.072 119.837 216.176 120.36 215.088 120.744C214 121.107 212.891 121.288 211.76 121.288ZM211.344 107.08C209.872 107.08 208.709 107.539 207.856 108.456C207.003 109.373 206.501 110.579 206.352 112.072H215.792C215.728 110.493 215.312 109.267 214.544 108.392C213.797 107.517 212.731 107.08 211.344 107.08ZM210.352 103.368L213.648 96.904H216.432L212.208 103.368H210.352ZM228.791 121.288C226.338 121.288 224.397 120.573 222.967 119.144C221.538 117.693 220.823 115.731 220.823 113.256C220.823 111.656 221.143 110.248 221.783 109.032C222.423 107.795 223.298 106.845 224.407 106.184C225.538 105.501 226.839 105.16 228.311 105.16C230.423 105.16 232.077 105.843 233.271 107.208C234.466 108.552 235.063 110.408 235.063 112.776V113.768H223.351C223.437 115.539 223.949 116.893 224.887 117.832C225.826 118.749 227.127 119.208 228.791 119.208C229.73 119.208 230.626 119.069 231.479 118.792C232.333 118.493 233.143 118.013 233.911 117.352L234.807 119.176C234.103 119.837 233.207 120.36 232.119 120.744C231.031 121.107 229.922 121.288 228.791 121.288ZM228.375 107.08C226.903 107.08 225.741 107.539 224.887 108.456C224.034 109.373 223.533 110.579 223.383 112.072H232.823C232.759 110.493 232.343 109.267 231.575 108.392C230.829 107.517 229.762 107.08 228.375 107.08ZM246.617 108.712V105.448H249.881V108.712H246.617ZM246.617 121V117.736H249.881V121H246.617Z" fill="black"/>
</g>
<g id="Ellipse 1">
<circle id="Ellipse 1_2" cx="112.5" cy="232.5" r="2.5" fill="#4059AD"/>
</g>
<g id="Ellipse 2">
<circle id="Ellipse 1_3" cx="112.5" cy="262.5" r="2.5" fill="#4059AD"/>
</g>
<g id="Ellipse 3">
<circle id="Ellipse 1_4" cx="112.5" cy="291.5" r="2.5" fill="#4059AD"/>
</g>
<g id="Ellipse 4">
<circle id="Ellipse 1_5" cx="112.5" cy="321.5" r="2.5" fill="#4059AD"/>
</g>
</g>
</g>
</svg>
