<svg width="80" height="80" viewBox="0 0 80 80" fill="none" xmlns="http://www.w3.org/2000/svg">
<path d="M39.5 18C19.0326 18 3 27.4435 3 39.5C3 51.5565 19.0326 61 39.5 61C59.9674 61 76 51.5565 76 39.5C76 27.4435 59.9674 18 39.5 18Z" fill="white"/>
<path d="M39.5 18C19.0326 18 3 27.4435 3 39.5C3 51.5565 19.0326 61 39.5 61C59.9674 61 76 51.5565 76 39.5C76 27.4435 59.9674 18 39.5 18ZM35.7101 24.6154H39.6947L38.4293 31.2308H41.9881C44.245 31.2308 45.7598 31.5748 46.6236 32.4315C47.4661 33.2782 47.7216 34.6675 47.384 36.5595L45.8023 44.4615H41.7508L43.2078 37.1548C43.3842 36.1526 43.3143 35.4547 43.004 35.0875C42.6968 34.7204 42.0185 34.5385 41.0026 34.5385H37.8119L35.8865 44.4615H31.8958L35.7101 24.6154ZM18.2083 31.2308H26.3174C30.1834 31.2308 32.5255 34.0489 31.6099 38.253C30.5453 43.1385 27.6983 44.4615 22.4545 44.4615H19.9482L19.1543 49.4231H15.1241L18.2083 31.2308ZM50.1458 31.2308H58.2549C62.1209 31.2308 64.463 34.0489 63.5474 38.253C62.4828 43.1385 59.6328 44.4615 54.392 44.4615H51.8857L51.0918 49.4231H47.0616L50.1458 31.2308ZM21.6606 34.5385L20.5139 41.1538H23.1145C25.3654 41.1538 27.458 40.876 27.8078 37.2243C27.9386 35.8119 27.3972 34.5385 24.7966 34.5385H21.6606ZM53.5981 34.5385L52.4514 41.1538H55.052C57.3029 41.1538 59.3955 40.876 59.7453 37.2243C59.8761 35.8119 59.3378 34.5385 56.7341 34.5385H53.5981Z" fill="black"/>
</svg>
