<svg width="80" height="80" viewBox="0 0 80 80" fill="none" xmlns="http://www.w3.org/2000/svg">
<path d="M52.8133 10.6667C50.4659 10.6839 48.1313 11.0157 45.872 11.6533L45.712 11.7013C44.2888 11.4576 42.849 11.323 41.4053 11.2987C38.4373 11.248 35.8853 11.9467 33.832 13.112C31.8053 12.4293 27.6027 11.2533 23.1733 11.488C20.088 11.6507 16.7227 12.56 14.2293 15.1147C11.7413 17.6693 10.4267 21.6213 10.704 27C10.7787 28.4853 11.2133 30.904 11.9387 34.04C12.6587 37.1733 13.6773 40.84 14.944 44.1867C16.2107 47.536 17.6 50.544 19.7707 52.5867C20.8533 53.6107 22.344 54.472 24.1013 54.4C25.336 54.352 26.4533 53.8267 27.416 53.0507C27.8853 53.6507 28.3867 53.912 28.8427 54.1547C29.416 54.4587 29.976 54.6667 30.5547 54.8053C32.1572 55.2155 33.8261 55.2981 35.4613 55.048C36.1733 54.9333 36.9227 54.7093 37.6693 54.3893C37.696 55.1947 37.728 55.984 37.7627 56.784C37.864 59.3173 37.9307 61.656 38.7147 63.7067C38.84 64.0427 39.184 65.768 40.5467 67.2907C41.9067 68.816 44.5733 69.7653 47.608 69.136C49.7493 68.6907 52.4747 67.888 54.2827 65.392C56.0693 62.9227 56.8773 59.3787 57.0373 53.6347C57.0773 53.3253 57.1253 53.0613 57.176 52.8133L57.6027 52.8507H57.6507C59.936 52.952 62.416 52.6373 64.488 51.704C66.3227 50.8773 67.7093 50.0453 68.72 48.5653C68.9733 48.2 69.2507 47.7573 69.3253 46.992C69.4 46.232 68.952 45.0373 68.2027 44.488C66.7013 43.384 65.76 43.8027 64.7493 44.008C63.7547 44.2213 62.7413 44.3387 61.72 44.3627C64.6347 39.6053 66.7227 34.5493 67.9147 30.0747C68.6187 27.4347 69.016 25 69.048 22.872C69.08 20.744 68.9013 18.8587 67.5867 17.2267C63.4773 12.1333 57.6987 10.7253 53.2293 10.6773C53.0907 10.6747 52.952 10.672 52.8133 10.6747V10.6667ZM52.696 12.232C56.9227 12.192 62.3253 13.344 66.2027 18.152C67.0747 19.232 67.3333 20.8107 67.304 22.7573C67.272 24.7013 66.9013 27.0267 66.224 29.576C64.9093 34.5147 62.424 40.2693 58.9227 45.4373C59.0473 45.523 59.1815 45.5937 59.3227 45.648C60.0533 45.9413 61.7173 46.192 65.0427 45.5307C65.8773 45.3573 66.4907 45.2427 67.1253 45.712C67.2775 45.8378 67.3984 45.9972 67.4785 46.1777C67.5585 46.3582 67.5956 46.5548 67.5867 46.752C67.552 47.05 67.4388 47.3334 67.2587 47.5733C66.6187 48.5093 65.3493 49.3973 63.7227 50.128C62.2853 50.7787 60.2213 51.1173 58.392 51.1387C57.4747 51.1467 56.6293 51.0773 55.912 50.8613L55.864 50.8453C55.5867 53.4347 54.9493 58.552 54.536 60.8853C54.2027 62.768 53.6213 64.264 52.5093 65.384C51.4 66.504 49.832 67.1787 47.72 67.6187C45.104 68.1627 43.1973 67.576 41.968 66.5707C40.7413 65.5707 40.1787 64.24 39.84 63.424C39.608 62.864 39.488 62.136 39.3707 61.1627C39.2418 59.9973 39.1555 58.8276 39.112 57.656C39.0351 55.601 39.0102 53.5443 39.0373 51.488C37.944 52.4587 36.584 53.104 35.1253 53.3467C33.392 53.632 31.84 53.352 30.9147 53.128C30.4609 53.0164 30.0222 52.8508 29.608 52.6347C29.176 52.4133 28.768 52.1627 28.496 51.6667C28.3357 51.3835 28.2845 51.0516 28.352 50.7333C28.4391 50.4099 28.6326 50.1253 28.9013 49.9253C29.4027 49.5307 30.0613 49.312 31.056 49.1093C32.8693 48.7493 33.5013 48.5013 33.8853 48.2053C34.2133 47.952 34.584 47.44 35.24 46.6853C35.2368 46.6525 35.2341 46.6196 35.232 46.5867C34.0622 46.5549 32.9154 46.2547 31.88 45.7093C31.504 46.096 29.5733 48.0773 27.2187 50.824C26.2293 51.9733 25.136 52.632 23.9813 52.68C22.8267 52.728 21.784 52.1627 20.8987 51.3307C19.1253 49.6613 17.712 46.7893 16.48 43.544C15.2533 40.296 14.2507 36.68 13.5413 33.6C12.8267 30.52 12.4053 28.0373 12.3467 26.84C12.08 21.7493 13.3067 18.32 15.4133 16.1573C17.52 13.9947 20.4053 13.176 23.2213 13.0187C28.272 12.736 33.0693 14.4453 34.04 14.8133C35.9093 13.5813 38.3173 12.8133 41.328 12.8613C42.755 12.8808 44.1754 13.0597 45.5627 13.3947L45.6133 13.3733C46.224 13.1653 46.8453 12.9893 47.4747 12.8507C49.1878 12.4632 50.937 12.2576 52.6933 12.2373V12.232H52.696ZM53.0773 13.8693H52.712C51.2692 13.8888 49.8316 14.046 48.4187 14.3387C51.2234 15.56 53.6876 17.4475 55.5973 19.8373C56.7538 21.2673 57.7135 22.8458 58.4507 24.5307C58.728 25.176 58.9147 25.7227 59.0187 26.144C59.072 26.3573 59.1093 26.536 59.12 26.7227C59.1303 26.8408 59.1203 26.9598 59.0907 27.0747L59.0747 27.1067C59.152 29.248 58.6053 30.6987 58.5387 32.7413C58.488 34.224 58.8773 35.9653 58.9733 37.8613C59.064 39.648 58.8427 41.608 57.648 43.5333C57.7493 43.6507 57.84 43.768 57.936 43.8853C61.096 39.0587 63.376 33.7147 64.5893 29.1627C65.2373 26.7093 65.584 24.488 65.6133 22.728C65.64 20.968 65.3013 19.6907 64.8693 19.16C61.488 14.9653 56.9147 13.896 53.0773 13.8667V13.8693ZM41.0107 14.496C38.032 14.5013 35.8933 15.376 34.2747 16.6827C32.6027 18.0347 31.4827 19.8827 30.7467 21.7787C30.0342 23.6734 29.5986 25.661 29.4533 27.68L29.488 27.6613C30.3867 27.1707 31.568 26.6827 32.832 26.4C34.0987 26.1173 35.4613 26.0293 36.696 26.4933C37.9307 26.96 38.952 28.0507 39.3227 29.7093C41.096 37.672 38.7707 40.632 37.912 42.864C37.5871 43.6733 37.3084 44.5004 37.0773 45.3413C37.1867 45.3147 37.296 45.288 37.4027 45.2773C37.8711 45.252 38.3385 45.3436 38.7627 45.544C39.6267 45.8907 40.2187 46.616 40.5387 47.448C40.6213 47.6667 40.6827 47.9013 40.7173 48.1413C40.7547 48.2427 40.7707 48.3467 40.768 48.4533C40.6723 51.4981 40.683 54.5453 40.8 57.5893C40.8587 58.9067 40.944 60.064 41.0533 60.9787C41.16 61.8907 41.3147 62.584 41.4133 62.8187C41.7333 63.6027 42.2053 64.6267 43.0587 65.3227C43.912 66.016 45.1307 66.48 47.3627 66.016C49.2987 65.6133 50.4933 65.056 51.2933 64.248C52.088 63.4453 52.5653 62.328 52.8693 60.6133C53.3253 58.0453 54.2427 50.6027 54.352 49.2C54.304 48.1467 54.464 47.3333 54.8107 46.7147C55.1707 46.08 55.7253 45.6907 56.2027 45.48C56.4427 45.3733 56.6667 45.304 56.8507 45.2533C56.6554 44.9815 56.4508 44.7165 56.2373 44.4587C55.5498 43.6505 54.9847 42.7457 54.56 41.7733C54.3572 41.3725 54.1411 40.9785 53.912 40.592C53.5787 40.0053 53.1547 39.272 52.712 38.448C51.824 36.7973 50.8587 34.7973 50.3573 32.848C49.8587 30.904 49.784 28.8907 51.064 27.4693C52.2 26.208 54.1893 25.6853 57.1787 25.9787C57.0907 25.7227 57.0373 25.5093 56.888 25.168C56.2098 23.6205 55.3283 22.1704 54.2667 20.856C51.7333 17.7147 47.6347 14.6 41.2987 14.4987H41.0107V14.496V14.496ZM24.2747 14.6213C23.9547 14.6213 23.6347 14.632 23.3147 14.648C20.7707 14.7893 18.3653 15.5067 16.6453 17.2773C14.92 19.0453 13.7867 21.9467 14.032 26.752C14.0827 27.6587 14.4907 30.208 15.1893 33.232C15.888 36.2613 16.88 39.8213 18.0693 42.9653C19.2587 46.112 20.704 48.8507 22.0747 50.1467C22.7653 50.7947 23.3653 51.056 23.9093 51.0347C24.456 51.008 25.112 50.704 25.9173 49.768C27.384 48.0518 28.9048 46.3825 30.4773 44.7627C29.3667 43.8304 28.5115 42.6311 27.992 41.2773C27.4793 39.9357 27.3231 38.484 27.5387 37.064C27.7973 35.256 27.832 33.5653 27.8027 32.232C27.7707 30.9307 27.6747 30.0667 27.6747 29.5253V29.4507C27.6723 26.6324 28.1772 23.8367 29.1653 21.1973C29.8693 19.3787 30.92 17.5307 32.496 16.0347C30.9493 15.5413 28.2027 14.7893 25.2293 14.648C24.9096 14.6313 24.5895 14.6224 24.2693 14.6213H24.2747V14.6213ZM55.512 27.5333C53.8027 27.5547 52.8427 27.984 52.3387 28.544C51.624 29.3387 51.5573 30.7307 52 32.448C52.44 34.1653 53.352 36.088 54.2107 37.6827C54.6373 38.4827 55.0533 39.2027 55.3893 39.784C55.728 40.3707 55.976 40.7867 56.1253 41.144C56.264 41.4693 56.4187 41.7573 56.5733 42.0267C57.2347 40.6693 57.3547 39.3387 57.2853 37.9493C57.1973 36.232 56.7867 34.4747 56.848 32.696C56.9147 30.616 57.3387 29.2587 57.376 27.6507C56.7577 27.573 56.1352 27.5338 55.512 27.5333V27.5333ZM34.7653 27.8133C34.243 27.8182 33.7227 27.879 33.2133 27.9947C32.2008 28.2331 31.2237 28.6024 30.3067 29.0933C30 29.2533 29.704 29.44 29.4267 29.6507L29.3733 29.6987C29.3893 30.056 29.4613 30.9227 29.4933 32.1947C29.52 33.5893 29.488 35.368 29.2107 37.288C28.608 41.4693 31.7333 44.9307 35.408 44.936C35.6213 44.0773 35.976 43.208 36.328 42.2907C37.352 39.616 39.3653 37.6667 37.6693 30.0533C37.392 28.808 36.8427 28.304 36.0853 28.0187C35.6608 27.8731 35.214 27.8036 34.7653 27.8133V27.8133ZM54.712 28.312H54.84C55.0053 28.3173 55.16 28.336 55.2933 28.3653C55.416 28.3898 55.5334 28.4358 55.64 28.5013C55.6882 28.5303 55.73 28.569 55.7625 28.6149C55.7951 28.6608 55.8179 28.7129 55.8293 28.768V28.7893C55.8335 28.9062 55.8019 29.0216 55.7387 29.12C55.6638 29.2542 55.5705 29.3772 55.4613 29.4853C55.2034 29.7602 54.8624 29.9429 54.4907 30.0053C54.1265 30.0485 53.759 29.9585 53.456 29.752C53.3334 29.6723 53.2229 29.5753 53.128 29.464C53.0465 29.3781 52.991 29.2708 52.968 29.1547C52.9624 29.0976 52.969 29.0401 52.9874 28.9858C53.0058 28.9316 53.0355 28.8818 53.0747 28.84C53.1584 28.7488 53.2589 28.6745 53.3707 28.6213C53.792 28.4243 54.2497 28.3171 54.7147 28.3067V28.312H54.712ZM35.0107 28.7227C35.144 28.7227 35.2853 28.736 35.4293 28.7547C35.8133 28.808 36.1573 28.9067 36.4187 29.0533C36.5467 29.12 36.6587 29.2053 36.7547 29.312C36.8045 29.3688 36.8426 29.435 36.8667 29.5067C36.8905 29.5778 36.8987 29.6534 36.8907 29.728C36.8658 29.8692 36.8 30 36.7013 30.104C36.5979 30.228 36.4766 30.3359 36.3413 30.424C36.0103 30.6498 35.6084 30.7474 35.2107 30.6987C34.8068 30.6347 34.4354 30.4387 34.1547 30.1413C34.0364 30.0231 33.9358 29.8883 33.856 29.7413C33.773 29.6135 33.7362 29.461 33.752 29.3093C33.7893 29.0427 34.016 28.9093 34.232 28.8293C34.4822 28.7525 34.7439 28.72 35.0053 28.7333L35.0107 28.7227ZM57.8373 46.6747H57.8293C57.4587 46.808 57.1547 46.8613 56.896 46.968C56.6387 47.0642 56.4254 47.251 56.296 47.4933C56.136 47.7733 56.0027 48.272 56.0427 49.12C56.1573 49.1962 56.2833 49.2538 56.416 49.2907C56.8453 49.4187 57.568 49.504 58.376 49.4907C59.9813 49.472 61.96 49.1093 63.0107 48.6347C63.872 48.2453 64.672 47.7387 65.3867 47.1307C61.8747 47.8347 59.8933 47.648 58.6747 47.16C58.3732 47.0391 58.0911 46.8747 57.8373 46.672V46.6747ZM37.6027 46.904H37.5493C37.416 46.9147 37.2213 46.9573 36.848 47.3627C35.968 48.3173 35.664 48.9147 34.9387 49.4747C34.2187 50.0347 33.2773 50.3307 31.4 50.704C30.8053 50.8213 30.4667 50.952 30.2373 51.056C30.312 51.1147 30.304 51.1307 30.4133 51.1867C30.688 51.3333 31.0427 51.4613 31.3253 51.5333C32.1333 51.728 33.4587 51.9573 34.8427 51.728C36.224 51.4987 37.664 50.856 38.8907 49.1867C39.104 48.8987 39.1253 48.472 38.952 48.0133C38.7733 47.56 38.3893 47.1653 38.1173 47.0533C37.9545 46.9783 37.7808 46.9297 37.6027 46.9093V46.904V46.904Z" fill="black"/>
</svg>
