<svg width="80" height="80" viewBox="0 0 80 80" fill="none" xmlns="http://www.w3.org/2000/svg">
<ellipse cx="32.4937" cy="18.32" rx="4.82204" ry="2.87872" fill="black"/>
<ellipse cx="46.9597" cy="61.4301" rx="4.82204" ry="4.18081" fill="black"/>
<path d="M39.7983 11C25.5819 11 26.4696 17.3079 26.4696 17.3079L26.4854 23.8431H40.0517V25.8052H21.097C21.097 25.8052 12 24.7496 12 39.4262C12 54.1033 19.9401 53.5827 19.9401 53.5827H24.6787V46.772C24.6787 46.772 24.4233 38.6479 32.4921 38.6479H45.9475C45.9475 38.6479 53.5072 38.7729 53.5072 31.1724V18.6054C53.5072 18.6054 54.6553 11 39.7983 11ZM32.3178 15.3948C32.6383 15.3945 32.9558 15.4589 33.2521 15.5843C33.5483 15.7097 33.8175 15.8936 34.0442 16.1255C34.2708 16.3575 34.4506 16.6329 34.5732 16.936C34.6957 17.2391 34.7586 17.5639 34.7583 17.8919C34.7586 18.22 34.6957 18.5448 34.5732 18.8479C34.4506 19.151 34.2708 19.4264 34.0442 19.6584C33.8175 19.8903 33.5483 20.0742 33.2521 20.1996C32.9558 20.325 32.6383 20.3894 32.3178 20.3891C31.9972 20.3894 31.6797 20.325 31.3835 20.1996C31.0872 20.0742 30.8181 19.8903 30.5914 19.6584C30.3647 19.4264 30.1849 19.151 30.0624 18.8479C29.9398 18.5448 29.8769 18.22 29.8772 17.8919C29.8769 17.5639 29.9398 17.2391 30.0624 16.936C30.1849 16.6329 30.3647 16.3575 30.5914 16.1255C30.8181 15.8936 31.0872 15.7097 31.3835 15.5843C31.6797 15.4589 31.9972 15.3945 32.3178 15.3948V15.3948Z" fill="white"/>
<path d="M40.202 68C54.4183 68 53.5307 61.6921 53.5307 61.6921L53.5149 55.1571H39.9483V53.1951H58.903C58.903 53.1951 68 54.2507 68 39.5736C68 24.8967 60.0599 25.4173 60.0599 25.4173H55.3213V32.2278C55.3213 32.2278 55.5768 40.3519 47.5079 40.3519H34.0525C34.0525 40.3519 26.4929 40.2269 26.4929 47.8276V60.3948C26.4929 60.3948 25.3449 68 40.2018 68H40.202ZM47.6825 63.6057C47.3619 63.606 47.0444 63.5416 46.7482 63.4162C46.4519 63.2908 46.1828 63.1069 45.9561 62.8749C45.7294 62.643 45.5496 62.3676 45.4271 62.0645C45.3045 61.7614 45.2416 61.4365 45.2419 61.1085C45.2416 60.7805 45.3045 60.4556 45.427 60.1525C45.5496 59.8494 45.7293 59.5739 45.956 59.342C46.1827 59.11 46.4519 58.9261 46.7481 58.8006C47.0444 58.6752 47.3619 58.6109 47.6825 58.6111C48.0031 58.6109 48.3206 58.6752 48.6168 58.8006C48.913 58.926 49.1822 59.1099 49.4089 59.3419C49.6356 59.5738 49.8153 59.8492 49.9379 60.1523C50.0604 60.4554 50.1233 60.7803 50.1231 61.1083C50.1233 61.4363 50.0604 61.7612 49.9379 62.0643C49.8153 62.3674 49.6356 62.6428 49.4089 62.8747C49.1822 63.1066 48.913 63.2906 48.6168 63.416C48.3206 63.5413 48.0031 63.6057 47.6825 63.6054V63.6057Z" fill="white"/>
</svg>
