<svg width="80" height="80" viewBox="0 0 80 80" fill="none" xmlns="http://www.w3.org/2000/svg">
<path d="M72 40.504C72 36.264 66.6907 32.2453 58.5493 29.7547C60.4293 21.4587 59.5947 14.856 55.9147 12.7413C55.023 12.2419 54.0138 11.9905 52.992 12.0133V14.92C53.592 14.92 54.0747 15.04 54.48 15.2613C56.2533 16.28 57.024 20.152 56.424 25.136C56.28 26.3627 56.0453 27.6533 55.7573 28.9707C53.031 28.3137 50.264 27.8389 47.4747 27.5493C45.8129 25.2568 44 23.0777 42.048 21.0267C46.3013 17.0747 50.2933 14.9093 53.008 14.9093V12C49.4187 12 44.7227 14.5573 39.9733 18.992C35.2267 14.5867 30.528 12.0533 26.9413 12.0533V14.96C29.6427 14.96 33.648 17.1147 37.9013 21.04C36.0747 22.96 34.248 25.136 32.512 27.5493C29.7169 27.8357 26.9449 28.315 24.216 28.984C23.9276 27.7354 23.7007 26.4735 23.536 25.2027C22.9227 20.216 23.68 16.344 25.4427 15.3147C25.832 15.08 26.3413 14.9733 26.9413 14.9733V12.0667C25.848 12.0667 24.8533 12.3013 23.9947 12.7947C20.328 14.9093 19.5067 21.496 21.3973 29.768C13.2827 32.2747 8 36.2773 8 40.504C8 44.744 13.3093 48.7627 21.4507 51.2507C19.5707 59.5493 20.4053 66.152 24.0853 68.264C24.9333 68.76 25.9253 68.9947 27.0187 68.9947C30.608 68.9947 35.304 66.4373 40.0533 62.0027C44.8 66.4107 49.496 68.9413 53.0853 68.9413C54.1149 68.9631 55.1318 68.7109 56.032 68.2107C59.6987 66.0987 60.52 59.512 58.6293 51.24C66.7173 48.7493 72 44.7307 72 40.504ZM55.0133 31.8027C54.5066 33.5463 53.9193 35.2655 53.2533 36.9547C52.1631 34.834 50.966 32.77 49.6667 30.7707C51.52 31.0453 53.3067 31.384 55.016 31.8027H55.0133ZM49.04 45.696C48.0633 47.4012 47.0143 49.0641 45.896 50.68C41.982 51.025 38.0454 51.0294 34.1307 50.6933C31.8852 47.4858 29.9214 44.09 28.2613 40.544C29.9189 36.9896 31.8743 33.5819 34.1067 30.3573C38.0197 30.0117 41.9554 30.0063 45.8693 30.3413C46.952 31.8933 48.0107 33.552 49.0267 35.3013C50.0187 37.008 50.92 38.7413 51.7413 40.4907C50.9109 42.2612 50.0097 43.9977 49.04 45.696V45.696ZM53.2533 44C53.9573 45.7467 54.56 47.496 55.0533 49.192C53.3467 49.6107 51.544 49.9627 49.68 50.2347C50.974 48.2171 52.1666 46.1363 53.2533 44V44ZM40.0267 57.92C38.8133 56.6667 37.6 55.272 36.4 53.744C37.5733 53.7973 38.7733 53.8373 39.9867 53.8373C41.2133 53.8373 42.4267 53.8107 43.6133 53.744C42.44 55.272 41.2267 56.6667 40.0267 57.92ZM30.32 50.2347C28.522 49.9741 26.737 49.6307 24.9707 49.2053C25.4533 47.5227 26.0533 45.7867 26.7307 44.0533C27.2667 45.0933 27.8293 46.1387 28.4427 47.184C29.056 48.2267 29.68 49.2453 30.32 50.2347ZM39.96 23.088C41.1733 24.3413 42.3867 25.736 43.5867 27.264C42.4133 27.2107 41.2133 27.1707 40 27.1707C38.7733 27.1707 37.56 27.1973 36.3733 27.264C37.5467 25.736 38.76 24.3413 39.96 23.088ZM30.3067 30.7733C29.013 32.7865 27.8204 34.8628 26.7333 36.9947C26.0486 35.2946 25.4478 33.5618 24.9333 31.8027C26.64 31.3973 28.4427 31.0453 30.3067 30.7733ZM18.5013 47.104C13.8827 45.136 10.896 42.552 10.896 40.504C10.896 38.456 13.8827 35.8587 18.5013 33.904C19.6213 33.4213 20.848 32.9893 22.1147 32.5867C22.8587 35.1413 23.8373 37.8027 25.048 40.5307C23.905 43.0965 22.9383 45.7373 22.1547 48.4347C20.9159 48.0511 19.6966 47.607 18.5013 47.104V47.104ZM25.52 65.744C23.7467 64.7307 22.976 60.8533 23.576 55.872C23.72 54.6453 23.9547 53.352 24.2427 52.0347C26.7973 52.6613 29.5893 53.144 32.5253 53.4587C34.1871 55.7512 36.0001 57.9302 37.952 59.9813C33.6987 63.9333 29.7067 66.0987 26.992 66.0987C26.4798 66.1043 25.9742 65.9833 25.52 65.7467V65.744ZM56.464 55.8053C57.0773 60.7893 56.32 64.664 54.5573 65.6933C54.168 65.928 53.6587 66.032 53.0587 66.032C50.3573 66.032 46.352 63.88 42.0987 59.952C44.0425 57.9095 45.8432 55.7355 47.488 53.4453C50.2831 53.159 53.0551 52.6796 55.784 52.0107C56.0853 53.328 56.3173 54.592 56.464 55.8053V55.8053ZM61.4853 47.104C60.3653 47.5867 59.1387 48.0187 57.872 48.4213C57.0746 45.7102 56.0946 43.0561 54.9387 40.4773C56.1387 37.7653 57.1013 35.1173 57.832 32.5733C59.0747 32.9582 60.2984 33.4022 61.4987 33.904C66.1173 35.872 69.104 38.456 69.104 40.504C69.0907 42.552 66.104 45.1493 61.4853 47.104V47.104Z" fill="black"/>
<path d="M39.9867 46.4667C41.5681 46.4667 43.0847 45.8385 44.203 44.7202C45.3212 43.602 45.9494 42.0854 45.9494 40.504C45.9494 38.9226 45.3212 37.406 44.203 36.2878C43.0847 35.1695 41.5681 34.5413 39.9867 34.5413C38.4053 34.5413 36.8887 35.1695 35.7705 36.2878C34.6523 37.406 34.024 38.9226 34.024 40.504C34.024 42.0854 34.6523 43.602 35.7705 44.7202C36.8887 45.8385 38.4053 46.4667 39.9867 46.4667V46.4667Z" fill="black"/>
</svg>
