<svg width="80" height="80" viewBox="0 0 80 80" fill="none" xmlns="http://www.w3.org/2000/svg">
<circle cx="40.5" cy="39.5" r="27.5" fill="black"/>
<path d="M40 11C55.95 11 69 24.05 69 40C69 55.95 55.95 69 40 69C24.05 69 11 55.95 11 40C11 24.05 24.05 11 40 11ZM34.2 49.6063C34.5625 51.2375 34.5625 52.6875 34.2 53.9562L34.0187 54.5C34.0187 54.6813 33.8375 54.8625 33.8375 54.8625C33.475 55.5875 33.1125 56.1313 32.5688 56.8563C30.9375 58.6688 28.5812 59.3937 27.4937 58.85C26.4062 58.3063 26.95 55.5875 28.9438 53.5938C31.1188 51.4188 34.0187 49.9688 34.0187 49.9688L34.2 49.6063ZM58.125 23.325C56.8563 18.25 48.3375 16.4375 40.1812 19.3375C35.4688 21.15 30.2125 23.8688 26.4063 27.3125C21.875 31.4813 21.3313 35.1063 21.5125 36.5562C22.6 41.8125 29.85 45.4375 32.9312 47.975C32.025 48.3375 25.5 51.6 24.05 55.0438C22.4188 58.6688 24.2313 61.2063 25.5 61.3875C29.3063 62.475 33.2938 60.4813 35.2875 57.4C37.2813 54.3188 37.1 50.5125 36.1938 48.5187C37.6037 48.0833 39.1025 48.0209 40.5438 48.3375C45.6188 48.8813 46.7063 52.1437 46.3438 53.4125C45.9813 54.6812 45.075 55.4062 44.7125 55.7687C44.35 55.95 44.1688 56.1312 44.35 56.1312C44.35 56.3125 44.5312 56.3125 44.8937 56.3125C45.2562 56.3125 47.6125 55.225 47.6125 52.6875C47.7938 49.6063 44.7125 46.1625 39.4562 46.1625C37.2812 46.1625 35.8312 46.3438 34.925 46.7062C34.925 46.525 34.7437 46.525 34.7437 46.525C31.4813 43.0812 25.5 40.5438 25.6812 35.8312C25.6812 34.2 26.4063 29.6688 37.2812 24.2312C46.1625 19.7 53.4125 20.9688 54.6813 23.6875C56.4938 27.4938 50.875 34.7437 41.6313 35.8312C38.0063 36.1938 36.1938 34.925 35.8312 34.3813C35.2875 33.8375 35.2875 33.8375 35.1063 33.8375C34.7438 34.0188 34.925 34.3813 35.1063 34.7437C35.4688 35.4688 36.5562 36.7375 38.55 37.4625C40.1812 38.0063 44.35 38.3688 49.425 36.375C55.0438 34.2 59.3938 28.2188 58.125 23.1438V23.325Z" fill="white"/>
</svg>
