<svg width="300" height="300" viewBox="0 0 300 300" fill="none" xmlns="http://www.w3.org/2000/svg">
<rect width="300" height="300" fill="#E5E5E5"/>
<rect width="300" height="300" fill="#E8643C"/>
<path fill-rule="evenodd" clip-rule="evenodd" d="M77.6115 33.3495C91.9268 39.7124 105.58 45.7811 115 60C129.947 82.5621 126.442 100.988 123.416 116.893C121.077 129.186 119.025 139.973 126 150C131.422 157.794 141.265 163.521 151.502 169.477C171.473 181.097 192.942 193.588 186 224C179.104 254.211 200.716 283.343 218.636 300H300V0H32.6916C45.2913 18.9836 61.8526 26.3449 77.6115 33.3495Z" fill="#97BEE6"/>
<rect x="99.2656" y="17.8834" width="10.9951" height="262.883" rx="5.49753" transform="rotate(0.131424 99.2656 17.8834)" fill="#4059AD"/>
<rect x="19.0932" y="108.659" width="10.9951" height="261.882" rx="5.49756" transform="rotate(-89.8686 19.0932 108.659)" fill="#4059AD"/>
<rect width="10.9951" height="261.882" rx="5.49756" transform="matrix(0.00223253 -0.999997 0.999997 0.00235675 18.8822 200.618)" fill="#4059AD"/>
<rect x="190.225" y="18.092" width="10.9951" height="262.883" rx="5.49753" transform="rotate(0.131424 190.225 18.092)" fill="#4059AD"/>
<circle cx="150" cy="150" r="27.5" stroke="#4059AD" stroke-width="11"/>
<rect x="28.3345" y="41.3345" width="14" height="66" rx="7" transform="rotate(-45 28.3345 41.3345)" fill="#4059AD"/>
<rect x="38.234" y="88.0036" width="14" height="66" rx="7" transform="rotate(-135 38.234 88.0036)" fill="#4059AD"/>
</svg>
