<svg width="64" height="65" viewBox="0 0 64 65" fill="none" xmlns="http://www.w3.org/2000/svg">
<path d="M63.048 13.6654C60.8213 14.652 58.4293 15.3187 55.9147 15.62C58.5093 14.0675 60.4505 11.624 61.376 8.74538C58.9382 10.1933 56.2702 11.2126 53.488 11.7587C51.617 9.76102 49.1388 8.43691 46.4382 7.99197C43.7376 7.54703 40.9656 8.00615 38.5526 9.29805C36.1397 10.5899 34.2207 12.6423 33.0937 15.1366C31.9667 17.6308 31.6948 20.4274 32.32 23.092C27.3805 22.844 22.5483 21.5602 18.1371 19.3238C13.7259 17.0874 9.83423 13.9485 6.71466 10.1107C5.64799 11.9507 5.03466 14.084 5.03466 16.356C5.03347 18.4014 5.53714 20.4154 6.501 22.2193C7.46486 24.0233 8.85909 25.5615 10.56 26.6974C8.58739 26.6346 6.65832 26.1016 4.93332 25.1427V25.3027C4.93313 28.1714 5.92541 30.9517 7.74181 33.172C9.55821 35.3923 12.0868 36.9159 14.8987 37.484C13.0687 37.9793 11.1502 38.0522 9.28799 37.6974C10.0813 40.1657 11.6266 42.3241 13.7076 43.8705C15.7886 45.4169 18.3011 46.2739 20.8933 46.3214C16.4929 49.7758 11.0584 51.6496 5.46399 51.6414C4.47301 51.6416 3.48286 51.5838 2.49866 51.468C8.17726 55.1192 14.7876 57.0569 21.5387 57.0494C44.392 57.0494 56.8853 38.1214 56.8853 21.7054C56.8853 21.172 56.872 20.6334 56.848 20.1C59.2781 18.3426 61.3758 16.1664 63.0427 13.6734L63.048 13.6654Z" fill="black"/>
</svg>
