<svg id="Capa_1" enable-background="new 0 0 512 512" height="512" viewBox="0 0 512 512" width="512" xmlns="http://www.w3.org/2000/svg"><g><path d="m256 497h-110.52c22.11 0 40.04-17.93 40.04-40.04v-29.61h70.48l20 34.825z" fill="#ebeaf9"/><path d="m366.52 497h-110.52v-69.65h70.48v29.61c0 22.11 17.93 40.04 40.04 40.04z" fill="#cfcfe8"/><path d="m512 77.486v289.864l-256 40-256-40v-289.864z" fill="#9ff6ff"/><path d="m512 77.486v289.864l-256 40v-329.864z" fill="#8bd3f2"/><g><path d="m388.832 77.486v164.897l-132.832 77.487-132.832-77.487v-164.897z" fill="#8a69e8"/><path d="m388.832 77.486v164.897l-132.832 77.487v-242.384z" fill="#524dc1"/><path d="m276 77.486-20 77.388-132.832-77.388 132.832-77.486z" fill="#bf88ff"/><path d="m388.832 77.486-132.832 77.388v-154.874z" fill="#8a69e8"/></g><g fill="#635a70"><path d="m256 482 20 15-20 15h-150v-30z"/><path d="m256 367.35 20 37.5-20 37.5h-256v-75z"/></g><g fill="#393444"><path d="m256 482h150v30h-150z"/><path d="m256 367.35h256v75h-256z"/></g></g></svg>